<svg xmlns="http://www.w3.org/2000/svg" width="400.1" height="104.5" viewBox="-279 228.5 400.1 104.5">
  <path fill="#2BBCED" d="M-86.5 273v-31.7h4.6v-7.5h-12.4l-9 16.6-9-16.6h-12.9v7.5h4.7V273h-4.7v7.5h17V273h-5.1v-26.4l7.7 14h4.2l7.7-14V273h-5.1v7.5h17V273h-4.7z"/>
  <path fill="#FFF" d="M-83.8 275v3.5h-13V275h5.1v-36.2l-10.9 19.8h-1.8l-10.9-19.8V275h5.1v3.5h-13V275h4.7v-35.7h-4.7v-3.5h9.7l10.2 18.8 10.2-18.8h9.2v3.5h-4.6V275"/>
  <path fill="#2BBCED" d="M-60 241.3v-7.5h-16.9v7.5h4.7V273h-4.7v7.5H-60V273h-4.7v-31.7h4.7zm-2 33.7v3.5h-12.9V275h4.7v-35.7h-4.7v-3.5H-62v3.5h-4.7V275h4.7z"/>
  <path fill="#FFF" d="M-66.7 239.3V275h4.7v3.5h-12.9V275h4.7v-35.7h-4.7v-3.5H-62v3.5"/>
  <path fill="#2BBCED" d="M-28.5 265.9v7.1h-14.2v-31.7h3.8v-1h.9v-6.5h-17v7.5h4.7V273H-55v7.5h33.2v-14.6h-6.7zm4.7 12.6H-53V275h4.7v-35.7H-53v-3.5h13v3.5h-4.7V275h18.2v-7.1h2.7v10.6z"/>
  <path fill="#FFF" d="M-23.8 267.9v10.6H-53V275h4.7v-35.7H-53v-3.5h13v3.5h-4.7V275h18.2v-7.1"/>
  <path fill="#2BBCED" d="M6.8 265.9v7.1H-7.4v-31.7h4.8v-7.5h-17v7.5h4.7V273h-4.7v7.5h33.1v-14.6H6.8zm4.7 12.6h-29.1V275h4.7v-35.7h-4.7v-3.5h13v3.5h-4.8V275H8.8v-7.1h2.7v10.6z"/>
  <path fill="#FFF" d="M11.5 267.9v10.6h-29.1V275h4.7v-35.7h-4.7v-3.5h13v3.5h-4.8V275H8.8v-7.1"/>
  <path fill="#2BBCED" d="M33.8 241.3v-7.5H16.9v7.5h4.7V273h-4.7v7.5h16.9V273h-4.7v-31.7h4.7zm-2 33.7v3.5H18.9V275h4.7v-35.7h-4.7v-3.5h12.9v3.5h-4.7V275h4.7z"/>
  <path fill="#FFF" d="M27.1 239.3V275h4.7v3.5H18.9V275h4.7v-35.7h-4.7v-3.5h12.9v3.5"/>
  <path fill="#2BBCED" d="M60.3 239.3H48.5l-4.2 4.2v26.9l4.5 4.5H60l4.5-4.5v-26.9l-4.2-4.2zm2.2 30.3l-3.3 3.3h-9.6l-3.3-3.3v-25.3l3-3h10.2l3 3v25.3zm-2.2-30.3H48.5l-4.2 4.2v26.9l4.5 4.5H60l4.5-4.5v-26.9l-4.2-4.2zm2.2 30.3l-3.3 3.3h-9.6l-3.3-3.3v-25.3l3-3h10.2l3 3v25.3zm-.1-35.8H46.3l-7.5 7.5v31.3l7.8 7.8h15.5l7.8-7.8v-31.3l-7.5-7.5zm5.5 38l-6.6 6.6H47.4l-6.6-6.6v-29.7l6.3-6.3h14.5l6.3 6.3v29.7zm-19.4-32.5l-4.2 4.2v26.9l4.5 4.5H60l4.5-4.5v-26.9l-4.2-4.2H48.5zm14 30.3l-3.3 3.3h-9.6l-3.3-3.3v-25.3l3-3h10.2l3 3v25.3z"/>
  <path fill="#FFF" d="M61.6 235.8H47.1l-6.3 6.3v29.7l6.6 6.6h13.9l6.6-6.6v-29.7l-6.3-6.3zm2.9 34.6l-4.5 4.5H48.8l-4.5-4.5v-26.9l4.2-4.2h11.8l4.2 4.2v26.9z"/>
  <path fill="#2BBCED" d="M98.3 233.8v7.6h4v23.1l-15.2-30.7H73.6v7.6h4.7v31.5h-4.7v7.5h15.5v-7.5h-4v-26.2l17.1 33.8h7v-39.1h4.7v-7.6H98.3zm13.6 5.6h-4.7v39.1h-3.8l-20.3-40.2v36.6h4v3.5H75.6v-3.5h4.7v-35.5h-4.7v-3.6h10.3l18.4 37.3v-33.7h-4v-3.6h11.6v3.6z"/>
  <path fill="#FFF" d="M111.9 235.8v3.6h-4.7v39.1h-3.8l-20.3-40.2v36.6h4v3.5H75.6v-3.5h4.7v-35.5h-4.7v-3.6h10.3l18.4 37.3v-33.7h-4v-3.6"/>
  <g>
    <path fill="#CC2036" d="M-223.5 275.2l8.3-8.3v-23.8l-14.4-14.6h-34.2l-14.6 14.6v15.6h14.9v-9.1l6-6.2h21.5l6 6.2v13.6l-6 6h-25.2v13.6h25.5l6 6V307l-6.4 6.6h-21.4l-6.6-6.6v-13.2H-279v19.4l15.3 15.3h33.9l15.3-15.2v-29.1l-9-9zm6 36.9l-13.5 13.4h-31.5L-276 312v-15.2h8.9v11.4l8.4 8.4h23.9l8.2-8.4v-20.6l-7.8-7.8h-23.7v-7.6h23.4l7.8-7.8v-16l-7.8-8h-24.1l-7.8 8v7.3h-8.9v-11.4l12.8-12.8h31.8l12.6 12.8v21.4l-9.5 9.5 10.2 10.2v26.7z"/>
    <path fill="#FFF" d="M-217.5 285.4v26.7l-13.5 13.4h-31.5L-276 312v-15.2h8.9v11.4l8.4 8.4h23.9l8.2-8.4v-20.6l-7.8-7.8h-23.7v-7.6h23.4l7.8-7.8v-16l-7.8-8h-24l-7.8 8v7.3h-8.9v-11.4l12.8-12.8h31.8l12.6 12.8v21.4l-9.5 9.5"/>
    <path fill="#CC2036" d="M-159.3 240.4h-25l-8.8 8.8v58l9.4 9.4h23.8l9.4-9.4v-58l-8.8-8.8zm5.8 65.6l-7.6 7.6h-21.4l-7.6-7.6v-55.6l7-7h22.6l7 7V306zm-5.8-65.6h-25l-8.8 8.8v58l9.4 9.4h23.8l9.4-9.4v-58l-8.8-8.8zm5.8 65.6l-7.6 7.6h-21.4l-7.6-7.6v-55.6l7-7h22.6l7 7V306zm-1-77.5h-34.6l-15.9 15.9v67.5l16.5 16.6h33.2l15.7-15.7h1v-68.4l-15.9-15.9zm12.9 82.1l-14.9 14.9h-30.8l-14.7-14.8v-65.1l14.1-14.1h32.2l14.1 14.1v65zm-42.7-70.2l-8.8 8.8v58l9.4 9.4h23.8l9.4-9.4v-58l-8.8-8.8h-25zm30.8 65.6l-7.6 7.6h-21.4l-7.6-7.6v-55.6l7-7h22.6l7 7V306z"/>
    <path fill="#FFF" d="M-155.7 231.5h-32.2l-14.1 14.1v65.1l14.7 14.8h30.8l14.9-14.9v-65l-14.1-14.1zm5.2 75.7l-9.4 9.4h-23.8l-9.4-9.4v-58l8.8-8.8h25l8.8 8.8v58z"/>
  </g>
  <g fill="#1D2554">
    <path d="M-118.5 290.2c-.3-1.5-1.3-2.1-2.8-2.1-2.2 0-3.1 1.9-3.1 4 0 2 .7 4 3.2 4 1.5 0 2.5-1 2.8-2.5h.9c-.4 1.7-1.5 3.2-3.9 3.2-2.8 0-3.9-2.2-3.9-4.7 0-3.4 1.8-4.7 4.2-4.7 1.8 0 3.2 1 3.5 2.8h-.9zm2.5 6.3v-9h.7v3.4c.6-.6 1.2-1.1 2.1-1.1.8 0 1.5.2 2 .9.3.5.3.9.3 1.5v4.2h-.7v-4.2c0-1.2-.5-1.7-1.7-1.7-.9 0-1.6.6-1.8 1.3-.1.4-.2.8-.2 1.2v3.5h-.7zm7-7.8v-1.1h.8v1.1h-.8zm0 7.8v-6.4h.7v6.4h-.7zm2.8 0v-9h.7v9h-.7zm7.6-8.9h.7v9h-.7v-1.1c-.4.8-1.4 1.3-2.2 1.3-2.1 0-2.9-1.5-2.9-3.4 0-1.8.9-3.4 2.9-3.4.9 0 1.8.4 2.3 1.2v-3.6zm-2.1 3c-1.5 0-2.3 1.3-2.2 2.9 0 1.6.9 2.5 2.2 2.5 1.4 0 2.2-1.2 2.2-2.7-.1-1.5-.9-2.7-2.2-2.7zm5.5 5.9h-.7v-6.4h.7v1.2c.4-1 1-1.4 2.1-1.4v.8c-1.7 0-2.1 1.2-2.1 2.6v3.2zm3.6-3c0 1.4.7 2.5 2.2 2.5 1 0 1.7-.5 2-1.5h.8c-.4 1.2-1.1 2.2-2.8 2.2-2.1 0-3-1.5-3-3.4s1.1-3.4 3-3.4c1.8 0 2.8 1.3 2.8 3.6h-5zm4.2-.7c0-1.3-.7-2.3-2-2.3s-2 1.1-2.2 2.3h4.2zm3 3.7h-.7v-6.4h.7v.9c.6-.6 1.2-1.1 2.1-1.1.8 0 1.5.2 2 .9.3.5.3.9.3 1.5v4.2h-.7v-4.2c0-1.2-.5-1.7-1.7-1.7-.9 0-1.6.6-1.8 1.3-.1.4-.2.8-.2 1.2v3.4zm12.6-3.7c.3 0 .7-.1 1-.2.2-.1.3-.4.3-.7 0-.8-.4-1.3-1.6-1.3-1 0-1.7.3-1.9 1.5h-.8c.1-1.5 1.2-2.1 2.6-2.1 1.3 0 2.3.5 2.3 2v3.5c0 .6.1.7.8.5v.6c-.1 0-.4.1-.6.1h-.3c-.5-.1-.6-.5-.6-1-.6.7-1.5 1.1-2.4 1.1-1.1 0-2.2-.6-2.2-1.9 0-1.1.7-1.7 2.2-1.9l1.2-.2zm1.3.3c-.6.3-1.3.3-1.9.4-1.1.1-1.8.5-1.8 1.4 0 .8.7 1.2 1.4 1.2 1.2 0 2.4-.6 2.4-1.9v-1.1zm3.4 3.4h-.7v-6.4h.7v.9c.6-.6 1.2-1.1 2.1-1.1.8 0 1.5.2 2 .9.3.5.3.9.3 1.5v4.2h-.7v-4.2c0-1.2-.5-1.7-1.7-1.7-.9 0-1.6.6-1.8 1.3-.1.4-.2.8-.2 1.2v3.4zm11.2-8.9h.7v9h-.7v-1.1c-.4.8-1.4 1.3-2.2 1.3-2.1 0-2.9-1.5-2.9-3.4 0-1.8.9-3.4 2.9-3.4.9 0 1.8.4 2.3 1.2v-3.6zm-2.2 3c-1.5 0-2.3 1.3-2.2 2.9 0 1.6.9 2.5 2.2 2.5 1.4 0 2.2-1.2 2.2-2.7 0-1.5-.9-2.7-2.2-2.7zm7.5 5.9l3.5-9h1l3.4 9h-.9l-1-2.8h-4.1l-1.1 2.8h-.8zm2.2-3.5h3.5l-1.8-4.7-1.7 4.7zm11.8-5.4h.7v9h-.7v-1.1c-.4.8-1.4 1.3-2.2 1.3-2.1 0-2.9-1.5-2.9-3.4 0-1.8.9-3.4 2.9-3.4.9 0 1.8.4 2.3 1.2v-3.6zm-2.2 3c-1.5 0-2.3 1.3-2.2 2.9 0 1.6.9 2.5 2.2 2.5 1.4 0 2.2-1.2 2.2-2.7 0-1.5-.8-2.7-2.2-2.7zm4.4 2.7c0-1.9 1-3.4 3-3.4s3 1.5 3 3.4c0 2-1.2 3.4-3 3.4-1.6 0-3-1.2-3-3.4zm3-2.7c-1.6 0-2.2 1.3-2.2 2.7 0 1.6.8 2.7 2.2 2.7 1.6 0 2.2-1.3 2.2-2.7 0-1.5-.6-2.7-2.2-2.7zm4.5 5.9v-9h.7v9h-.7zm3.1-3c0 1.4.7 2.5 2.2 2.5 1 0 1.7-.5 2-1.5h.8c-.4 1.2-1.1 2.2-2.8 2.2-2.1 0-3-1.5-3-3.4s1.1-3.4 3-3.4c1.8 0 2.8 1.3 2.8 3.6h-5zm4.2-.7c0-1.3-.7-2.3-2-2.3s-2 1.1-2.2 2.3h4.2zm2.7 1.7c.2 1.1.8 1.5 1.9 1.5 1.1 0 1.6-.6 1.6-1.2 0-1.9-4.1-.5-4.1-3.1 0-1.1.8-1.8 2.3-1.8 1.4 0 2.3.6 2.5 2h-.8c-.1-1-.8-1.4-1.7-1.4-.9 0-1.5.4-1.5 1.1 0 1.8 4.1.7 4.1 3.1 0 1.2-1.1 1.9-2.6 1.9s-2.4-1-2.5-2.2h.8zm10.3-2.4c-.3-1-.9-1.5-1.9-1.5-1.5 0-2.2 1.4-2.2 2.7 0 1.4.6 2.7 2.2 2.7 1.1 0 1.8-.7 2-1.7h.8c-.3 1.4-1.2 2.4-2.8 2.4-2.1 0-3-1.5-3-3.4 0-1.8 1-3.4 3-3.4 1.5 0 2.5.7 2.7 2.2h-.8zm2.8 1.4c0 1.4.7 2.5 2.2 2.5 1 0 1.7-.5 2-1.5h.8c-.4 1.2-1.1 2.2-2.8 2.2-2.1 0-3-1.5-3-3.4s1.1-3.4 3-3.4c1.8 0 2.8 1.3 2.8 3.6h-5zm4.2-.7c0-1.3-.7-2.3-2-2.3s-2 1.1-2.2 2.3H.4zm3 3.7h-.7v-6.4h.7v.9c.6-.6 1.2-1.1 2.1-1.1.8 0 1.5.2 2 .9.3.5.3.9.3 1.5v4.2H7v-4.2c0-1.2-.5-1.7-1.7-1.7-.9 0-1.6.6-1.8 1.3-.1.4-.2.8-.2 1.2v3.4zm8.5 0c-.2 0-.5.1-.9.1-.7 0-1.1-.3-1.1-1.3v-4.7h-1v-.6h.9v-1.8h.7v1.8h1.2v.6h-1.2v4.4c0 .6 0 .9.6.9.2 0 .4 0 .6-.1v.7zm1.6-2c.2 1.1.8 1.5 1.9 1.5 1.1 0 1.6-.6 1.6-1.2 0-1.9-4.1-.5-4.1-3.1 0-1.1.8-1.8 2.3-1.8 1.4 0 2.3.6 2.5 2h-.8c-.1-1-.8-1.4-1.7-1.4-.9 0-1.5.4-1.5 1.1 0 1.8 4.1.7 4.1 3.1 0 1.2-1.1 1.9-2.6 1.9s-2.4-1-2.4-2.2h.7zm9.3-5.8v-1.1h.8v1.1h-.8zm0 7.8v-6.4h.7v6.4h-.7zm3.4 0h-.7v-6.4h.7v.9c.6-.6 1.2-1.1 2.1-1.1.8 0 1.5.2 2 .9.3.5.3.9.3 1.5v4.2h-.7v-4.2c0-1.2-.5-1.7-1.7-1.7-.9 0-1.6.6-1.8 1.3-.1.4-.2.8-.2 1.2v3.4zm11.9 0c-.2 0-.5.1-.9.1-.7 0-1.1-.3-1.1-1.3v-4.7h-.9v-.6h.9v-1.8h.7v1.8H38v.6h-1.2v4.4c0 .6 0 .9.6.9.2 0 .4 0 .6-.1v.7zm1.2 0v-9h.7v3.4c.6-.6 1.2-1.1 2.1-1.1.8 0 1.5.2 2 .9.3.5.3.9.3 1.5v4.2h-.7v-4.2c0-1.2-.5-1.7-1.7-1.7-.9 0-1.6.6-1.8 1.3-.1.4-.2.8-.2 1.2v3.5h-.7zm7.4-3c0 1.4.7 2.5 2.2 2.5 1 0 1.7-.5 2-1.5h.8c-.4 1.2-1.1 2.2-2.8 2.2-2.1 0-3-1.5-3-3.4s1.1-3.4 3-3.4c1.8 0 2.8 1.3 2.8 3.6h-5zm4.2-.7c0-1.3-.7-2.3-2-2.3s-2 1.1-2.2 2.3h4.2zm5.8-5.2h.8v5.3c0 2.2.8 3.1 2.6 3.1 1.9 0 2.6-1 2.6-3.1v-5.3h.8v5.6c0 2.3-1.2 3.6-3.5 3.6s-3.5-1.3-3.5-3.6v-5.6zm9.6 8.9h-.7v-6.4h.7v.9c.6-.6 1.2-1.1 2.1-1.1.8 0 1.5.2 2 .9.3.5.3.9.3 1.5v4.2H70v-4.2c0-1.2-.5-1.7-1.7-1.7-.9 0-1.6.6-1.8 1.3-.1.4-.2.8-.2 1.2v3.4zm6.3-7.8v-1.1h.8v1.1h-.8zm0 7.8v-6.4h.7v6.4h-.7zm4.9 0c-.2 0-.5.1-.9.1-.7 0-1.1-.3-1.1-1.3v-4.7h-.9v-.6h.9v-1.8h.7v1.8h1.2v.6h-1.2v4.4c0 .6 0 .9.6.9.2 0 .4 0 .6-.1v.7zm1.7-3c0 1.4.7 2.5 2.2 2.5 1 0 1.7-.5 2-1.5h.8c-.4 1.2-1.1 2.2-2.8 2.2-2.1 0-3-1.5-3-3.4s1.1-3.4 3-3.4c1.8 0 2.8 1.3 2.8 3.6h-5zm4.2-.7c0-1.3-.7-2.3-2-2.3s-2 1.1-2.2 2.3h4.2zm7.2-5.2h.7v9h-.7v-1.1c-.4.8-1.4 1.3-2.2 1.3-2.1 0-2.9-1.5-2.9-3.4 0-1.8.9-3.4 2.9-3.4.9 0 1.8.4 2.3 1.2v-3.6zm-2.2 3c-1.5 0-2.3 1.3-2.2 2.9 0 1.6.9 2.5 2.2 2.5 1.4 0 2.2-1.2 2.2-2.7 0-1.5-.8-2.7-2.2-2.7zm-212.9 18.2c.1 1.6 1.2 2.2 2.6 2.2 1.6 0 2.3-.9 2.3-1.9 0-2.8-5.5-.9-5.5-4.5 0-1.2 1-2.4 3-2.4s3 1.2 3 2.7h-.8c0-1.4-1.1-2-2.2-2-1.7 0-2.3 1.1-2.2 2 .4 2.3 5.5.6 5.5 4.1 0 1.6-1.2 2.6-3.3 2.6-1.9 0-3.2-1-3.2-2.9h.8zm9.4 2.7c-.2 0-.5.1-.9.1-.7 0-1.1-.3-1.1-1.3v-4.7h-.9v-.6h.9v-1.8h.7v1.8h1.2v.6h-1.2v4.4c0 .6 0 .9.6.9.2 0 .4 0 .6-.1v.7zm4.2-3.8c.3 0 .7-.1 1-.2.2-.1.3-.4.3-.7 0-.8-.4-1.3-1.6-1.3-1 0-1.7.3-1.9 1.5h-.8c.1-1.5 1.2-2.1 2.6-2.1 1.3 0 2.3.5 2.3 2v3.5c0 .6.1.7.8.5v.6c-.1 0-.4.1-.6.1h-.3c-.5-.1-.6-.5-.6-1-.6.7-1.5 1.1-2.4 1.1-1.1 0-2.2-.6-2.2-1.9 0-1.1.7-1.7 2.3-1.9l1.1-.2zm1.2.4c-.6.3-1.3.3-1.9.4-1.1.1-1.8.5-1.8 1.4 0 .8.7 1.2 1.4 1.2 1.2 0 2.4-.6 2.4-1.9v-1.1zm5 3.4c-.2 0-.5.1-.9.1-.7 0-1.1-.3-1.1-1.3v-4.7h-.9v-.6h.9v-1.8h.7v1.8h1.2v.6h-1.2v4.4c0 .6 0 .9.6.9.2 0 .4 0 .6-.1v.7zm1.6-3.1c0 1.4.7 2.5 2.2 2.5 1 0 1.7-.5 2-1.5h.8c-.4 1.2-1.1 2.2-2.8 2.2-2.1 0-3-1.5-3-3.4s1.1-3.4 3-3.4c1.8 0 2.8 1.3 2.8 3.6h-5zm4.2-.6c0-1.3-.7-2.3-2-2.3s-2 1.1-2.2 2.3h4.2zm2.7 1.6c.2 1.1.8 1.5 1.9 1.5 1.1 0 1.6-.6 1.6-1.2 0-1.9-4.1-.5-4.1-3.1 0-1.1.8-1.8 2.3-1.8 1.4 0 2.3.6 2.5 2h-.8c-.1-1-.8-1.4-1.7-1.4-.9 0-1.5.4-1.5 1.1 0 1.8 4.1.7 4.1 3.1 0 1.2-1.1 1.9-2.6 1.9s-2.4-1-2.4-2.2h.7zm9.3 2v-9h3.3c2.3 0 2.9 1.2 2.9 2.5 0 2-1.8 2.5-3.4 2.5H-86v4h-.9zm2.8-4.6c1.6 0 2.6-.3 2.6-1.8 0-1.1-.7-1.7-2.3-1.7H-86v3.6h1.9zm7.7.9c.3 0 .7-.1 1-.2.2-.1.3-.4.3-.7 0-.8-.4-1.3-1.6-1.3-1 0-1.7.3-1.9 1.5h-.8c.1-1.5 1.2-2.1 2.6-2.1 1.3 0 2.3.5 2.3 2v3.5c0 .6.1.7.8.5v.6c-.1 0-.4.1-.6.1h-.3c-.5-.1-.6-.5-.6-1-.6.7-1.5 1.1-2.4 1.1-1.1 0-2.2-.6-2.2-1.9 0-1.1.7-1.7 2.2-1.9l1.2-.2zm1.3.4c-.6.3-1.3.3-1.9.4-1.1.1-1.8.5-1.8 1.4 0 .8.7 1.2 1.4 1.2 1.2 0 2.4-.6 2.4-1.9v-1.1zm3.5 3.3h-.7V305h.7v1.2c.4-1 1-1.4 2.1-1.4v.8c-1.7 0-2.1 1.2-2.1 2.6v3.2zm5.8.1c-.2 0-.5.1-.9.1-.7 0-1.1-.3-1.1-1.3v-4.7h-.9v-.6h.9v-1.8h.7v1.8h1.2v.6h-1.2v4.4c0 .6 0 .9.6.9.2 0 .4 0 .6-.1v.7zm1.3-7.9v-1.1h.8v1.1h-.8zm0 7.8V305h.7v6.4h-.7zm7.2-4.4c-.3-1-.9-1.5-1.9-1.5-1.5 0-2.2 1.4-2.2 2.7 0 1.4.6 2.7 2.2 2.7 1.1 0 1.8-.7 2-1.7h.8c-.3 1.4-1.2 2.4-2.8 2.4-2.1 0-3-1.5-3-3.4 0-1.8 1-3.4 3-3.4 1.5 0 2.4.7 2.7 2.2h-.8zm2.4-3.4v-1.1h.8v1.1h-.8zm.1 7.8V305h.7v6.4h-.7zm3.5 2.6h-.7v-9h.7v1.1c.4-.8 1.4-1.3 2.2-1.3 2.1 0 2.9 1.5 2.9 3.4 0 1.8-.9 3.4-2.9 3.4-.9 0-1.8-.4-2.3-1.2v3.6zm2.1-3.1c1.5 0 2.3-1.3 2.2-2.9 0-1.6-.9-2.5-2.2-2.5-1.4 0-2.2 1.2-2.2 2.7.1 1.5.9 2.7 2.2 2.7zm7.6-3.2c.3 0 .7-.1 1-.2.2-.1.3-.4.3-.7 0-.8-.4-1.3-1.6-1.3-1 0-1.7.3-1.9 1.5h-.8c.1-1.5 1.2-2.1 2.6-2.1 1.3 0 2.3.5 2.3 2v3.5c0 .6.1.7.8.5v.6c-.1 0-.4.1-.6.1h-.3c-.5-.1-.6-.5-.6-1-.6.7-1.5 1.1-2.4 1.1-1.1 0-2.2-.6-2.2-1.9 0-1.1.7-1.7 2.2-1.9l1.2-.2zm1.2.4c-.6.3-1.3.3-1.9.4-1.1.1-1.8.5-1.8 1.4 0 .8.7 1.2 1.4 1.2 1.2 0 2.4-.6 2.4-1.9v-1.1zm5 3.4c-.2 0-.5.1-.9.1-.7 0-1.1-.3-1.1-1.3v-4.7h-.9v-.6h.9v-1.8h.7v1.8h1.2v.6h-1.2v4.4c0 .6 0 .9.6.9.2 0 .4 0 .6-.1v.7zm1.7-3.1c0 1.4.7 2.5 2.2 2.5 1 0 1.7-.5 2-1.5h.8c-.4 1.2-1.1 2.2-2.8 2.2-2.1 0-3-1.5-3-3.4s1.1-3.4 3-3.4c1.8 0 2.8 1.3 2.8 3.6h-5zm4.2-.6c0-1.3-.7-2.3-2-2.3s-2 1.1-2.2 2.3h4.2zm5.7-4.2v-1.1h.8v1.1h-.8zm.1 7.8V305h.7v6.4h-.7zm3.4 0h-.7V305h.7v.9c.6-.6 1.2-1.1 2.1-1.1.8 0 1.5.2 2 .9.3.5.3.9.3 1.5v4.2h-.7v-4.2c0-1.2-.5-1.7-1.7-1.7-.9 0-1.6.6-1.8 1.3-.1.4-.2.8-.2 1.2v3.4zm12.5-4.6l2.7-4.3h1l-3.2 5v3.9h-.8v-3.8l-3.2-5.1h1l2.5 4.3zm3.1 1.4c0-1.9 1-3.4 3-3.4s3 1.5 3 3.4c0 2-1.2 3.4-3 3.4-1.6 0-3-1.1-3-3.4zm3-2.7c-1.6 0-2.2 1.3-2.2 2.7 0 1.6.8 2.7 2.2 2.7 1.6 0 2.2-1.3 2.2-2.7 0-1.5-.6-2.7-2.2-2.7zM7 305h.7v6.4H7v-.9c-.4.4-.9 1.1-2.1 1.1-1.7 0-2.3-1-2.3-2.4V305h.7v4.2c0 1.1.5 1.7 1.7 1.7s2-1 2-2.4V305zm4.9 6.5c-.2 0-.5.1-.9.1-.7 0-1.1-.3-1.1-1.3v-4.7h-1v-.6h.9v-1.8h.7v1.8h1.2v.6h-1.2v4.4c0 .6 0 .9.6.9.2 0 .4 0 .6-.1v.7zm1.1-.1v-9h.7v3.4c.6-.6 1.2-1.1 2.1-1.1.8 0 1.5.2 2 .9.3.5.3.9.3 1.5v4.2h-.7v-4.2c0-1.2-.5-1.7-1.7-1.7-.9 0-1.6.6-1.8 1.3-.1.4-.2.8-.2 1.2v3.5H13zm10.9-2.6c.1 1.6 1.2 2.2 2.6 2.2 1.6 0 2.3-.9 2.3-1.9 0-2.8-5.5-.9-5.5-4.5 0-1.2 1-2.4 3-2.4s3 1.2 3 2.7h-.8c0-1.4-1.1-2-2.2-2-1.7 0-2.3 1.1-2.2 2 .4 2.3 5.5.6 5.5 4.1 0 1.6-1.2 2.6-3.3 2.6-1.9 0-3.2-1-3.2-2.9h.8zm8 5.2h-.7v-9h.7v1.1c.4-.8 1.4-1.3 2.2-1.3 2.1 0 2.9 1.5 2.9 3.4 0 1.8-.9 3.4-2.9 3.4-.9 0-1.8-.4-2.3-1.2v3.6zm2.1-3.1c1.5 0 2.3-1.3 2.2-2.9 0-1.6-.9-2.5-2.2-2.5-1.4 0-2.2 1.2-2.2 2.7.1 1.5.9 2.7 2.2 2.7zm4.2-2.7c0-1.9 1-3.4 3-3.4s3 1.5 3 3.4c0 2-1.2 3.4-3 3.4-1.7 0-3-1.1-3-3.4zm3-2.7c-1.6 0-2.2 1.3-2.2 2.7 0 1.6.8 2.7 2.2 2.7 1.6 0 2.2-1.3 2.2-2.7 0-1.5-.6-2.7-2.2-2.7zm5.1 5.9h-.7V305h.7v1.2c.4-1 1-1.4 2.1-1.4v.8c-1.7 0-2.1 1.2-2.1 2.6v3.2zm5.9.1c-.2 0-.5.1-.9.1-.7 0-1.1-.3-1.1-1.3v-4.7h-.9v-.6h.9v-1.8h.7v1.8h1.2v.6h-1.2v4.4c0 .6 0 .9.6.9.2 0 .4 0 .6-.1v.7zm1.6-2.1c.2 1.1.8 1.5 1.9 1.5 1.1 0 1.6-.6 1.6-1.2 0-1.9-4.1-.5-4.1-3.1 0-1.1.8-1.8 2.3-1.8 1.4 0 2.3.6 2.5 2h-.8c-.1-1-.8-1.4-1.7-1.4-.9 0-1.5.4-1.5 1.1 0 1.8 4.1.7 4.1 3.1 0 1.2-1.1 1.9-2.6 1.9s-2.4-1-2.5-2.2h.8zm8.5 2l3.5-9h1l3.4 9h-.9l-1-2.8h-4.1l-1.1 2.8h-.8zm2.2-3.5H68l-1.8-4.7-1.7 4.7zm11.4-.9c-.3-1-.9-1.5-1.9-1.5-1.5 0-2.2 1.4-2.2 2.7 0 1.4.6 2.7 2.2 2.7 1.1 0 1.8-.7 2-1.7h.8c-.3 1.4-1.2 2.4-2.8 2.4-2.1 0-3-1.5-3-3.4 0-1.8 1-3.4 3-3.4 1.5 0 2.4.7 2.7 2.2h-.8zm4.6 4.5c-.2 0-.5.1-.9.1-.7 0-1.1-.3-1.1-1.3v-4.7h-.9v-.6h.9v-1.8h.7v1.8h1.2v.6h-1.2v4.4c0 .6 0 .9.6.9.2 0 .4 0 .6-.1v.7zm1.3-7.9v-1.1h.8v1.1h-.8zm0 7.8V305h.7v6.4h-.7zm2-6.4h.8l2.1 5.5 2.1-5.5h.8l-2.5 6.4h-.8l-2.5-6.4zm6.9-1.4v-1.1h.8v1.1h-.8zm.1 7.8V305h.7v6.4h-.7zm4.9.1c-.2 0-.5.1-.9.1-.7 0-1.1-.3-1.1-1.3v-4.7h-.9v-.6h.9v-1.8h.7v1.8h1.2v.6h-1.2v4.4c0 .6 0 .9.6.9.2 0 .4 0 .6-.1v.7zm1.3-7.9v-1.1h.8v1.1H97zm0 7.8V305h.7v6.4H97zm3.1-3c0 1.4.7 2.5 2.2 2.5 1 0 1.7-.5 2-1.5h.8c-.4 1.2-1.1 2.2-2.8 2.2-2.1 0-3-1.5-3-3.4s1.1-3.4 3-3.4c1.8 0 2.8 1.3 2.8 3.6h-5zm4.2-.6c0-1.3-.7-2.3-2-2.3s-2 1.1-2.2 2.3h4.2zm2.7 1.6c.2 1.1.8 1.5 1.9 1.5 1.1 0 1.6-.6 1.6-1.2 0-1.9-4.1-.5-4.1-3.1 0-1.1.8-1.8 2.3-1.8 1.4 0 2.3.6 2.5 2h-.8c-.1-1-.8-1.4-1.7-1.4-.9 0-1.5.4-1.5 1.1 0 1.8 4.1.7 4.1 3.1 0 1.2-1.1 1.9-2.6 1.9s-2.4-1-2.4-2.2h.7zm6.2 2v-1.1h.9v1.1h-.9z"/>
  </g>
</svg>
