<svg xmlns="http://www.w3.org/2000/svg" id="_x33_0million" width="368" height="119.2" viewBox="0 0 368 119.2">
  <path id="background" fill="#FFF" d="M149.5 106.7V12.5C149.5 5.6 155.1 0 162 0h193.4c6.9 0 12.5 5.6 12.5 12.5v94.2c0 6.9-5.6 12.5-12.5 12.5H162.1c-7 0-12.6-5.6-12.6-12.5z"/>
  <g id="million" fill="#FFF" stroke="#2BBCED" stroke-width="2" stroke-miterlimit="10">
    <path d="M193.3 13.6h-3.9V42h3.9v4.6h-12.7V42h4.3V15.6L177 29.9h-2.4l-7.9-14.3V42h4.3v4.6h-12.7V42h3.9V13.6h-3.9V9h9.5l8.1 14.9L184.1 9h9.1v4.6z"/>
    <path d="M211.7 13.6h-3.9V42h3.9v4.6h-12.5V42h3.9V13.6h-3.9V9h12.5v4.6z"/>
    <path d="M230.3 13.6h-4.1V42h13.7v-6h4v10.6h-26.2V42h3.9V13.6h-3.9V9h12.7v4.6z"/>
    <path d="M260.1 13.6H256V42h13.7v-6h4v10.6h-26.2V42h3.9V13.6h-3.9V9h12.7v4.6z"/>
    <path d="M290.8 13.6h-3.9V42h3.9v4.6h-12.5V42h3.9V13.6h-3.9V9h12.5v4.6z"/>
    <path d="M321.3 40.6l-6.1 6.1h-12.4l-6.1-6.1V14.8l5.8-5.8h13l5.8 5.8v25.8zm-16.9-27l-3.1 3.1v22.1l3.3 3.3h8.8l3.3-3.3V16.7l-3.1-3.1h-9.2z"/>
    <path d="M358.5 13.7h-4v33h-4.6l-15.8-31.1V42h3.4v4.6h-11.4V42h3.9V13.7h-3.9V9h10.1l14.2 28.7v-24H347V9h11.5v4.7z"/>
  </g>
  <g id="_x33_0">
    <path fill="#FFF" d="M63.1 24.4v22.9l-9 9 9.7 9.7v28.2l-14.6 14.6H16.1L1.5 94.1V76.6h12.1v12.5l7.6 7.6h23l7.4-7.6V69.4l-7-7h-25V51.7h24.5l7-7v-15l-7-7.2h-23l-7 7.2V38h-12V24.4L16 10.5h33.4l13.7 13.9z"/>
    <path fill="#FFF" d="M140.5 92.8l-15.8 15.8H92.3L76.4 92.8V25.7l15.1-15.1h33.8l15.1 15.1v67.1zm-44-70.2l-8 8v57.5l8.6 8.6H120l8.6-8.6V30.6l-8-8H96.5z"/>
    <g fill="#CC2036">
      <path d="M49.8 110.2H15.5L0 94.7V75.1h15.1v13.4l6.7 6.7h21.7l6.6-6.7V70L44 63.9H18.1V50.2h25.4l6.1-6.1V30.4l-6.1-6.3H21.8l-6.1 6.3v9.2H.6V23.8L15.3 9H50l14.6 14.8v24.1l-8.3 8.3 9 9v29.4l-15.5 15.6zm-33.1-3h31.8l13.7-13.7v-27L52 56.2l9.6-9.6V25L48.7 12H16.6l-13 13v11.5h9v-7.4l7.9-8.1h24.3l7.9 8.1v16.3l-7.9 7.9H21.1v7.6h24.1l7.9 7.9v20.9l-8.3 8.5H20.5L12 89.7V78.1H3v15.4l13.7 13.7z"/>
      <path d="M125.3 110.2H91.6L74.9 93.5V25l16-16H126l16 16v68.4l-16.7 16.8zm-32.4-3H124l15-15V26.3L124.7 12H92.2L77.9 26.3v65.9l15 15zm27.6-9.1H96.4L87 88.7V29.9l8.9-8.9h25.2l8.9 8.9v58.8l-9.5 9.4zm-22.9-3h21.6l7.7-7.7V31.2l-7.1-7.1H97.1L90 31.2v56.2l7.6 7.7z"/>
    </g>
  </g>
  <g id="text">
    <path fill="none" d="M157.9 56.4H359v53.8H157.9z"/>
    <path fill="#1D2554" d="M164 61.5c-.3-1.1-1-1.7-2.2-1.7-1.7 0-2.4 1.6-2.4 3.1s.7 3.1 2.4 3.1c1.2 0 2-.7 2.2-1.9h.9c-.3 1.6-1.3 2.7-3.1 2.7-2.3 0-3.3-1.7-3.3-3.8 0-2 1.2-3.8 3.3-3.8 1.7 0 2.8.8 3 2.5h-.8z"/>
    <path fill="#1D2554" d="M166.7 66.5V56.4h.8v3.8c.7-.7 1.3-1.2 2.3-1.2.9 0 1.7.3 2.2 1 .4.5.4 1.1.4 1.7v4.7h-.8v-4.7c0-1.3-.5-2-1.9-2-1 0-1.8.7-2 1.4-.2.5-.2.9-.2 1.4v3.9h-.8z"/>
    <path fill="#1D2554" d="M174.5 57.6v-1.2h.9v1.2h-.9zm.1 8.9v-7.3h.8v7.3h-.8z"/>
    <path fill="#1D2554" d="M177.7 66.5V56.4h.8v10.1h-.8z"/>
    <path fill="#1D2554" d="M186.3 56.4h.8v10.1h-.8v-1.3c-.5 1-1.6 1.5-2.5 1.5-2.3 0-3.3-1.7-3.3-3.8 0-2 1-3.8 3.2-3.8 1 0 2.1.5 2.6 1.4v-4.1zm-2.5 3.4c-1.7 0-2.5 1.5-2.5 3.3 0 1.8 1.1 2.8 2.5 2.8 1.6 0 2.5-1.3 2.5-3.1 0-1.6-1-3-2.5-3z"/>
    <path fill="#1D2554" d="M190.1 66.5h-.8v-7.3h.8v1.4c.5-1.2 1.1-1.6 2.4-1.6v.9c-1.9 0-2.4 1.4-2.4 3v3.6z"/>
    <path fill="#1D2554" d="M194.1 63c0 1.6.8 2.9 2.4 2.9 1.1 0 1.9-.6 2.2-1.7h.9c-.4 1.4-1.3 2.4-3.1 2.4-2.3 0-3.3-1.7-3.3-3.8 0-2.1 1.3-3.9 3.3-3.9 2 0 3.2 1.4 3.2 4h-5.6zm4.8-.7c0-1.4-.8-2.6-2.3-2.6-1.5 0-2.3 1.2-2.4 2.6h4.7z"/>
    <path fill="#1D2554" d="M202.2 66.5h-.8v-7.3h.8v1c.7-.7 1.3-1.2 2.3-1.2.9 0 1.7.3 2.2 1 .4.5.4 1.1.4 1.7v4.7h-.8v-4.7c0-1.3-.5-2-1.9-2-1 0-1.8.7-2 1.4-.2.5-.2.9-.2 1.4v4z"/>
    <path fill="#1D2554" d="M216.4 62.2c.3 0 .8-.1 1.1-.2.3-.1.3-.5.3-.8 0-.9-.5-1.5-1.8-1.5-1.2 0-2 .4-2.1 1.6h-.9c.1-1.7 1.4-2.4 3-2.4 1.5 0 2.6.6 2.6 2.3v4c0 .7.2.8.9.6v.7c-.1 0-.4.1-.7.1h-.4c-.6-.1-.7-.6-.7-1.1-.7.8-1.7 1.2-2.7 1.2-1.3 0-2.4-.7-2.4-2.1 0-1.2.8-2 2.5-2.2l1.3-.2zm1.4.5c-.7.3-1.4.4-2.2.4-1.3.1-2 .6-2 1.5s.8 1.3 1.6 1.3c1.3 0 2.6-.6 2.6-2.1v-1.1z"/>
    <path fill="#1D2554" d="M221.7 66.5h-.8v-7.3h.8v1c.7-.7 1.3-1.2 2.3-1.2.9 0 1.7.3 2.2 1 .3.5.4 1.1.4 1.7v4.7h-.8v-4.7c0-1.3-.5-2-1.9-2-1 0-1.8.7-2 1.4-.2.5-.2.9-.2 1.4v4z"/>
    <path fill="#1D2554" d="M234.3 56.4h.8v10.1h-.8v-1.3c-.5 1-1.6 1.5-2.5 1.5-2.3 0-3.3-1.7-3.3-3.8 0-2 1-3.8 3.2-3.8 1 0 2.1.5 2.6 1.4v-4.1zm-2.5 3.4c-1.7 0-2.5 1.5-2.5 3.3 0 1.8 1.1 2.8 2.5 2.8 1.6 0 2.5-1.3 2.5-3.1 0-1.6-1-3-2.5-3z"/>
    <path fill="#1D2554" d="M244.4 62.2c.3 0 .8-.1 1.1-.2.3-.1.3-.5.3-.8 0-.9-.5-1.5-1.8-1.5-1.2 0-2 .4-2.1 1.6h-.9c.1-1.7 1.4-2.4 3-2.4 1.5 0 2.6.6 2.6 2.3v4c0 .7.2.8.9.6v.7c-.1 0-.4.1-.7.1h-.4c-.6-.1-.7-.6-.7-1.1-.7.8-1.7 1.2-2.7 1.2-1.3 0-2.4-.7-2.4-2.1 0-1.2.8-2 2.5-2.2l1.3-.2zm1.4.5c-.7.3-1.4.4-2.2.4-1.3.1-2 .6-2 1.5s.8 1.3 1.6 1.3c1.3 0 2.6-.6 2.6-2.1v-1.1z"/>
    <path fill="#1D2554" d="M254.5 56.4h.8v10.1h-.8v-1.3c-.5 1-1.6 1.5-2.5 1.5-2.3 0-3.3-1.7-3.3-3.8 0-2 1-3.8 3.2-3.8 1 0 2.1.5 2.6 1.4v-4.1zm-2.5 3.4c-1.7 0-2.5 1.5-2.5 3.3 0 1.8 1.1 2.8 2.5 2.8 1.6 0 2.5-1.3 2.5-3.1 0-1.6-.9-3-2.5-3z"/>
    <path fill="#1D2554" d="M257 62.8c0-2.1 1.1-3.8 3.4-3.8s3.4 1.7 3.4 3.8c0 2.3-1.3 3.8-3.4 3.8-1.9 0-3.4-1.2-3.4-3.8zm3.3-3c-1.8 0-2.5 1.5-2.5 3.1 0 1.8.9 3.1 2.5 3.1 1.8 0 2.5-1.5 2.5-3.1 0-1.8-.7-3.1-2.5-3.1z"/>
    <path fill="#1D2554" d="M265.3 66.5V56.4h.8v10.1h-.8z"/>
    <path fill="#1D2554" d="M268.8 63c0 1.6.8 2.9 2.4 2.9 1.1 0 1.9-.6 2.2-1.7h.9c-.4 1.4-1.3 2.4-3.1 2.4-2.3 0-3.3-1.7-3.3-3.8 0-2.1 1.3-3.9 3.3-3.9 2 0 3.2 1.4 3.2 4h-5.6zm4.8-.7c0-1.4-.8-2.6-2.3-2.6-1.5 0-2.3 1.2-2.4 2.6h4.7z"/>
    <path fill="#1D2554" d="M276.6 64.2c.3 1.2.9 1.7 2.2 1.7 1.2 0 1.8-.6 1.8-1.3 0-2.1-4.7-.6-4.7-3.5 0-1.2.9-2.1 2.5-2.1s2.6.6 2.8 2.3h-.9c-.2-1.1-.9-1.5-2-1.5s-1.6.5-1.6 1.2c0 2 4.7.7 4.7 3.5 0 1.4-1.2 2.1-3 2.1s-2.7-1.1-2.8-2.5h1z"/>
    <path fill="#1D2554" d="M288.3 61.5c-.3-1.1-1-1.7-2.2-1.7-1.7 0-2.4 1.6-2.4 3.1s.7 3.1 2.4 3.1c1.2 0 2-.7 2.2-1.9h.9c-.3 1.6-1.3 2.7-3.1 2.7-2.3 0-3.3-1.7-3.3-3.8 0-2 1.2-3.8 3.3-3.8 1.7 0 2.8.8 3 2.5h-.8z"/>
    <path fill="#1D2554" d="M291.4 63c0 1.6.8 2.9 2.4 2.9 1.1 0 1.9-.6 2.2-1.7h.9c-.4 1.4-1.3 2.4-3.1 2.4-2.3 0-3.3-1.7-3.3-3.8 0-2.1 1.3-3.9 3.3-3.9 2 0 3.2 1.4 3.2 4h-5.6zm4.7-.7c0-1.4-.8-2.6-2.3-2.6-1.5 0-2.3 1.2-2.4 2.6h4.7z"/>
    <path fill="#1D2554" d="M299.5 66.5h-.8v-7.3h.8v1c.7-.7 1.3-1.2 2.3-1.2.9 0 1.7.3 2.2 1 .3.5.4 1.1.4 1.7v4.7h-.8v-4.7c0-1.3-.5-2-1.9-2-1 0-1.8.7-2 1.4-.2.5-.2.9-.2 1.4v4z"/>
    <path fill="#1D2554" d="M309 66.5c-.2 0-.6.2-1 .2-.8 0-1.3-.4-1.3-1.4V60h-1v-.7h1v-2h.8v2h1.4v.7h-1.4v5c0 .7 0 1 .7 1 .2 0 .5 0 .7-.1v.6z"/>
    <path fill="#1D2554" d="M310.8 64.2c.3 1.2.9 1.7 2.2 1.7 1.2 0 1.8-.6 1.8-1.3 0-2.1-4.7-.6-4.7-3.5 0-1.2.9-2.1 2.5-2.1s2.6.6 2.8 2.3h-.9c-.2-1.1-.9-1.5-2-1.5s-1.6.5-1.6 1.2c0 2 4.7.7 4.7 3.5 0 1.4-1.2 2.1-3 2.1s-2.7-1.1-2.8-2.5h1z"/>
    <path fill="#1D2554" d="M321.3 57.6v-1.2h.9v1.2h-.9zm.1 8.9v-7.3h.8v7.3h-.8z"/>
    <path fill="#1D2554" d="M325.2 66.5h-.8v-7.3h.8v1c.7-.7 1.3-1.2 2.3-1.2.9 0 1.7.3 2.2 1 .4.5.4 1.1.4 1.7v4.7h-.8v-4.7c0-1.3-.5-2-1.9-2-1 0-1.8.7-2 1.4-.2.5-.2.9-.2 1.4v4z"/>
    <path fill="#1D2554" d="M338.6 66.5c-.2 0-.6.2-1 .2-.8 0-1.3-.4-1.3-1.4V60h-1v-.7h1v-2h.8v2h1.4v.7h-1.4v5c0 .7 0 1 .7 1 .2 0 .5 0 .7-.1v.6z"/>
    <path fill="#1D2554" d="M339.9 66.5V56.4h.8v3.8c.7-.7 1.3-1.2 2.3-1.2.9 0 1.7.3 2.2 1 .4.5.4 1.1.4 1.7v4.7h-.8v-4.7c0-1.3-.5-2-1.9-2-1 0-1.8.7-2 1.4-.2.5-.2.9-.2 1.4v3.9h-.8z"/>
    <path fill="#1D2554" d="M348.2 63c0 1.6.8 2.9 2.4 2.9 1.1 0 1.9-.6 2.2-1.7h.9c-.4 1.4-1.3 2.4-3.1 2.4-2.3 0-3.3-1.7-3.3-3.8 0-2.1 1.3-3.9 3.3-3.9 2 0 3.2 1.4 3.2 4h-5.6zm4.8-.7c0-1.4-.8-2.6-2.3-2.6-1.5 0-2.3 1.2-2.4 2.6h4.7z"/>
    <path fill="#1D2554" d="M159 73.2h1v6c0 2.5.9 3.5 3 3.5 2.2 0 3-1.1 3-3.5v-6h1v6.3c0 2.6-1.3 4.1-3.9 4.1-2.6 0-3.9-1.5-3.9-4.1v-6.3z"/>
    <path fill="#1D2554" d="M169.8 83.3h-.8V76h.8v1c.7-.7 1.3-1.2 2.3-1.2.9 0 1.7.3 2.2 1 .3.5.4 1.1.4 1.7v4.7h-.8v-4.7c0-1.3-.5-2-1.9-2-1 0-1.8.7-2 1.4-.2.5-.2.9-.2 1.4v4z"/>
    <path fill="#1D2554" d="M176.9 74.4v-1.2h.9v1.2h-.9zm0 8.9V76h.8v7.3h-.8z"/>
    <path fill="#1D2554" d="M182.4 83.3c-.2 0-.6.2-1 .2-.8 0-1.3-.4-1.3-1.4v-5.3h-1V76h1v-2h.8v2h1.4v.7H181v5c0 .7 0 1 .7 1 .2 0 .5 0 .7-.1v.7z"/>
    <path fill="#1D2554" d="M184.3 79.8c0 1.6.8 2.9 2.4 2.9 1.1 0 1.9-.6 2.2-1.7h.9c-.4 1.4-1.3 2.4-3.1 2.4-2.3 0-3.3-1.7-3.3-3.8 0-2.1 1.3-3.9 3.3-3.9 2 0 3.2 1.4 3.2 4h-5.6zm4.7-.7c0-1.4-.8-2.6-2.3-2.6-1.5 0-2.3 1.2-2.4 2.6h4.7z"/>
    <path fill="#1D2554" d="M197.2 73.2h.8v10.1h-.8V82c-.5 1-1.6 1.5-2.5 1.5-2.3 0-3.3-1.7-3.3-3.8 0-2 1-3.8 3.2-3.8 1 0 2.1.5 2.6 1.4v-4.1zm-2.5 3.4c-1.7 0-2.5 1.5-2.5 3.3 0 1.8 1.1 2.8 2.5 2.8 1.6 0 2.5-1.3 2.5-3.1 0-1.6-1-3-2.5-3z"/>
    <path fill="#1D2554" d="M204.5 80.3c.2 1.8 1.4 2.5 2.9 2.5 1.8 0 2.6-1 2.6-2.1 0-3.1-6.1-1-6.1-5 0-1.4 1.2-2.7 3.4-2.7 2.3 0 3.4 1.4 3.4 3h-.9c0-1.5-1.2-2.2-2.5-2.2-1.9 0-2.6 1.2-2.5 2.2.4 2.6 6.1.7 6.1 4.6 0 1.8-1.4 2.9-3.7 2.9-2.1 0-3.7-1.1-3.7-3.3h1z"/>
    <path fill="#1D2554" d="M215.1 83.3c-.2 0-.6.2-1 .2-.8 0-1.3-.4-1.3-1.4v-5.3h-1V76h1v-2h.8v2h1.4v.7h-1.4v5c0 .7 0 1 .7 1 .2 0 .5 0 .7-.1v.7z"/>
    <path fill="#1D2554" d="M219.8 79c.3 0 .8-.1 1.1-.2.3-.1.3-.5.3-.8 0-.9-.5-1.5-1.8-1.5-1.2 0-2 .4-2.1 1.6h-.9c.1-1.7 1.4-2.4 3-2.4 1.5 0 2.6.6 2.6 2.3v4c0 .7.2.8.9.6v.7c-.1 0-.4.1-.7.1h-.4c-.6-.1-.7-.6-.7-1.1-.7.8-1.7 1.2-2.7 1.2-1.3 0-2.4-.7-2.4-2.1 0-1.2.8-2 2.5-2.2l1.3-.2zm1.4.5c-.7.3-1.4.3-2.2.4-1.3.1-2 .6-2 1.5s.8 1.3 1.6 1.3c1.3 0 2.6-.6 2.6-2.1v-1.1z"/>
    <path fill="#1D2554" d="M226.8 83.3c-.2 0-.6.2-1 .2-.8 0-1.3-.4-1.3-1.4v-5.3h-1V76h1v-2h.8v2h1.4v.7h-1.4v5c0 .7 0 1 .7 1 .2 0 .5 0 .7-.1v.7z"/>
    <path fill="#1D2554" d="M228.6 79.8c0 1.6.8 2.9 2.4 2.9 1.1 0 1.9-.6 2.2-1.7h.9c-.4 1.4-1.3 2.4-3.1 2.4-2.3 0-3.3-1.7-3.3-3.8 0-2.1 1.3-3.9 3.3-3.9 2 0 3.2 1.4 3.2 4h-5.6zm4.8-.7c0-1.4-.8-2.6-2.3-2.6-1.5 0-2.3 1.2-2.4 2.6h4.7z"/>
    <path fill="#1D2554" d="M236.4 81c.3 1.2.9 1.7 2.2 1.7 1.2 0 1.8-.6 1.8-1.3 0-2.1-4.7-.6-4.7-3.5 0-1.2.9-2.1 2.5-2.1s2.6.6 2.8 2.3h-.9c-.2-1.1-.9-1.5-2-1.5s-1.6.5-1.6 1.2c0 2 4.7.7 4.7 3.5 0 1.4-1.2 2.1-3 2.1s-2.7-1.1-2.8-2.5h1z"/>
    <path fill="#1D2554" d="M247.7 86.1h-.8V76h.8v1.3c.5-1 1.6-1.5 2.5-1.5 2.3 0 3.3 1.7 3.3 3.8 0 2-1 3.8-3.2 3.8-1 0-2.1-.5-2.6-1.4v4.1zm2.5-3.4c1.7 0 2.5-1.5 2.5-3.3 0-1.8-1.1-2.8-2.5-2.8-1.6 0-2.5 1.3-2.5 3.1 0 1.6 1 3 2.5 3z"/>
    <path fill="#1D2554" d="M258.7 79c.3 0 .8-.1 1.1-.2.3-.1.3-.5.3-.8 0-.9-.5-1.5-1.8-1.5-1.2 0-2 .4-2.1 1.6h-.9c.1-1.7 1.4-2.4 3-2.4 1.5 0 2.6.6 2.6 2.3v4c0 .7.2.8.9.6v.7c-.1 0-.4.1-.7.1h-.4c-.6-.1-.7-.6-.7-1.1-.7.8-1.7 1.2-2.7 1.2-1.3 0-2.4-.7-2.4-2.1 0-1.2.8-2 2.5-2.2l1.3-.2zm1.4.5c-.7.3-1.4.3-2.2.4-1.3.1-2 .6-2 1.5s.8 1.3 1.6 1.3c1.3 0 2.6-.6 2.6-2.1v-1.1z"/>
    <path fill="#1D2554" d="M264 83.3h-.8V76h.8v1.4c.5-1.2 1.1-1.6 2.4-1.6v.9c-1.9 0-2.4 1.4-2.4 3v3.6z"/>
    <path fill="#1D2554" d="M270.6 83.3c-.2 0-.6.2-1 .2-.8 0-1.3-.4-1.3-1.4v-5.3h-1V76h1v-2h.8v2h1.4v.7h-1.4v5c0 .7 0 1 .7 1 .2 0 .5 0 .7-.1v.7z"/>
    <path fill="#1D2554" d="M272 74.4v-1.2h.9v1.2h-.9zm.1 8.9V76h.8v7.3h-.8z"/>
    <path fill="#1D2554" d="M280.2 78.3c-.3-1.1-1-1.7-2.2-1.7-1.7 0-2.4 1.6-2.4 3.1s.7 3.1 2.4 3.1c1.2 0 2-.7 2.2-1.9h.9c-.3 1.6-1.3 2.7-3.1 2.7-2.3 0-3.3-1.7-3.3-3.8 0-2 1.2-3.8 3.3-3.8 1.7 0 2.8.8 3 2.5h-.8z"/>
    <path fill="#1D2554" d="M282.9 74.4v-1.2h.9v1.2h-.9zm.1 8.9V76h.8v7.3h-.8z"/>
    <path fill="#1D2554" d="M286.9 86.1h-.9V76h.8v1.3c.5-1 1.6-1.5 2.5-1.5 2.3 0 3.3 1.7 3.3 3.8 0 2-1 3.8-3.2 3.8-1 0-2.1-.5-2.6-1.4v4.1zm2.4-3.4c1.7 0 2.5-1.5 2.5-3.3 0-1.8-1.1-2.8-2.5-2.8-1.6 0-2.5 1.3-2.5 3.1.1 1.6 1 3 2.5 3z"/>
    <path fill="#1D2554" d="M297.8 79c.3 0 .8-.1 1.1-.2s.3-.5.3-.8c0-.9-.5-1.5-1.8-1.5-1.2 0-2 .4-2.1 1.6h-.9c.1-1.7 1.4-2.4 3-2.4 1.5 0 2.6.6 2.6 2.3v4c0 .7.2.8.9.6v.7c-.1 0-.4.1-.7.1h-.4c-.6-.1-.7-.6-.7-1.1-.7.8-1.7 1.2-2.7 1.2-1.3 0-2.4-.7-2.4-2.1 0-1.2.8-2 2.5-2.2l1.3-.2zm1.4.5c-.7.3-1.4.3-2.2.4-1.3.1-2 .6-2 1.5s.8 1.3 1.6 1.3c1.3 0 2.6-.6 2.6-2.1v-1.1z"/>
    <path fill="#1D2554" d="M304.8 83.3c-.2 0-.6.2-1 .2-.8 0-1.3-.4-1.3-1.4v-5.3h-1V76h1v-2h.8v2h1.4v.7h-1.4v5c0 .7 0 1 .7 1 .2 0 .5 0 .7-.1v.7z"/>
    <path fill="#1D2554" d="M306.7 79.8c0 1.6.8 2.9 2.4 2.9 1.1 0 1.9-.6 2.2-1.7h.9c-.4 1.4-1.3 2.4-3.1 2.4-2.3 0-3.3-1.7-3.3-3.8 0-2.1 1.3-3.9 3.3-3.9 2 0 3.2 1.4 3.2 4h-5.6zm4.7-.7c0-1.4-.8-2.6-2.3-2.6-1.5 0-2.3 1.2-2.4 2.6h4.7z"/>
    <path fill="#1D2554" d="M317.9 74.4v-1.2h.9v1.2h-.9zm.1 8.9V76h.8v7.3h-.8z"/>
    <path fill="#1D2554" d="M321.8 83.3h-.8V76h.8v1c.7-.7 1.3-1.2 2.3-1.2.9 0 1.7.3 2.2 1 .3.5.4 1.1.4 1.7v4.7h-.8v-4.7c0-1.3-.5-2-1.9-2-1 0-1.8.7-2 1.4-.2.5-.2.9-.2 1.4v4z"/>
    <path fill="#1D2554" d="M158.8 102c.2 0 .5.1.7.1 1 0 1.1-1.4 1.4-2l-2.8-7.3h.9l2.3 6.2 2.3-6.2h.9l-2.7 7.2c-.7 1.8-1.1 3-2.3 3-.3 0-.6 0-.8-.1v-.9z"/>
    <path fill="#1D2554" d="M165.4 96.4c0-2.1 1.1-3.8 3.4-3.8s3.4 1.7 3.4 3.8c0 2.3-1.3 3.8-3.4 3.8-1.9 0-3.4-1.2-3.4-3.8zm3.4-3c-1.8 0-2.5 1.5-2.5 3.1 0 1.8.9 3.1 2.5 3.1 1.8 0 2.5-1.5 2.5-3.1-.1-1.8-.8-3.1-2.5-3.1z"/>
    <path fill="#1D2554" d="M178.6 92.8h.8v7.3h-.8v-1c-.4.5-1.1 1.2-2.3 1.2-1.9 0-2.6-1.2-2.6-2.7v-4.8h.8v4.8c0 1.2.5 1.9 1.9 1.9s2.2-1.1 2.2-2.7v-4z"/>
    <path fill="#1D2554" d="M184 100.1c-.2 0-.6.2-1 .2-.8 0-1.3-.4-1.3-1.4v-5.3h-1v-.7h1v-2h.8v2h1.4v.7h-1.4v5c0 .7 0 1 .7 1 .2 0 .5 0 .7-.1v.6z"/>
    <path fill="#1D2554" d="M185.3 100.1V90h.8v3.8c.7-.7 1.3-1.2 2.3-1.2.9 0 1.7.3 2.2 1 .3.5.4 1.1.4 1.7v4.7h-.8v-4.7c0-1.3-.5-2-1.9-2-1 0-1.8.7-2 1.4-.2.5-.2.9-.2 1.4v3.9h-.8z"/>
    <path fill="#1D2554" d="M197.5 97.8c.3 1.2.9 1.7 2.2 1.7 1.2 0 1.8-.6 1.8-1.3 0-2.1-4.7-.6-4.7-3.5 0-1.2.9-2.1 2.5-2.1s2.6.6 2.8 2.3h-.9c-.2-1.1-.9-1.5-2-1.5s-1.6.5-1.6 1.2c0 2 4.7.7 4.7 3.5 0 1.4-1.2 2.1-3 2.1s-2.7-1.1-2.8-2.5h1z"/>
    <path fill="#1D2554" d="M205 102.9h-.8V92.8h.8v1.3c.5-1 1.6-1.5 2.5-1.5 2.3 0 3.3 1.7 3.3 3.8 0 2-1 3.8-3.2 3.8-1 0-2.1-.5-2.6-1.4v4.1zm2.4-3.4c1.7 0 2.5-1.5 2.5-3.3 0-1.8-1.1-2.8-2.5-2.8-1.6 0-2.5 1.3-2.5 3.1.1 1.6 1 3 2.5 3z"/>
    <path fill="#1D2554" d="M212.1 96.4c0-2.1 1.1-3.8 3.4-3.8s3.4 1.7 3.4 3.8c0 2.3-1.3 3.8-3.4 3.8-1.9 0-3.4-1.2-3.4-3.8zm3.4-3c-1.8 0-2.5 1.5-2.5 3.1 0 1.8.9 3.1 2.5 3.1 1.8 0 2.5-1.5 2.5-3.1-.1-1.8-.8-3.1-2.5-3.1z"/>
    <path fill="#1D2554" d="M221.2 100.1h-.8v-7.3h.8v1.4c.5-1.2 1.1-1.6 2.4-1.6v.9c-1.9 0-2.4 1.4-2.4 3v3.6z"/>
    <path fill="#1D2554" d="M227.8 100.1c-.2 0-.6.2-1 .2-.8 0-1.3-.4-1.3-1.4v-5.3h-1v-.7h1v-2h.8v2h1.4v.7h-1.4v5c0 .7 0 1 .7 1 .2 0 .5 0 .7-.1v.6z"/>
    <path fill="#1D2554" d="M229.6 97.8c.3 1.2.9 1.7 2.2 1.7 1.2 0 1.8-.6 1.8-1.3 0-2.1-4.7-.6-4.7-3.5 0-1.2.9-2.1 2.5-2.1s2.6.6 2.8 2.3h-.9c-.2-1.1-.9-1.5-2-1.5s-1.6.5-1.6 1.2c0 2 4.7.7 4.7 3.5 0 1.4-1.2 2.1-3 2.1s-2.7-1.1-2.8-2.5h1z"/>
    <path fill="#1D2554" d="M243.4 95.8c.3 0 .8-.1 1.1-.2s.3-.5.3-.8c0-.9-.5-1.5-1.8-1.5-1.2 0-2 .4-2.1 1.6h-.9c.1-1.7 1.4-2.4 3-2.4 1.5 0 2.6.6 2.6 2.3v4c0 .7.2.8.9.6v.7c-.1 0-.4.1-.7.1h-.4c-.6-.1-.7-.6-.7-1.1-.7.8-1.7 1.2-2.7 1.2-1.3 0-2.4-.7-2.4-2.1 0-1.2.8-2 2.5-2.2l1.3-.2zm1.4.5c-.7.3-1.4.3-2.2.4-1.3.1-2 .6-2 1.5s.8 1.3 1.6 1.3c1.3 0 2.6-.6 2.6-2.1v-1.1z"/>
    <path fill="#1D2554" d="M253 95.1c-.3-1.1-1-1.7-2.2-1.7-1.7 0-2.4 1.6-2.4 3.1s.7 3.1 2.4 3.1c1.2 0 2-.7 2.2-1.9h.9c-.3 1.6-1.3 2.7-3.1 2.7-2.3 0-3.3-1.7-3.3-3.8 0-2 1.2-3.8 3.3-3.8 1.7 0 2.8.8 3 2.5h-.8z"/>
    <path fill="#1D2554" d="M258.2 100.1c-.2 0-.6.2-1 .2-.8 0-1.3-.4-1.3-1.4v-5.3h-1v-.7h1v-2h.8v2h1.4v.7h-1.4v5c0 .7 0 1 .7 1 .2 0 .5 0 .7-.1v.6z"/>
    <path fill="#1D2554" d="M259.6 91.2V90h.9v1.2h-.9zm0 8.9v-7.3h.8v7.3h-.8z"/>
    <path fill="#1D2554" d="M261.8 92.8h.9l2.4 6.2 2.4-6.2h.9l-2.8 7.3h-.9l-2.9-7.3z"/>
    <path fill="#1D2554" d="M269.7 91.2V90h.9v1.2h-.9zm0 8.9v-7.3h.8v7.3h-.8z"/>
    <path fill="#1D2554" d="M275.3 100.1c-.2 0-.6.2-1 .2-.8 0-1.3-.4-1.3-1.4v-5.3h-1v-.7h1v-2h.8v2h1.4v.7h-1.4v5c0 .7 0 1 .7 1 .2 0 .5 0 .7-.1v.6z"/>
    <path fill="#1D2554" d="M276.7 91.2V90h.9v1.2h-.9zm0 8.9v-7.3h.8v7.3h-.8z"/>
    <path fill="#1D2554" d="M280.2 96.6c0 1.6.8 2.9 2.4 2.9 1.1 0 1.9-.6 2.2-1.7h.9c-.4 1.4-1.3 2.4-3.1 2.4-2.3 0-3.3-1.7-3.3-3.8 0-2.1 1.3-3.9 3.3-3.9 2 0 3.2 1.4 3.2 4h-5.6zm4.8-.7c0-1.4-.8-2.6-2.3-2.6-1.5 0-2.3 1.2-2.4 2.6h4.7z"/>
    <path fill="#1D2554" d="M288 97.8c.3 1.2.9 1.7 2.2 1.7 1.2 0 1.8-.6 1.8-1.3 0-2.1-4.7-.6-4.7-3.5 0-1.2.9-2.1 2.5-2.1s2.6.6 2.8 2.3h-.9c-.2-1.1-.9-1.5-2-1.5s-1.6.5-1.6 1.2c0 2 4.7.7 4.7 3.5 0 1.4-1.2 2.1-3 2.1s-2.7-1.1-2.8-2.5h1z"/>
    <path fill="#1D2554" d="M294.8 100.1V99h.9v1.1h-.9z"/>
  </g>
</svg>
