<svg id="Layer_1" xmlns="http://www.w3.org/2000/svg" width="95" height="97.9" viewBox="0 0 95 97.9">
  <style>
    .st0{fill:#4167B0;} .st1{fill:#FFFFFF;} .st2{fill:#CC2036;} .st3{fill:#2BBCED;} .st4{fill:#F05623;}
  </style>
  <path class="st0" d="M47.5 0C21.3 0 0 22 0 49s21.3 49 47.5 49S95 76 95 49 73.7 0 47.5 0zm0 94.9C23 94.9 3 74.3 3 49 3 23.6 23 3 47.5 3S92 23.6 92 49c0 25.3-20 45.9-44.5 45.9z"/>
  <path class="st1" d="M92 49c0 25.3-20 46-44.5 46C23 94.9 3 74.3 3 49 3 23.6 23 3 47.5 3S92 23.6 92 49z"/>
  <path class="st0" d="M60.6 38.8l-.1-.8H56v-2h5V23h-8v-7h-8v7h-9v13h5v2h-4.6l-.3.7c-.3.8-6.8 19 .2 42.9l.2.7 21.9.1.2-.7c.1-.2 7-19.2 2-42.9zM38 34v-9h9v-7h4v7h8v9H38zm17 1v4.2H42V35h13zm2 45.4l-19-.1C32.2 59.8 36.7 43 37.7 40h21.1c4.1 20-.7 36.9-1.8 40.4z"/>
  <path class="st2" d="M59 25v9H38v-9h9v-7h4v7z"/>
  <path class="st3" d="M57 80.4l-19-.1C32.2 59.8 36.7 43 37.7 40h21.1c4.1 20-.7 36.9-1.8 40.4z"/>
  <path class="st4" d="M55 35v4.2H42V35z"/>
</svg>
