<svg xmlns="http://www.w3.org/2000/svg" width="388.1" height="192" viewBox="0 0 388.1 192">
  <g>
    <path fill="#FFF" d="M376.1 45.1H12c-6.6 0-12 5.4-12 12v98.6c0 6.6 5.4 12 12 12h364.1c6.6 0 12-5.4 12-12V57.1c0-6.6-5.4-12-12-12z"/>
    <g>
      <g fill="#1D2554">
        <path d="M14.3 90.7l3.5-9h1l3.4 9h-.9l-1-2.8h-4.1l-1.1 2.8h-.8zm2.3-3.6h3.5l-1.8-4.7-1.7 4.7z"/>
        <path d="M27.1 90.7h-.7v-6.4h.7v1.2c.4-1 1-1.4 2.1-1.4v.8c-1.7 0-2.1 1.2-2.1 2.6v3.2z"/>
        <path d="M30.4 87.6c0 1.4.7 2.5 2.2 2.5 1 0 1.7-.5 2-1.5h.8c-.4 1.2-1.1 2.2-2.8 2.2-2.1 0-3-1.5-3-3.4s1.1-3.4 3-3.4c1.8 0 2.8 1.3 2.8 3.6h-5zm4.2-.6c0-1.3-.7-2.3-2-2.3s-2 1.1-2.2 2.3h4.2z"/>
        <path d="M41.2 86.2c-.3-1-.9-1.5-1.9-1.5-1.5 0-2.2 1.4-2.2 2.7 0 1.4.6 2.7 2.2 2.7 1.1 0 1.8-.7 2-1.7h.8c-.3 1.4-1.2 2.4-2.8 2.4-2.1 0-3-1.5-3-3.4 0-1.8 1-3.4 3-3.4 1.5 0 2.4.7 2.7 2.2h-.8z"/>
        <path d="M43.8 87.6c0 1.4.7 2.5 2.2 2.5 1 0 1.7-.5 2-1.5h.8c-.4 1.2-1.1 2.2-2.8 2.2-2.1 0-3-1.5-3-3.4s1.1-3.4 3-3.4c1.8 0 2.8 1.3 2.8 3.6h-5zM48 87c0-1.3-.7-2.3-2-2.3s-2 1.1-2.2 2.3H48z"/>
        <path d="M50.7 90.7H50v-6.4h.7v.9c.6-.6 1.2-1.1 2.1-1.1.8 0 1.5.2 2 .9.3.5.3.9.3 1.5v4.2h-.7v-4.2c0-1.2-.5-1.7-1.7-1.7-.9 0-1.6.6-1.8 1.3-.1.4-.2.8-.2 1.2v3.4z"/>
        <path d="M58.9 90.7c-.2 0-.5.1-.9.1-.7 0-1.1-.3-1.1-1.3v-4.7H56v-.6h.9v-1.8h.7v1.8h1.2v.6h-1.2v4.4c0 .6 0 .9.6.9.2 0 .4 0 .6-.1v.7z"/>
        <path d="M63.5 88.6c.2 1.1.8 1.5 1.9 1.5 1.1 0 1.6-.6 1.6-1.2 0-1.9-4.1-.5-4.1-3.1 0-1.1.8-1.8 2.3-1.8 1.4 0 2.3.6 2.5 2h-.8c-.1-1-.8-1.4-1.7-1.4-.9 0-1.5.4-1.5 1.1 0 1.8 4.1.7 4.1 3.1 0 1.2-1.1 1.9-2.6 1.9s-2.4-1-2.4-2.2h.7z"/>
        <path d="M73.4 84.2h.7v6.4h-.7v-.9c-.4.4-.9 1.1-2.1 1.1-1.7 0-2.3-1-2.3-2.4v-4.2h.7v4.2c0 1.1.5 1.7 1.7 1.7s2-1 2-2.4v-3.5z"/>
        <path d="M76.5 90.7h-.7v-6.4h.7v1.2c.4-1 1-1.4 2.1-1.4v.8c-1.7 0-2.1 1.2-2.1 2.6v3.2z"/>
        <path d="M78.9 84.2h.8l2.1 5.5 2.1-5.5h.8l-2.5 6.4h-.8l-2.5-6.4z"/>
        <path d="M86 87.6c0 1.4.7 2.5 2.2 2.5 1 0 1.7-.5 2-1.5h.8c-.4 1.2-1.1 2.2-2.8 2.2-2.1 0-3-1.5-3-3.4s1.1-3.4 3-3.4c1.8 0 2.8 1.3 2.8 3.6h-5zm4.2-.6c0-1.3-.7-2.3-2-2.3s-2 1.1-2.2 2.3h4.2z"/>
        <path d="M92.2 92.4c.2 0 .4.1.6.1.8 0 1-1.2 1.3-1.8l-2.5-6.5h.8l2.1 5.5 2.1-5.5h.8L95 90.6c-.6 1.6-1 2.6-2 2.6-.3 0-.5 0-.7-.1v-.7z"/>
        <path d="M100.8 84.8v-.6h1v-1c0-1 .4-1.7 1.4-1.7h.6v.7c-.1 0-.3-.1-.4-.1-.8 0-.8.6-.8 1.2v.8h1.2v.6h-1.2v5.8h-.7v-5.8h-1.1z"/>
        <path d="M104.2 87.4c0-1.9 1-3.4 3-3.4s3 1.5 3 3.4c0 2-1.2 3.4-3 3.4-1.7 0-3-1.1-3-3.4zm3-2.7c-1.6 0-2.2 1.3-2.2 2.7 0 1.6.8 2.7 2.2 2.7 1.6 0 2.2-1.3 2.2-2.7 0-1.5-.6-2.7-2.2-2.7z"/>
        <path d="M115.6 84.2h.7v6.4h-.7v-.9c-.4.4-.9 1.1-2.1 1.1-1.7 0-2.3-1-2.3-2.4v-4.2h.7v4.2c0 1.1.5 1.7 1.7 1.7s2-1 2-2.4v-3.5z"/>
        <path d="M118.7 90.7h-.7v-6.4h.7v.9c.6-.6 1.2-1.1 2.1-1.1.8 0 1.5.2 2 .9.3.5.3.9.3 1.5v4.2h-.7v-4.2c0-1.2-.5-1.7-1.7-1.7-.9 0-1.6.6-1.8 1.3-.1.4-.2.8-.2 1.2v3.4z"/>
        <path d="M129.6 81.7h.7v9h-.7v-1.1c-.4.8-1.4 1.3-2.2 1.3-2.1 0-2.9-1.5-2.9-3.4 0-1.8.9-3.4 2.9-3.4.9 0 1.8.4 2.3 1.2v-3.6zm-2.2 3c-1.5 0-2.3 1.3-2.2 2.9 0 1.6.9 2.5 2.2 2.5 1.4 0 2.2-1.2 2.2-2.7 0-1.5-.8-2.7-2.2-2.7z"/>
        <path d="M137.4 90.7c-.2 0-.5.1-.9.1-.7 0-1.1-.3-1.1-1.3v-4.7h-.9v-.6h.9v-1.8h.7v1.8h1.2v.6h-1.2v4.4c0 .6 0 .9.6.9.2 0 .4 0 .6-.1v.7z"/>
        <path d="M138.4 90.7v-9h.7v3.4c.6-.6 1.2-1.1 2.1-1.1.8 0 1.5.2 2 .9.3.5.3.9.3 1.5v4.2h-.7v-4.2c0-1.2-.5-1.7-1.7-1.7-.9 0-1.6.6-1.8 1.3-.1.4-.2.8-.2 1.2v3.5h-.7z"/>
        <path d="M145.5 87.6c0 1.4.7 2.5 2.2 2.5 1 0 1.7-.5 2-1.5h.8c-.4 1.2-1.1 2.2-2.8 2.2-2.1 0-3-1.5-3-3.4s1.1-3.4 3-3.4c1.8 0 2.8 1.3 2.8 3.6h-5zm4.2-.6c0-1.3-.7-2.3-2-2.3s-2 1.1-2.2 2.3h4.2z"/>
        <path d="M15.9 108.1h-.7v-9h.7v1.1c.4-.8 1.4-1.3 2.2-1.3 2.1 0 2.9 1.5 2.9 3.4 0 1.8-.9 3.4-2.9 3.4-.9 0-1.8-.4-2.3-1.2v3.6zm2.2-3c1.5 0 2.3-1.3 2.2-2.9 0-1.6-.9-2.5-2.2-2.5-1.4 0-2.2 1.2-2.2 2.7 0 1.4.8 2.7 2.2 2.7z"/>
        <path d="M22.9 102.5c0 1.4.7 2.5 2.2 2.5 1 0 1.7-.5 2-1.5h.8c-.4 1.2-1.1 2.2-2.8 2.2-2.1 0-3-1.5-3-3.4s1.1-3.4 3-3.4c1.8 0 2.8 1.3 2.8 3.6h-5zm4.2-.6c0-1.3-.7-2.3-2-2.3s-2 1.1-2.2 2.3h4.2z"/>
        <path d="M29.9 105.6h-.7v-6.4h.7v1.2c.4-1 1-1.4 2.1-1.4v.8c-1.7 0-2.1 1.2-2.1 2.6v3.2z"/>
        <path d="M37.3 101.2c-.3-1-.9-1.5-1.9-1.5-1.5 0-2.2 1.4-2.2 2.7 0 1.4.6 2.7 2.2 2.7 1.1 0 1.8-.7 2-1.7h.8c-.3 1.4-1.2 2.4-2.8 2.4-2.1 0-3-1.5-3-3.4 0-1.8 1-3.4 3-3.4 1.5 0 2.4.7 2.7 2.2h-.8z"/>
        <path d="M39.9 102.5c0 1.4.7 2.5 2.2 2.5 1 0 1.7-.5 2-1.5h.8c-.4 1.2-1.1 2.2-2.8 2.2-2.1 0-3-1.5-3-3.4s1.1-3.4 3-3.4c1.8 0 2.8 1.3 2.8 3.6h-5zm4.2-.6c0-1.3-.7-2.3-2-2.3s-2 1.1-2.2 2.3h4.2z"/>
        <path d="M46.8 105.6h-.7v-6.4h.7v.9c.6-.6 1.2-1.1 2.1-1.1.8 0 1.5.2 2 .9.3.5.3.9.3 1.5v4.2h-.7v-4.2c0-1.2-.5-1.7-1.7-1.7-.9 0-1.6.6-1.8 1.3-.1.4-.2.8-.2 1.2v3.4z"/>
        <path d="M55 105.6c-.2 0-.5.1-.9.1-.7 0-1.1-.3-1.1-1.3v-4.7h-.9v-.6h.9v-1.8h.7v1.8H55v.6h-1.2v4.4c0 .6 0 .9.6.9.2 0 .4 0 .6-.1v.7z"/>
        <path d="M58.9 101.8c.3 0 .7-.1 1-.2.2-.1.3-.4.3-.7 0-.8-.4-1.3-1.6-1.3-1 0-1.7.3-1.9 1.5h-.8c.1-1.5 1.2-2.1 2.6-2.1 1.3 0 2.3.5 2.3 2v3.5c0 .6.1.7.8.5v.6c-.1 0-.4.1-.6.1h-.3c-.5-.1-.6-.5-.6-1-.6.7-1.5 1.1-2.4 1.1-1.1 0-2.2-.6-2.2-1.9 0-1.1.7-1.7 2.3-1.9l1.1-.2zm1.3.4c-.6.3-1.3.3-1.9.4-1.1.1-1.8.5-1.8 1.4 0 .8.7 1.2 1.4 1.2 1.2 0 2.4-.6 2.4-1.9v-1.1z"/>
        <path d="M67.6 99.1h.7v5.8c0 1.7-.6 3.3-3 3.3-1.9 0-2.7-1.1-2.7-1.9h.8c.2 1 1 1.2 1.9 1.2 2 0 2.3-1.5 2.3-3-.5.8-1.4 1.2-2.3 1.2-2 0-2.9-1.6-2.9-3.4 0-1.9.8-3.4 2.9-3.4.8 0 1.8.5 2.2 1.3v-1.1zm-2.2.5c-1.3 0-2.2.9-2.2 2.5-.1 1.6.7 2.9 2.2 2.9 1.4 0 2.2-1.2 2.2-2.7 0-1.5-.8-2.7-2.2-2.7z"/>
        <path d="M70.4 102.5c0 1.4.7 2.5 2.2 2.5 1 0 1.7-.5 2-1.5h.8c-.4 1.2-1.1 2.2-2.8 2.2-2.1 0-3-1.5-3-3.4s1.1-3.4 3-3.4c1.8 0 2.8 1.3 2.8 3.6h-5zm4.2-.6c0-1.3-.7-2.3-2-2.3s-2 1.1-2.2 2.3h4.2z"/>
        <path d="M79.4 102.4c0-1.9 1-3.4 3-3.4s3 1.5 3 3.4c0 2-1.2 3.4-3 3.4-1.6-.1-3-1.2-3-3.4zm3-2.8c-1.6 0-2.2 1.3-2.2 2.7 0 1.6.8 2.7 2.2 2.7 1.6 0 2.2-1.3 2.2-2.7 0-1.5-.6-2.7-2.2-2.7z"/>
        <path d="M85.9 99.8v-.6h1v-1c0-1 .4-1.7 1.4-1.7h.6v.7c-.1 0-.3-.1-.4-.1-.8 0-.8.6-.8 1.2v.8h1.2v.6h-1.2v5.8H87v-5.8h-1.1z"/>
        <path d="M92.9 107.3c.2 0 .4.1.6.1.8 0 1-1.2 1.3-1.8l-2.5-6.5h.8l2.1 5.5 2.1-5.5h.7l-2.4 6.4c-.6 1.6-1 2.6-2 2.6-.3 0-.5 0-.7-.1v-.7z"/>
        <path d="M98.5 102.4c0-1.9 1-3.4 3-3.4s3 1.5 3 3.4c0 2-1.2 3.4-3 3.4-1.7-.1-3-1.2-3-3.4zm3-2.8c-1.6 0-2.2 1.3-2.2 2.7 0 1.6.8 2.7 2.2 2.7 1.6 0 2.2-1.3 2.2-2.7-.1-1.5-.7-2.7-2.2-2.7z"/>
        <path d="M109.9 99.1h.7v6.4h-.7v-.9c-.4.4-.9 1.1-2.1 1.1-1.7 0-2.3-1-2.3-2.4v-4.2h.7v4.2c0 1.1.5 1.7 1.7 1.7s2-1 2-2.4v-3.5z"/>
        <path d="M113 105.6h-.7v-6.4h.7v.9c.6-.6 1.2-1.1 2.1-1.1.8 0 1.5.2 2 .9.3.5.3.9.3 1.5v4.2h-.7v-4.2c0-1.2-.5-1.7-1.7-1.7-.9 0-1.6.6-1.8 1.3-.1.4-.2.8-.2 1.2v3.4z"/>
        <path d="M123.9 99.1h.7v5.8c0 1.7-.6 3.3-3 3.3-1.9 0-2.7-1.1-2.7-1.9h.8c.2 1 1 1.2 1.9 1.2 2 0 2.3-1.5 2.3-3-.5.8-1.4 1.2-2.3 1.2-2 0-2.9-1.6-2.9-3.4 0-1.9.8-3.4 2.9-3.4.8 0 1.8.5 2.2 1.3v-1.1zm-2.2.5c-1.3 0-2.2.9-2.2 2.5-.1 1.6.7 2.9 2.2 2.9 1.4 0 2.2-1.2 2.2-2.7 0-1.5-.8-2.7-2.2-2.7z"/>
        <path d="M132.4 101.8c.3 0 .7-.1 1-.2.2-.1.3-.4.3-.7 0-.8-.4-1.3-1.6-1.3-1 0-1.7.3-1.9 1.5h-.8c.1-1.5 1.2-2.1 2.6-2.1 1.3 0 2.3.5 2.3 2v3.5c0 .6.1.7.8.5v.6c-.1 0-.4.1-.6.1h-.3c-.5-.1-.6-.5-.6-1-.6.7-1.5 1.1-2.4 1.1-1.1 0-2.2-.6-2.2-1.9 0-1.1.7-1.7 2.3-1.9l1.1-.2zm1.3.4c-.6.3-1.3.3-1.9.4-1.1.1-1.8.5-1.8 1.4 0 .8.7 1.2 1.4 1.2 1.2 0 2.4-.6 2.4-1.9v-1.1z"/>
        <path d="M138.4 105.6c-.2 0-.5.1-.9.1-.7 0-1.1-.3-1.1-1.3v-4.7h-.9v-.6h.9v-1.8h.7v1.8h1.2v.6h-1.2v4.4c0 .6 0 .9.6.9.2 0 .4 0 .6-.1v.7z"/>
        <path d="M139.3 105.6v-9h.7v3.4c.6-.6 1.2-1.1 2.1-1.1.8 0 1.5.2 2 .9.3.5.3.9.3 1.5v4.2h-.7v-4.2c0-1.2-.5-1.7-1.7-1.7-.9 0-1.6.6-1.8 1.3-.1.4-.2.8-.2 1.2v3.5h-.7z"/>
        <path d="M146.4 102.5c0 1.4.7 2.5 2.2 2.5 1 0 1.7-.5 2-1.5h.8c-.4 1.2-1.1 2.2-2.8 2.2-2.1 0-3-1.5-3-3.4s1.1-3.4 3-3.4c1.8 0 2.8 1.3 2.8 3.6h-5zm4.3-.6c0-1.3-.7-2.3-2-2.3s-2 1.1-2.2 2.3h4.2z"/>
        <path d="M152.8 105.6v-9h.7v9h-.7z"/>
        <path d="M155.6 102.5c0 1.4.7 2.5 2.2 2.5 1 0 1.7-.5 2-1.5h.8c-.4 1.2-1.1 2.2-2.8 2.2-2.1 0-3-1.5-3-3.4s1.1-3.4 3-3.4c1.8 0 2.8 1.3 2.8 3.6h-5zm4.2-.6c0-1.3-.7-2.3-2-2.3s-2 1.1-2.2 2.3h4.2z"/>
        <path d="M164.1 105.6c-.2 0-.5.1-.9.1-.7 0-1.1-.3-1.1-1.3v-4.7h-.9v-.6h.9v-1.8h.7v1.8h1.2v.6h-1.2v4.4c0 .6 0 .9.6.9.2 0 .4 0 .6-.1v.7z"/>
        <path d="M165.5 102.5c0 1.4.7 2.5 2.2 2.5 1 0 1.7-.5 2-1.5h.8c-.4 1.2-1.1 2.2-2.8 2.2-2.1 0-3-1.5-3-3.4s1.1-3.4 3-3.4c1.8 0 2.8 1.3 2.8 3.6h-5zm4.2-.6c0-1.3-.7-2.3-2-2.3s-2 1.1-2.2 2.3h4.2z"/>
        <path d="M172.1 103.6c.2 1.1.8 1.5 1.9 1.5 1.1 0 1.6-.6 1.6-1.2 0-1.9-4.1-.5-4.1-3.1 0-1.1.8-1.8 2.3-1.8 1.4 0 2.3.6 2.5 2h-.8c-.1-1-.8-1.4-1.7-1.4-.9 0-1.5.4-1.5 1.1 0 1.8 4.1.7 4.1 3.1 0 1.2-1.1 1.9-2.6 1.9s-2.4-1-2.4-2.2h.7z"/>
        <path d="M17.3 120.5c-.2 0-.5.1-.9.1-.7 0-1.1-.3-1.1-1.3v-4.7h-.9v-.6h.9v-1.8h.7v1.8h1.2v.6H16v4.4c0 .6 0 .9.6.9.2 0 .4 0 .6-.1v.7z"/>
        <path d="M18.5 120.5v-9h.7v3.4c.6-.6 1.2-1.1 2.1-1.1.8 0 1.5.2 2 .9.3.5.3.9.3 1.5v4.2h-.7v-4.2c0-1.2-.5-1.7-1.7-1.7-.9 0-1.6.6-1.8 1.3-.1.4-.2.8-.2 1.2v3.5h-.7z"/>
        <path d="M28.4 116.7c.3 0 .7-.1 1-.2.2-.1.3-.4.3-.7 0-.8-.4-1.3-1.6-1.3-1 0-1.7.3-1.9 1.5h-.8c.1-1.5 1.2-2.1 2.6-2.1 1.3 0 2.3.5 2.3 2v3.5c0 .6.1.7.8.5v.6c-.1 0-.4.1-.6.1h-.3c-.5-.1-.6-.5-.6-1-.6.7-1.5 1.1-2.4 1.1-1.1 0-2.2-.6-2.2-1.9 0-1.1.7-1.7 2.3-1.9l1.1-.2zm1.2.4c-.6.3-1.3.3-1.9.4-1.1.1-1.8.5-1.8 1.4 0 .8.7 1.2 1.4 1.2 1.2 0 2.4-.6 2.4-1.9v-1.1z"/>
        <path d="M34.6 120.5c-.2 0-.5.1-.9.1-.7 0-1.1-.3-1.1-1.3v-4.7h-.9v-.6h.9v-1.8h.7v1.8h1.2v.6h-1.2v4.4c0 .6 0 .9.6.9.2 0 .4 0 .6-.1v.7z"/>
        <path d="M39.3 120.5v-9h.7v3.4c.6-.6 1.2-1.1 2.1-1.1.8 0 1.5.2 2 .9.3.5.3.9.3 1.5v4.2h-.7v-4.2c0-1.2-.5-1.7-1.7-1.7-.9 0-1.6.6-1.8 1.3-.1.4-.2.8-.2 1.2v3.5h-.7z"/>
        <path d="M49.1 116.7c.3 0 .7-.1 1-.2.2-.1.3-.4.3-.7 0-.8-.4-1.3-1.6-1.3-1 0-1.7.3-1.9 1.5h-.8c.1-1.5 1.2-2.1 2.6-2.1 1.3 0 2.3.5 2.3 2v3.5c0 .6.1.7.8.5v.6c-.1 0-.4.1-.6.1h-.3c-.5-.1-.6-.5-.6-1-.6.7-1.5 1.1-2.4 1.1-1.1 0-2.2-.6-2.2-1.9 0-1.1.7-1.7 2.3-1.9l1.1-.2zm1.3.4c-.6.3-1.3.3-1.9.4-1.1.1-1.8.5-1.8 1.4 0 .8.7 1.2 1.4 1.2 1.2 0 2.4-.6 2.4-1.9v-1.1z"/>
        <path d="M52.4 114.1h.8l2.1 5.5 2.1-5.5h.8l-2.5 6.4h-.8l-2.5-6.4z"/>
        <path d="M59.8 117.5c0 1.4.7 2.5 2.2 2.5 1 0 1.7-.5 2-1.5h.8c-.4 1.2-1.1 2.2-2.8 2.2-2.1 0-3-1.5-3-3.4s1.1-3.4 3-3.4c1.8 0 2.8 1.3 2.8 3.6h-5zm4.2-.7c0-1.3-.7-2.3-2-2.3s-2 1.1-2.2 2.3H64z"/>
        <path d="M70.5 120.5h-.7v-9h.7v3.5c.5-.8 1.4-1.2 2.3-1.2 2 0 2.9 1.6 2.9 3.4 0 1.9-.8 3.4-2.9 3.4-.8 0-1.8-.5-2.2-1.3v1.2zm2.2-.5c1.3 0 2.2-.9 2.2-2.5.1-1.6-.7-2.9-2.2-2.9-1.4 0-2.2 1.2-2.2 2.7 0 1.5.8 2.7 2.2 2.7z"/>
        <path d="M77.7 117.5c0 1.4.7 2.5 2.2 2.5 1 0 1.7-.5 2-1.5h.8c-.4 1.2-1.1 2.2-2.8 2.2-2.1 0-3-1.5-3-3.4s1.1-3.4 3-3.4c1.8 0 2.8 1.3 2.8 3.6h-5zm4.2-.7c0-1.3-.7-2.3-2-2.3s-2 1.1-2.2 2.3h4.2z"/>
        <path d="M84.7 117.5c0 1.4.7 2.5 2.2 2.5 1 0 1.7-.5 2-1.5h.8c-.4 1.2-1.1 2.2-2.8 2.2-2.1 0-3-1.5-3-3.4s1.1-3.4 3-3.4c1.8 0 2.8 1.3 2.8 3.6h-5zm4.2-.7c0-1.3-.7-2.3-2-2.3s-2 1.1-2.2 2.3h4.2z"/>
        <path d="M91.9 120.5h-.7v-6.4h.7v.9c.6-.6 1.2-1.1 2.1-1.1.8 0 1.5.2 2 .9.3.5.3.9.3 1.5v4.2h-.7v-4.2c0-1.2-.5-1.7-1.7-1.7-.9 0-1.6.6-1.8 1.3-.1.4-.2.8-.2 1.2v3.4z"/>
        <path d="M101.6 112.7v-1.1h.8v1.1h-.8zm0 7.8v-6.4h.7v6.4h-.7z"/>
        <path d="M105 120.5h-.7v-6.4h.7v.9c.6-.6 1.2-1.1 2.1-1.1.8 0 1.5.2 2 .9.3.5.3.9.3 1.5v4.2h-.7v-4.2c0-1.2-.5-1.7-1.7-1.7-.9 0-1.6.6-1.8 1.3-.1.4-.2.8-.2 1.2v3.4z"/>
        <path d="M112.1 114.1v7.3c0 1.1-.1 1.7-1.3 1.7h-.5v-.7c.9.1 1-.2 1-.9v-7.4h.8zm0-1.4h-.8v-1.1h.8v1.1z"/>
        <path d="M118.3 114.1h.7v6.4h-.7v-.9c-.4.4-.9 1.1-2.1 1.1-1.7 0-2.3-1-2.3-2.4v-4.2h.7v4.2c0 1.1.5 1.7 1.7 1.7s2-1 2-2.4v-3.5z"/>
        <path d="M121.6 120.5h-.7v-6.4h.7v1.2c.4-1 1-1.4 2.1-1.4v.8c-1.7 0-2.1 1.2-2.1 2.6v3.2z"/>
        <path d="M125.2 117.5c0 1.4.7 2.5 2.2 2.5 1 0 1.7-.5 2-1.5h.8c-.4 1.2-1.1 2.2-2.8 2.2-2.1 0-3-1.5-3-3.4s1.1-3.4 3-3.4c1.8 0 2.8 1.3 2.8 3.6h-5zm4.2-.7c0-1.3-.7-2.3-2-2.3s-2 1.1-2.2 2.3h4.2z"/>
        <path d="M136.6 111.5h.7v9h-.7v-1.1c-.4.8-1.4 1.3-2.2 1.3-2.1 0-2.9-1.5-2.9-3.4 0-1.8.9-3.4 2.9-3.4.9 0 1.8.4 2.3 1.2v-3.6zm-2.1 3.1c-1.5 0-2.3 1.3-2.2 2.9 0 1.6.9 2.5 2.2 2.5 1.4 0 2.2-1.2 2.2-2.7-.1-1.5-.9-2.7-2.2-2.7z"/>
        <path d="M148.2 119.5l1.7-5.4h.8l-2.1 6.4h-.8l-1.4-5.4-1.4 5.4h-1l-2-6.4h.7l1.7 5.5 1.5-5.5h.8l1.5 5.4z"/>
        <path d="M151.7 120.5v-9h.7v3.4c.6-.6 1.2-1.1 2.1-1.1.8 0 1.5.2 2 .9.3.5.3.9.3 1.5v4.2h-.7v-4.2c0-1.2-.5-1.7-1.7-1.7-.9 0-1.6.6-1.8 1.3-.1.4-.2.8-.2 1.2v3.5h-.7z"/>
        <path d="M158.7 112.7v-1.1h.8v1.1h-.8zm0 7.8v-6.4h.7v6.4h-.7z"/>
        <path d="M161.5 120.5v-9h.7v9h-.7z"/>
        <path d="M164.6 117.5c0 1.4.7 2.5 2.2 2.5 1 0 1.7-.5 2-1.5h.8c-.4 1.2-1.1 2.2-2.8 2.2-2.1 0-3-1.5-3-3.4s1.1-3.4 3-3.4c1.8 0 2.8 1.3 2.8 3.6h-5zm4.2-.7c0-1.3-.7-2.3-2-2.3s-2 1.1-2.2 2.3h4.2z"/>
        <path d="M15.9 138h-.7v-9h.7v1.1c.4-.8 1.4-1.3 2.2-1.3 2.1 0 2.9 1.5 2.9 3.4 0 1.8-.9 3.4-2.9 3.4-.9 0-1.8-.4-2.3-1.2v3.6zm2.2-3.1c1.5 0 2.3-1.3 2.2-2.9 0-1.6-.9-2.5-2.2-2.5-1.4 0-2.2 1.2-2.2 2.7 0 1.5.8 2.7 2.2 2.7z"/>
        <path d="M22.5 135.4v-9h.7v9h-.7z"/>
        <path d="M27.9 131.7c.3 0 .7-.1 1-.2.2-.1.3-.4.3-.7 0-.8-.4-1.3-1.6-1.3-1 0-1.7.3-1.9 1.5h-.8c.1-1.5 1.2-2.1 2.6-2.1 1.3 0 2.3.5 2.3 2v3.5c0 .6.1.7.8.5v.6c-.1 0-.4.1-.6.1h-.3c-.5-.1-.6-.5-.6-1-.6.7-1.5 1.1-2.4 1.1-1.1 0-2.2-.6-2.2-1.9 0-1.1.7-1.7 2.3-1.9l1.1-.2zm1.2.3c-.6.3-1.3.3-1.9.4-1.1.1-1.8.5-1.8 1.4 0 .8.7 1.2 1.4 1.2 1.2 0 2.4-.6 2.4-1.9V132z"/>
        <path d="M31.5 137.2c.2 0 .4.1.6.1.8 0 1-1.2 1.3-1.8l-2.5-6.5h.8l2.1 5.5 2.1-5.5h.8l-2.4 6.4c-.6 1.6-1 2.6-2 2.6-.3 0-.5 0-.7-.1v-.7z"/>
        <path d="M37.6 127.6v-1.1h.8v1.1h-.8zm.1 7.8V129h.7v6.4h-.7z"/>
        <path d="M40.8 135.4h-.7V129h.7v.9c.6-.6 1.2-1.1 2.1-1.1.8 0 1.5.2 2 .9.3.5.3.9.3 1.5v4.2h-.7v-4.2c0-1.2-.5-1.7-1.7-1.7-.9 0-1.6.6-1.8 1.3-.1.4-.2.8-.2 1.2v3.4z"/>
        <path d="M51.7 129h.7v5.8c0 1.7-.6 3.3-3 3.3-1.9 0-2.7-1.1-2.7-1.9h.8c.2 1 1 1.2 1.9 1.2 2 0 2.3-1.5 2.3-3-.5.8-1.4 1.2-2.3 1.2-2 0-2.9-1.6-2.9-3.4 0-1.9.8-3.4 2.9-3.4.8 0 1.8.5 2.2 1.3V129zm-2.2.5c-1.3 0-2.2.9-2.2 2.5-.1 1.6.7 2.9 2.2 2.9 1.4 0 2.2-1.2 2.2-2.7 0-1.5-.8-2.7-2.2-2.7z"/>
        <path d="M59.6 135.4c-.2 0-.5.1-.9.1-.7 0-1.1-.3-1.1-1.3v-4.7h-.9v-.5h.9v-1.8h.7v1.8h1.2v.6h-1.2v4.4c0 .6 0 .9.6.9.2 0 .4 0 .6-.1v.6z"/>
        <path d="M60.5 135.4v-9h.7v3.4c.6-.6 1.2-1.1 2.1-1.1.8 0 1.5.2 2 .9.3.5.3.9.3 1.5v4.2h-.7v-4.2c0-1.2-.5-1.7-1.7-1.7-.9 0-1.6.6-1.8 1.3-.1.4-.2.8-.2 1.2v3.5h-.7z"/>
        <path d="M67.6 132.4c0 1.4.7 2.5 2.2 2.5 1 0 1.7-.5 2-1.5h.8c-.4 1.2-1.1 2.2-2.8 2.2-2.1 0-3-1.5-3-3.4s1.1-3.4 3-3.4c1.8 0 2.8 1.3 2.8 3.6h-5zm4.2-.6c0-1.3-.7-2.3-2-2.3s-2 1.1-2.2 2.3h4.2z"/>
        <path d="M73.9 127.6v-1.1h.8v1.1h-.8zm0 7.8V129h.7v6.4h-.7z"/>
        <path d="M77.1 135.4h-.7V129h.7v1.2c.4-1 1-1.4 2.1-1.4v.8c-1.7 0-2.1 1.2-2.1 2.6v3.2z"/>
        <path d="M84.2 135.4h-.7V129h.7v1.2c.4-1 1-1.4 2.1-1.4v.8c-1.7 0-2.1 1.2-2.1 2.6v3.2z"/>
        <path d="M87.6 132.4c0 1.4.7 2.5 2.2 2.5 1 0 1.7-.5 2-1.5h.8c-.4 1.2-1.1 2.2-2.8 2.2-2.1 0-3-1.5-3-3.4s1.1-3.4 3-3.4c1.8 0 2.8 1.3 2.8 3.6h-5zm4.2-.6c0-1.3-.7-2.3-2-2.3s-2 1.1-2.2 2.3h4.2z"/>
        <path d="M94.2 133.4c.2 1.1.8 1.5 1.9 1.5 1.1 0 1.6-.6 1.6-1.2 0-1.9-4.1-.5-4.1-3.1 0-1.1.8-1.8 2.3-1.8 1.4 0 2.3.6 2.5 2h-.8c-.1-1-.8-1.4-1.7-1.4-.9 0-1.5.4-1.5 1.1 0 1.8 4.1.7 4.1 3.1 0 1.2-1.1 1.9-2.6 1.9s-2.4-1-2.4-2.2h.7z"/>
        <path d="M100.6 138h-.7v-9h.7v1.1c.4-.8 1.4-1.3 2.2-1.3 2.1 0 2.9 1.5 2.9 3.4 0 1.8-.9 3.4-2.9 3.4-.9 0-1.8-.4-2.3-1.2v3.6zm2.2-3.1c1.5 0 2.3-1.3 2.2-2.9 0-1.6-.9-2.5-2.2-2.5-1.4 0-2.2 1.2-2.2 2.7 0 1.5.8 2.7 2.2 2.7z"/>
        <path d="M107.6 132.4c0 1.4.7 2.5 2.2 2.5 1 0 1.7-.5 2-1.5h.8c-.4 1.2-1.1 2.2-2.8 2.2-2.1 0-3-1.5-3-3.4s1.1-3.4 3-3.4c1.8 0 2.8 1.3 2.8 3.6h-5zm4.2-.6c0-1.3-.7-2.3-2-2.3s-2 1.1-2.2 2.3h4.2z"/>
        <path d="M118.3 131c-.3-1-.9-1.5-1.9-1.5-1.5 0-2.2 1.4-2.2 2.7 0 1.4.6 2.7 2.2 2.7 1.1 0 1.8-.7 2-1.7h.8c-.3 1.4-1.2 2.4-2.8 2.4-2.1 0-3-1.5-3-3.4 0-1.8 1-3.4 3-3.4 1.5 0 2.4.7 2.7 2.2h-.8z"/>
        <path d="M122.7 135.4c-.2 0-.5.1-.9.1-.7 0-1.1-.3-1.1-1.3v-4.7h-.9v-.5h.9v-1.8h.7v1.8h1.2v.6h-1.2v4.4c0 .6 0 .9.6.9.2 0 .4 0 .6-.1v.6z"/>
        <path d="M123.7 127.6v-1.1h.8v1.1h-.8zm.1 7.8V129h.7v6.4h-.7z"/>
        <path d="M125.5 129h.8l2.1 5.5 2.1-5.5h.8l-2.5 6.4h-.8l-2.5-6.4z"/>
        <path d="M132.6 132.4c0 1.4.7 2.5 2.2 2.5 1 0 1.7-.5 2-1.5h.8c-.4 1.2-1.1 2.2-2.8 2.2-2.1 0-3-1.5-3-3.4s1.1-3.4 3-3.4c1.8 0 2.8 1.3 2.8 3.6h-5zm4.2-.6c0-1.3-.7-2.3-2-2.3s-2 1.1-2.2 2.3h4.2z"/>
        <path d="M142.4 133.4c.2 1.1.8 1.5 1.9 1.5 1.1 0 1.6-.6 1.6-1.2 0-1.9-4.1-.5-4.1-3.1 0-1.1.8-1.8 2.3-1.8 1.4 0 2.3.6 2.5 2h-.8c-.1-1-.8-1.4-1.7-1.4-.9 0-1.5.4-1.5 1.1 0 1.8 4.1.7 4.1 3.1 0 1.2-1.1 1.9-2.6 1.9s-2.4-1-2.4-2.2h.7z"/>
        <path d="M148.8 138h-.7v-9h.7v1.1c.4-.8 1.4-1.3 2.2-1.3 2.1 0 2.9 1.5 2.9 3.4 0 1.8-.9 3.4-2.9 3.4-.9 0-1.8-.4-2.3-1.2v3.6zm2.2-3.1c1.5 0 2.3-1.3 2.2-2.9 0-1.6-.9-2.5-2.2-2.5-1.4 0-2.2 1.2-2.2 2.7 0 1.5.8 2.7 2.2 2.7z"/>
        <path d="M154.9 132.2c0-1.9 1-3.4 3-3.4s3 1.5 3 3.4c0 2-1.2 3.4-3 3.4-1.7 0-3-1.1-3-3.4zm3-2.7c-1.6 0-2.2 1.3-2.2 2.7 0 1.6.8 2.7 2.2 2.7 1.6 0 2.2-1.3 2.2-2.7 0-1.5-.6-2.7-2.2-2.7z"/>
        <path d="M162.8 135.4h-.8V129h.7v1.2c.4-1 1-1.4 2.1-1.4v.8c-1.7 0-2.1 1.2-2.1 2.6v3.2z"/>
        <path d="M168.4 135.4c-.2 0-.5.1-.9.1-.7 0-1.1-.3-1.1-1.3v-4.7h-.9v-.5h.9v-1.8h.7v1.8h1.2v.6h-1.2v4.4c0 .6 0 .9.6.9.2 0 .4 0 .6-.1v.6z"/>
        <path d="M169.7 133.4c.2 1.1.8 1.5 1.9 1.5 1.1 0 1.6-.6 1.6-1.2 0-1.9-4.1-.5-4.1-3.1 0-1.1.8-1.8 2.3-1.8 1.4 0 2.3.6 2.5 2h-.8c-.1-1-.8-1.4-1.7-1.4-.9 0-1.5.4-1.5 1.1 0 1.8 4.1.7 4.1 3.1 0 1.2-1.1 1.9-2.6 1.9s-2.4-1-2.4-2.2h.7z"/>
      </g>
    </g>
    <path fill="#F05623" d="M374 99.3c0 4.8-.2 9.6-.9 14.2l-6.9-1-5.6-.8-10.4-1.5-9.6-1.4-65.9-9.6V0C329.8.2 374 44.5 374 99.3z"/>
    <path fill="#CC2036" d="M350.2 110.2c-5 34.6-33.3 61.7-68.5 64.8l-.8-9.4-5.7-66.4 65.6 9.6 9.4 1.4z"/>
    <path fill="#4167B0" d="M275.3 99.2l-66.4 8.4-9.4 1.2-10.5 1.3c-.5-3.5-.7-7.2-.7-10.8 0-25.7 11.2-48.7 28.9-64.6l7.2 8 6.2 6.9 44.7 49.6z"/>
    <path fill="#E63025" d="M274.8 33.2v66l-44.3-49.4C242.2 39.3 258 33.2 275 33.2h-.2z"/>
    <path fill="#F05623" d="M283.7 191.6h-.5c-2.7.2-5.4.4-8.2.4-46.7 0-86.3-34.9-92-81.2l-.1-.5 92.9-11.7v.5l7.9 92.5z"/>
    <g fill="#FFF">
      <g>
        <path d="M289.8 118.5v1.8h-1.5v-1.1l-.9-.9h-2.9l-.9.9v2.2l.7.6h4.3l1.4 1.4v4l-1.9 1.9h-4.2l-1.9-1.9v-2.3h1.5v1.7l1 1h2.9l1-1v-2.6l-.6-.7h-4.3l-1.5-1.4v-3.6l1.8-1.8h4.3l1.7 1.8z"/>
        <path d="M299.7 127.3l-2 2h-4.1l-2-2v-8.6l1.9-1.9h4.3l1.9 1.9v8.6zm-5.6-9l-1 1v7.4l1.1 1.1h2.9l1.1-1.1v-7.4l-1-1h-3.1z"/>
        <path d="M309.4 120.9h-1.6v-1.7l-.9-.9H304l-1.1 1.1v7.1l1.2 1.2h2.8l1-1v-2h1.6v2.6l-1.9 1.9h-4l-2.2-2.2v-8.3l2.1-2.1h4.2l1.8 1.8v2.5z"/>
        <path d="M319 120.9h-1.6v-1.7l-.9-.9h-2.9l-1.1 1.1v7.1l1.2 1.2h2.8l1-1v-2h1.6v2.6l-1.9 1.9h-4L311 127v-8.3l2.1-2.1h4.2l1.8 1.8v2.5z"/>
        <path d="M329.5 120h-1.3v-1.7h-4.7v3.8h3.2v-.8h1.1v2.9h-1.1v-.8h-3.2v4.5h4.7v-1.7h1.3v3.2h-8.8v-1.5h1.3v-9.5h-1.3v-1.6h8.8v3.2z"/>
        <path d="M340 118.5v3.6l-1.7 1.7h-.9l2 4h1.1v1.5h-3.9v-1.5h1.1l-2-4h-1.8v4h1.1v1.5h-3.9v-1.5h1.3v-9.5h-1.3v-1.6h7.2l1.7 1.8zm-6.1-.2v4.3h3.7l.9-.9v-2.5l-.9-.9h-3.7z"/>
      </g>
      <g>
        <path d="M293.8 77.8h-1.3v-1.7h-4.7v4.1h3.7v-.8h1.1v2.9h-1.1v-.8h-3.7v4.2h1.4v1.5H285v-1.5h1.3v-9.5H285v-1.6h8.8v3.2z"/>
        <path d="M303.3 85l-2 2h-4.1l-2-2v-8.6l1.9-1.9h4.3l1.9 1.9V85zm-5.6-8.9l-1 1v7.4l1.1 1.1h2.9l1.1-1.1v-7.4l-1-1h-3.1z"/>
        <path d="M313.2 85l-2 2H307l-2-2v-8.6l1.9-1.9h4.3l1.9 1.9V85zm-5.7-8.9l-1 1v7.4l1.1 1.1h2.9l1.1-1.1v-7.4l-1-1h-3.1z"/>
        <path d="M323.5 78.2h-1.3V76h-2.5v9.5h1.5V87h-4.5v-1.5h1.5V76h-2.5v2.2h-1.3v-3.7h9.1v3.7z"/>
        <path d="M333.4 79.2l-1.1 1.2 1.2 1.2v3.6l-1.9 1.9h-7v-1.5h1.3v-9.5h-1.3v-1.5h7l1.8 1.8v2.8zm-5.9-3.1v3.7h3.5l.9-.9V77l-.9-.9h-3.5zm0 5.1v4.4h3.5l1-1V82l-.9-.9h-3.6z"/>
        <path d="M343.1 85.5h1.4V87h-4.2v-1.5h1.1l-.6-2.3H337l-.6 2.3h1.1V87h-3.8v-1.5h1.4l2.6-9.5h-1.4v-1.5h4l2.8 11zm-5.8-3.2h3.3l-1.7-6.1-1.6 6.1z"/>
        <path d="M349.9 76.1h-1.4v9.5h4.6v-2h1.3v3.5h-8.8v-1.5h1.3v-9.5h-1.3v-1.5h4.2v1.5z"/>
        <path d="M359.8 76.1h-1.4v9.5h4.6v-2h1.3v3.5h-8.8v-1.5h1.3v-9.5h-1.3v-1.5h4.2v1.5z"/>
      </g>
      <g>
        <path d="M234.7 54.7V56h-1.1v-.8l-.7-.7h-2.2l-.7.7v1.7l.5.5h3.2l1.1 1v2.9l-1.4 1.4h-3.1l-1.4-1.4v-1.7h1.1v1.2l.7.7h2.2l.7-.7V59l-.5-.5h-3.2l-1.1-1.1v-2.7l1.3-1.3h3.2l1.4 1.3z"/>
        <path d="M242 61.2l-1.5 1.5h-3.1l-1.5-1.5v-6.4l1.4-1.4h3.2l1.4 1.4v6.4zm-4.2-6.6l-.8.8v5.5l.8.8h2.2l.8-.8v-5.5l-.8-.8h-2.2z"/>
        <path d="M249.8 55.9h-1v-1.3h-3.5v3h2.7V57h.8v2.1h-.8v-.6h-2.7v3.1h1.1v1.1h-3.2v-1.1h1v-7h-1v-1.2h6.6v2.5z"/>
        <path d="M257.2 56.2h-1v-1.6h-1.8v7.1h1.1v1.1h-3.4v-1.1h1.1v-7.1h-1.8v1.6h-1v-2.7h6.8v2.7z"/>
        <path d="M264.6 56.9l-.9.9.9.9v2.7l-1.4 1.4H258v-1.1h1v-7h-1v-1.1h5.2l1.3 1.3v2zm-4.4-2.3v2.8h2.6l.7-.7v-1.4l-.7-.7h-2.6zm0 3.8v3.2h2.6l.7-.7V59l-.7-.7h-2.6z"/>
        <path d="M271.8 61.6h1.1v1.1h-3.1v-1.1h.8l-.5-1.7h-2.8l-.5 1.7h.8v1.1h-2.8v-1.1h1l1.9-7h-1.1v-1.1h3l2.2 8.1zm-4.3-2.4h2.5l-1.2-4.5-1.3 4.5z"/>
        <path d="M276.8 54.6h-1v7h3.4v-1.5h1v2.6h-6.5v-1.1h1v-7h-1v-1.1h3.1v1.1z"/>
        <path d="M284.2 54.6h-1v7h3.4v-1.5h1v2.6H281v-1.1h1v-7h-1v-1.1h3.1v1.1z"/>
      </g>
      <g>
        <path d="M196.9 92.1l-.9.9 1 1v2.8l-1.5 1.5H190V97h1v-7.4h-1v-1.2h5.5l1.4 1.4v2.3zm-4.6-2.4v2.9h2.7l.7-.7v-1.5l-.7-.7h-2.7zm0 3.9V97h2.7l.7-.8v-2l-.7-.7h-2.7z"/>
        <path d="M204.4 97h1.1v1.2h-3.2V97h.9l-.5-1.8h-3l-.5 1.8h.8v1.2h-3V97h1.1l2-7.4H199v-1.2h3.1l2.3 8.6zm-4.5-2.5h2.6l-1.3-4.8-1.3 4.8z"/>
        <path d="M212.1 89.8v1.4h-1.2v-.9l-.7-.7h-2.3l-.7.7V92l.5.5h3.4l1.1 1.1v3.1l-1.5 1.5h-3.3l-1.5-1.5V95h1.2v1.3l.8.8h2.3l.7-.8v-2l-.5-.5H207l-1.1-1.1v-2.8l1.4-1.4h3.4l1.4 1.3z"/>
        <path d="M221.1 89.7H220l-2.1 2.4 2.3 5h.9v1.2H218V97h.9l-1.9-4.1-1.3 1.5V97h.9v1.2h-3.2V97h1v-7.4h-1v-1.2h3.2v1.2h-.9v3.6l3.1-3.6h-.8v-1.2h3.2v1.3z"/>
        <path d="M229.1 91h-1v-1.3h-3.6v3h2.5V92h.9v2.2h-.9v-.7h-2.5V97h3.7v-1.3h1v2.5h-6.9V97h1v-7.4h-1v-1.2h6.9V91z"/>
        <path d="M237.1 91.3h-1v-1.7h-1.9V97h1.2v1.2h-3.5V97h1.2v-7.4H231v1.7h-1v-2.9h7.1v2.9z"/>
        <path d="M244.9 92.1l-.9.9 1 1v2.8l-1.5 1.5H238V97h1v-7.4h-1v-1.2h5.5l1.4 1.4v2.3zm-4.6-2.4v2.9h2.7l.7-.7v-1.5l-.7-.7h-2.7zm0 3.9V97h2.7l.7-.8v-2l-.7-.7h-2.7z"/>
        <path d="M252.4 97h1.1v1.2h-3.2V97h.9l-.5-1.8h-3l-.5 1.8h.8v1.2h-3V97h1.1l2-7.4H247v-1.2h3.1l2.3 8.6zm-4.5-2.5h2.6l-1.3-4.8-1.3 4.8z"/>
        <path d="M257.7 89.7h-1.1V97h3.6v-1.6h1v2.8h-6.8V97h1v-7.4h-1v-1.2h3.3v1.3z"/>
        <path d="M265.4 89.7h-1.1V97h3.6v-1.6h1v2.8h-6.8V97h1v-7.4h-1v-1.2h3.3v1.3z"/>
      </g>
      <g>
        <path d="M204.6 134.6l-1.1 1.2 1.2 1.2v3.6l-1.9 1.9h-7V141h1.3v-9.5h-1.3V130h7l1.8 1.8v2.8zm-5.9-3.2v3.7h3.5l.9-.9v-1.9l-.9-.9h-3.5zm0 5.1v4.4h3.5l1-1v-2.5l-.9-.9h-3.6z"/>
        <path d="M214.3 140.9h1.4v1.5h-4.2v-1.5h1.1l-.6-2.3h-3.8l-.6 2.3h1.1v1.5h-3.8v-1.5h1.4l2.6-9.5h-1.4v-1.5h4l2.8 11zm-5.8-3.3h3.3l-1.7-6.1-1.6 6.1z"/>
        <path d="M224.1 131.6v1.8h-1.5v-1.1l-.9-.9h-2.9l-.9.9v2.2l.7.6h4.3l1.4 1.4v4l-1.9 1.9h-4.2l-1.9-1.9v-2.3h1.5v1.7l1 1h2.9l1-1v-2.6l-.6-.7h-4.3l-1.5-1.4v-3.6l1.8-1.8h4.3l1.7 1.8z"/>
        <path d="M234.6 133.1h-1.3v-1.7h-4.7v3.8h3.2v-.8h1.1v2.9h-1.1v-.8h-3.2v4.5h4.7v-1.7h1.3v3.2h-8.8V141h1.3v-9.5h-1.3v-1.6h8.8v3.2z"/>
        <path d="M245 134.6l-1.1 1.2 1.2 1.2v3.6l-1.9 1.9h-7V141h1.3v-9.5h-1.3V130h7l1.8 1.8v2.8zm-5.9-3.2v3.7h3.5l.9-.9v-1.9l-.9-.9h-3.5zm0 5.1v4.4h3.5l1-1v-2.5l-.9-.9h-3.6z"/>
        <path d="M254.7 140.9h1.4v1.5H252v-1.5h1.1l-.6-2.3h-3.8l-.6 2.3h1.1v1.5h-3.8v-1.5h1.4l2.6-9.5H248v-1.5h4l2.7 11zm-5.8-3.3h3.3l-1.7-6.1-1.6 6.1z"/>
        <path d="M261.5 131.4h-1.4v9.5h4.6v-2h1.3v3.5h-8.8v-1.5h1.3v-9.5h-1.3v-1.5h4.2v1.5z"/>
        <path d="M271.4 131.4H270v9.5h4.6v-2h1.3v3.5h-8.8v-1.5h1.3v-9.5h-1.3v-1.5h4.2v1.5z"/>
      </g>
    </g>
  </g>
</svg>
