<svg id="Layer_1" xmlns="http://www.w3.org/2000/svg" width="95" height="97.9" viewBox="0 0 95 97.9"><style>.st0{fill:#4167B0;} .st1{fill:#FFFFFF;} .st2{fill:#F05623;}</style><path class="st0" d="M47.5 0C21.3 0 0 22 0 49s21.3 49 47.5 49S95 76 95 49 73.7 0 47.5 0zm0 94.9C23 94.9 3 74.3 3 49 3 23.6 23 3 47.5 3S92 23.6 92 49c0 25.3-20 45.9-44.5 45.9z"/><path class="st1" d="M92 49c0 25.3-20 46-44.5 46C23 94.9 3 74.3 3 49 3 23.6 23 3 47.5 3S92 23.6 92 49z"/><path class="st0" d="M53.9 14.2H41c-4.1 0-7.8 3.3-7.8 7.5v15.5h28V21.7c-.1-4.1-3.2-7.5-7.3-7.5zm-18.8 21V21.7c0-3 2.8-5.5 5.8-5.5h12.9c3 0 5.3 2.5 5.3 5.5v13.5h-24z"/><path class="st2" d="M59.1 21.7v13.5h-24V21.7c0-3 2.8-5.5 5.8-5.5h12.9c3.1 0 5.3 2.5 5.3 5.5z"/><path class="st0" d="M33.1 61.2v15.6c0 4.1 3.7 7.4 7.8 7.4h12.9c4.1 0 7.3-3.2 7.3-7.4V61.2h-28zm26 15.7c0 3-2.3 5.4-5.3 5.4H41c-3 0-5.8-2.3-5.8-5.4V63.2h24v13.7z"/><path class="st2" d="M59.1 63.2v13.6c0 3-2.3 5.4-5.3 5.4H41c-3 0-5.8-2.3-5.8-5.4V63.2h23.9z"/><path class="st0" d="M74.6 35.2H20.2c-4.3 0-8.1 3.7-8.1 8v12.2c0 4.3 3.8 7.9 8.1 7.9h54.4c4.3 0 7.5-3.5 7.5-7.9V43.2c0-4.3-3.1-8-7.5-8zm5.5 20.2c0 3.2-2.3 5.9-5.5 5.9H20.2c-3.2 0-6.1-2.7-6.1-5.9V43.2c0-3.2 2.8-6 6.1-6h54.4c3.2 0 5.5 2.8 5.5 6v12.2z"/><path class="st2" d="M74.6 37.2H20.2c-3.2 0-6.1 2.8-6.1 6v12.2c0 3.2 2.8 5.9 6.1 5.9h54.4c3.2 0 5.5-2.7 5.5-5.9V43.2c0-3.2-2.2-6-5.5-6zM58.1 53.8c0 3.6-2.9 6.5-6.5 6.5h-8c-3.6 0-6.5-2.9-6.5-6.5v-9c0-3.6 2.9-6.5 6.5-6.5h8c3.6 0 6.5 2.9 6.5 6.5v9z"/><path class="st0" d="M51.6 38.2h-8c-3.6 0-6.5 2.9-6.5 6.5v9c0 3.6 2.9 6.5 6.5 6.5h8c3.6 0 6.5-2.9 6.5-6.5v-9c0-3.5-2.9-6.5-6.5-6.5zm4.5 15.3c0 2.5-2 4.7-4.5 4.7h-8.5c-2.5 0-4-2.3-4-4.7v-9.1c0-2.5 1.6-4.2 4-4.2h8.5c2.5 0 4.5 1.7 4.5 4.2v9.1z"/><path class="st2" d="M56.1 44.4v9.1c0 2.5-2 4.7-4.5 4.7h-8.5c-2.5 0-4-2.3-4-4.7v-9.1c0-2.5 1.6-4.2 4-4.2h8.5c2.5 0 4.5 1.8 4.5 4.2z"/></svg>