<svg xmlns="http://www.w3.org/2000/svg" id="Layer_1" width="288" height="108.5" viewBox="-335 226.5 288 108.5">
  <g id="text">
    <g>
      <g fill="#1D2554">
        <path d="M-290.7 296.4c-.3-1-.9-1.5-1.9-1.5-1.5 0-2.2 1.4-2.2 2.7 0 1.4.6 2.7 2.2 2.7 1.1 0 1.8-.7 2-1.7h.8c-.3 1.4-1.2 2.4-2.8 2.4-2.1 0-3-1.5-3-3.4 0-1.8 1-3.4 3-3.4 1.5 0 2.5.7 2.7 2.2h-.8z"/>
        <path d="M-288.3 300.8v-9h.7v3.4c.6-.6 1.2-1.1 2.1-1.1.8 0 1.5.2 2 .9.3.5.3.9.3 1.5v4.2h-.8v-4.2c0-1.2-.5-1.7-1.7-1.7-.9 0-1.6.6-1.8 1.3-.1.4-.2.8-.2 1.2v3.5h-.6z"/>
        <path d="M-281.3 293v-1.1h.8v1.1h-.8zm0 7.8v-6.4h.7v6.4h-.7z"/>
        <path d="M-278.5 300.8v-9h.7v9h-.7z"/>
        <path d="M-270.9 291.9h.7v9h-.7v-1.1c-.4.8-1.4 1.3-2.2 1.3-2.1 0-2.9-1.5-2.9-3.4 0-1.8.9-3.4 2.9-3.4.9 0 1.8.4 2.3 1.2v-3.6h-.1zm-2.2 3c-1.5 0-2.3 1.3-2.2 2.9 0 1.6.9 2.5 2.2 2.5 1.4 0 2.2-1.2 2.2-2.7s-.8-2.7-2.2-2.7z"/>
        <path d="M-267.5 300.8h-.7v-6.4h.7v1.2c.4-1 1-1.4 2.1-1.4v.8c-1.7 0-2.1 1.2-2.1 2.6v3.2z"/>
        <path d="M-263.9 297.8c0 1.4.7 2.5 2.2 2.5 1 0 1.7-.5 2-1.5h.7c-.4 1.2-1.1 2.2-2.8 2.2-2.1 0-3-1.5-3-3.4s1.1-3.4 3-3.4c1.8 0 2.8 1.3 2.8 3.6h-4.9zm4.2-.6c0-1.3-.7-2.3-2-2.3s-2 1.1-2.2 2.3h4.2z"/>
        <path d="M-256.7 300.8h-.7v-6.4h.7v.9c.6-.6 1.2-1.1 2.1-1.1.8 0 1.5.2 2 .9.3.5.3.9.3 1.5v4.2h-.7v-4.2c0-1.2-.5-1.7-1.7-1.7-.9 0-1.6.6-1.8 1.3-.1.4-.2.8-.2 1.2v3.4z"/>
        <path d="M-244.1 297.1c.3 0 .7-.1 1-.2.2-.1.3-.4.3-.7 0-.8-.4-1.3-1.6-1.3-1 0-1.7.3-1.9 1.5h-.8c.1-1.5 1.2-2.1 2.6-2.1 1.3 0 2.3.5 2.3 2v3.5c0 .6.1.7.8.5v.6c-.1 0-.4.1-.6.1h-.3c-.5-.1-.6-.5-.6-1-.6.7-1.5 1.1-2.4 1.1-1.1 0-2.2-.6-2.2-1.9 0-1.1.7-1.7 2.3-1.9l1.1-.2zm1.2.4c-.6.3-1.3.3-1.9.4-1.1.1-1.8.5-1.8 1.4 0 .8.7 1.2 1.4 1.2 1.2 0 2.4-.6 2.4-1.9l-.1-1.1z"/>
        <path d="M-239.4 300.8h-.7v-6.4h.7v.9c.6-.6 1.2-1.1 2.1-1.1.8 0 1.5.2 2 .9.3.5.3.9.3 1.5v4.2h-.7v-4.2c0-1.2-.5-1.7-1.7-1.7-.9 0-1.6.6-1.8 1.3-.1.4-.2.8-.2 1.2v3.4z"/>
        <path d="M-228.3 291.9h.7v9h-.7v-1.1c-.4.8-1.4 1.3-2.2 1.3-2.1 0-2.9-1.5-2.9-3.4 0-1.8.9-3.4 2.9-3.4.9 0 1.8.4 2.3 1.2v-3.6h-.1zm-2.2 3c-1.5 0-2.3 1.3-2.2 2.9 0 1.6.9 2.5 2.2 2.5 1.4 0 2.2-1.2 2.2-2.7s-.8-2.7-2.2-2.7z"/>
        <path d="M-219.2 297.1c.3 0 .7-.1 1-.2.2-.1.3-.4.3-.7 0-.8-.4-1.3-1.6-1.3-1 0-1.7.3-1.9 1.5h-.8c.1-1.5 1.2-2.1 2.6-2.1 1.3 0 2.3.5 2.3 2v3.5c0 .6.1.7.8.5v.6c-.1 0-.4.1-.6.1h-.3c-.5-.1-.6-.5-.6-1-.6.7-1.5 1.1-2.4 1.1-1.1 0-2.2-.6-2.2-1.9 0-1.1.7-1.7 2.3-1.9l1.1-.2zm1.2.4c-.6.3-1.3.3-1.9.4-1.1.1-1.8.5-1.8 1.4 0 .8.7 1.2 1.4 1.2 1.2 0 2.4-.6 2.4-1.9v-1.1h-.1z"/>
        <path d="M-210.3 291.9h.7v9h-.7v-1.1c-.4.8-1.4 1.3-2.2 1.3-2.1 0-2.9-1.5-2.9-3.4 0-1.8.9-3.4 2.9-3.4.9 0 1.8.4 2.3 1.2v-3.6h-.1zm-2.2 3c-1.5 0-2.3 1.3-2.2 2.9 0 1.6.9 2.5 2.2 2.5 1.4 0 2.2-1.2 2.2-2.7s-.8-2.7-2.2-2.7z"/>
        <path d="M-208.1 297.6c0-1.9 1-3.4 3-3.4s3 1.5 3 3.4c0 2-1.2 3.4-3 3.4-1.7 0-3-1.1-3-3.4zm3-2.7c-1.6 0-2.2 1.3-2.2 2.7 0 1.6.8 2.7 2.2 2.7 1.6 0 2.2-1.3 2.2-2.7-.1-1.5-.7-2.7-2.2-2.7z"/>
        <path d="M-200.7 300.8v-9h.7v9h-.7z"/>
        <path d="M-197.6 297.8c0 1.4.7 2.5 2.2 2.5 1 0 1.7-.5 2-1.5h.8c-.4 1.2-1.1 2.2-2.8 2.2-2.1 0-3-1.5-3-3.4s1.1-3.4 3-3.4c1.8 0 2.8 1.3 2.8 3.6h-5zm4.2-.6c0-1.3-.7-2.3-2-2.3s-2 1.1-2.2 2.3h4.2z"/>
        <path d="M-190.7 298.8c.2 1.1.8 1.5 1.9 1.5 1.1 0 1.6-.6 1.6-1.2 0-1.9-4.1-.5-4.1-3.1 0-1.1.8-1.8 2.3-1.8 1.4 0 2.3.6 2.5 2h-.8c-.1-1-.8-1.4-1.7-1.4s-1.5.4-1.5 1.1c0 1.8 4.1.7 4.1 3.1 0 1.2-1.1 1.9-2.6 1.9s-2.4-1-2.4-2.2l.7.1z"/>
        <path d="M-180.3 296.4c-.3-1-.9-1.5-1.9-1.5-1.5 0-2.2 1.4-2.2 2.7 0 1.4.6 2.7 2.2 2.7 1.1 0 1.8-.7 2-1.7h.8c-.3 1.4-1.2 2.4-2.8 2.4-2.1 0-3-1.5-3-3.4 0-1.8 1-3.4 3-3.4 1.5 0 2.5.7 2.7 2.2h-.8z"/>
        <path d="M-177.5 297.8c0 1.4.7 2.5 2.2 2.5 1 0 1.7-.5 2-1.5h.8c-.4 1.2-1.1 2.2-2.8 2.2-2.1 0-3-1.5-3-3.4s1.1-3.4 3-3.4c1.8 0 2.8 1.3 2.8 3.6h-5zm4.2-.6c0-1.3-.7-2.3-2-2.3s-2 1.1-2.2 2.3h4.2z"/>
        <path d="M-170.3 300.8h-.7v-6.4h.7v.9c.6-.6 1.2-1.1 2.1-1.1.8 0 1.5.2 2 .9.3.5.3.9.3 1.5v4.2h-.7v-4.2c0-1.2-.5-1.7-1.7-1.7-.9 0-1.6.6-1.8 1.3-.1.4-.2.8-.2 1.2v3.4z"/>
        <path d="M-161.9 300.9c-.2 0-.5.1-.9.1-.7 0-1.1-.3-1.1-1.3V295h-.9v-.6h.9v-1.8h.7v1.8h1.2v.6h-1.2v4.4c0 .6 0 .9.6.9.2 0 .4 0 .6-.1l.1.7z"/>
        <path d="M-160.2 298.8c.2 1.1.8 1.5 1.9 1.5 1.1 0 1.6-.6 1.6-1.2 0-1.9-4.1-.5-4.1-3.1 0-1.1.8-1.8 2.3-1.8 1.4 0 2.3.6 2.5 2h-.8c-.1-1-.8-1.4-1.7-1.4s-1.5.4-1.5 1.1c0 1.8 4.1.7 4.1 3.1 0 1.2-1.1 1.9-2.6 1.9s-2.4-1-2.4-2.2l.7.1z"/>
        <path d="M-148 297.1c.3 0 .7-.1 1-.2.2-.1.3-.4.3-.7 0-.8-.4-1.3-1.6-1.3-1 0-1.7.3-1.9 1.5h-.8c.1-1.5 1.2-2.1 2.6-2.1 1.3 0 2.3.5 2.3 2v3.5c0 .6.1.7.8.5v.6c-.1 0-.4.1-.6.1h-.3c-.5-.1-.6-.5-.6-1-.6.7-1.5 1.1-2.4 1.1-1.1 0-2.2-.6-2.2-1.9 0-1.1.7-1.7 2.3-1.9l1.1-.2zm1.2.4c-.6.3-1.3.3-1.9.4-1.1.1-1.8.5-1.8 1.4 0 .8.7 1.2 1.4 1.2 1.2 0 2.4-.6 2.4-1.9l-.1-1.1z"/>
        <path d="M-139.1 294.4h.7v5.8c0 1.7-.6 3.3-3 3.3-1.9 0-2.7-1.1-2.7-1.9h.8c.2 1 1 1.2 1.9 1.2 2 0 2.3-1.5 2.3-3-.5.8-1.4 1.2-2.3 1.2-2 0-2.9-1.6-2.9-3.4 0-1.9.8-3.4 2.9-3.4.8 0 1.8.5 2.2 1.3v-1.1h.1zm-2.2.5c-1.3 0-2.2.9-2.2 2.5-.1 1.6.7 2.9 2.2 2.9 1.4 0 2.2-1.2 2.2-2.7s-.8-2.7-2.2-2.7z"/>
        <path d="M-136 297.8c0 1.4.7 2.5 2.2 2.5 1 0 1.7-.5 2-1.5h.8c-.4 1.2-1.1 2.2-2.8 2.2-2.1 0-3-1.5-3-3.4s1.1-3.4 3-3.4c1.8 0 2.8 1.3 2.8 3.6h-5zm4.2-.6c0-1.3-.7-2.3-2-2.3s-2 1.1-2.2 2.3h4.2z"/>
        <path d="M-129.1 298.8c.2 1.1.8 1.5 1.9 1.5 1.1 0 1.6-.6 1.6-1.2 0-1.9-4.1-.5-4.1-3.1 0-1.1.8-1.8 2.3-1.8 1.4 0 2.3.6 2.5 2h-.8c-.1-1-.8-1.4-1.7-1.4s-1.5.4-1.5 1.1c0 1.8 4.1.7 4.1 3.1 0 1.2-1.1 1.9-2.6 1.9s-2.4-1-2.4-2.2l.7.1z"/>
        <path d="M-117 294.3h-2.3v-.5c1.3-.1 2.2-.2 2.4-1.7h.6v8.8h-.7v-6.6z"/>
        <path d="M-109.4 298.7h-4v-.7l4.1-5.8h.7v5.8h1.2v.7h-1.2v2.2h-.8v-2.2zm-3.3-.7h3.2v-4.7l-3.2 4.7z"/>
        <path d="M-99.7 297.1c.3 0 .7-.1 1-.2.2-.1.3-.4.3-.7 0-.8-.4-1.3-1.6-1.3-1 0-1.7.3-1.9 1.5h-.8c.1-1.5 1.2-2.1 2.6-2.1 1.3 0 2.3.5 2.3 2v3.5c0 .6.1.7.8.5v.6c-.1 0-.4.1-.6.1h-.3c-.5-.1-.6-.5-.6-1-.6.7-1.5 1.1-2.4 1.1-1.1 0-2.2-.6-2.2-1.9 0-1.1.7-1.7 2.3-1.9l1.1-.2zm1.3.4c-.6.3-1.3.3-1.9.4-1.1.1-1.8.5-1.8 1.4 0 .8.7 1.2 1.4 1.2 1.2 0 2.4-.6 2.4-1.9l-.1-1.1z"/>
        <path d="M-95 300.8h-.7v-6.4h.7v.9c.6-.6 1.2-1.1 2.1-1.1.8 0 1.5.2 2 .9.3.5.3.9.3 1.5v4.2h-.7v-4.2c0-1.2-.5-1.7-1.7-1.7-.9 0-1.6.6-1.8 1.3-.1.4-.2.8-.2 1.2v3.4z"/>
        <path d="M-83.8 291.9h.7v9h-.7v-1.1c-.4.8-1.4 1.3-2.2 1.3-2.1 0-2.9-1.5-2.9-3.4 0-1.8.9-3.4 2.9-3.4.9 0 1.8.4 2.3 1.2v-3.6h-.1zm-2.2 3c-1.5 0-2.3 1.3-2.2 2.9 0 1.6.9 2.5 2.2 2.5 1.4 0 2.2-1.2 2.2-2.7s-.8-2.7-2.2-2.7z"/>
        <path d="M-290.9 309.3h.7v6.4h-.7v-.9c-.4.4-.9 1.1-2.1 1.1-1.7 0-2.3-1-2.3-2.4v-4.2h.7v4.2c0 1.1.5 1.7 1.7 1.7s2-1 2-2.4v-3.5z"/>
        <path d="M-287.6 315.8h-.7v-6.4h.7v.9c.6-.6 1.2-1.1 2.1-1.1.8 0 1.5.2 2 .9.3.5.3.9.3 1.5v4.2h-.8v-4.2c0-1.2-.5-1.7-1.7-1.7-.9 0-1.6.6-1.8 1.3-.1.4-.2.8-.2 1.2v3.4h.1z"/>
        <path d="M-276.4 306.8h.7v9h-.7v-1.1c-.4.8-1.4 1.3-2.2 1.3-2.1 0-2.9-1.5-2.9-3.4 0-1.8.9-3.4 2.9-3.4.9 0 1.8.4 2.3 1.2v-3.6h-.1zm-2.2 3c-1.5 0-2.3 1.3-2.2 2.9 0 1.6.9 2.5 2.2 2.5 1.4 0 2.2-1.2 2.2-2.7 0-1.4-.9-2.7-2.2-2.7z"/>
        <path d="M-273.4 312.7c0 1.4.7 2.5 2.2 2.5 1 0 1.7-.5 2-1.5h.8c-.4 1.2-1.1 2.2-2.8 2.2-2.1 0-3-1.5-3-3.4s1.1-3.4 3-3.4c1.8 0 2.8 1.3 2.8 3.6h-5zm4.2-.6c0-1.3-.7-2.3-2-2.3s-2 1.1-2.2 2.3h4.2z"/>
        <path d="M-266.1 315.8h-.7v-6.4h.7v1.1c.4-1 1-1.4 2.1-1.4v.8c-1.7 0-2.1 1.2-2.1 2.6v3.3z"/>
        <path d="M-256.3 312c.3 0 .7-.1 1-.2.2-.1.3-.4.3-.7 0-.8-.4-1.3-1.6-1.3-1 0-1.7.3-1.9 1.5h-.8c.1-1.5 1.2-2.1 2.6-2.1 1.3 0 2.3.5 2.3 2v3.5c0 .6.1.7.8.5v.6c-.1 0-.4.1-.6.1h-.3c-.5-.1-.6-.5-.6-1-.6.7-1.5 1.1-2.4 1.1-1.1 0-2.2-.6-2.2-1.9 0-1.1.7-1.7 2.3-1.9l1.1-.2zm1.2.4c-.6.3-1.3.3-1.9.4-1.1.1-1.8.5-1.8 1.4 0 .8.7 1.2 1.4 1.2 1.2 0 2.4-.6 2.4-1.9v-1.1h-.1z"/>
        <path d="M-251.6 315.8h-.7v-6.4h.7v1.1c.4-1 1-1.4 2.1-1.4v.8c-1.7 0-2.1 1.2-2.1 2.6v3.3z"/>
        <path d="M-248 312.7c0 1.4.7 2.5 2.2 2.5 1 0 1.7-.5 2-1.5h.8c-.4 1.2-1.1 2.2-2.8 2.2-2.1 0-3-1.5-3-3.4s1.1-3.4 3-3.4c1.8 0 2.8 1.3 2.8 3.6h-5zm4.2-.6c0-1.3-.7-2.3-2-2.3s-2 1.1-2.2 2.3h4.2z"/>
        <path d="M-235.8 315.8c-.2 0-.5.1-.9.1-.7 0-1.1-.3-1.1-1.3v-4.7h-.9v-.6h.9v-1.8h.7v1.8h1.2v.6h-1.2v4.4c0 .6 0 .9.6.9.2 0 .4 0 .6-.1v.7h.1z"/>
        <path d="M-233.9 315.8h-.7v-6.4h.7v1.1c.4-1 1-1.4 2.1-1.4v.8c-1.7 0-2.1 1.2-2.1 2.6v3.3z"/>
        <path d="M-230.3 312.7c0 1.4.7 2.5 2.2 2.5 1 0 1.7-.5 2-1.5h.8c-.4 1.2-1.1 2.2-2.8 2.2-2.1 0-3-1.5-3-3.4s1.1-3.4 3-3.4c1.8 0 2.8 1.3 2.8 3.6h-5zm4.2-.6c0-1.3-.7-2.3-2-2.3s-2 1.1-2.2 2.3h4.2z"/>
        <path d="M-220.9 312c.3 0 .7-.1 1-.2.2-.1.3-.4.3-.7 0-.8-.4-1.3-1.6-1.3-1 0-1.7.3-1.9 1.5h-.8c.1-1.5 1.2-2.1 2.6-2.1 1.3 0 2.3.5 2.3 2v3.5c0 .6.1.7.8.5v.6c-.1 0-.4.1-.6.1h-.3c-.5-.1-.6-.5-.6-1-.6.7-1.5 1.1-2.4 1.1-1.1 0-2.2-.6-2.2-1.9 0-1.1.7-1.7 2.3-1.9l1.1-.2zm1.3.4c-.6.3-1.3.3-1.9.4-1.1.1-1.8.5-1.8 1.4 0 .8.7 1.2 1.4 1.2 1.2 0 2.4-.6 2.4-1.9v-1.1h-.1z"/>
        <path d="M-214.6 315.8c-.2 0-.5.1-.9.1-.7 0-1.1-.3-1.1-1.3v-4.7h-.9v-.6h.9v-1.8h.7v1.8h1.2v.6h-1.2v4.4c0 .6 0 .9.6.9.2 0 .4 0 .6-.1v.7h.1z"/>
        <path d="M-213 312.7c0 1.4.7 2.5 2.2 2.5 1 0 1.7-.5 2-1.5h.8c-.4 1.2-1.1 2.2-2.8 2.2-2.1 0-3-1.5-3-3.4s1.1-3.4 3-3.4c1.8 0 2.8 1.3 2.8 3.6h-5zm4.2-.6c0-1.3-.7-2.3-2-2.3s-2 1.1-2.2 2.3h4.2z"/>
        <path d="M-201.5 306.8h.7v9h-.7v-1.1c-.4.8-1.4 1.3-2.2 1.3-2.1 0-2.9-1.5-2.9-3.4 0-1.8.9-3.4 2.9-3.4.9 0 1.8.4 2.3 1.2v-3.6h-.1zm-2.2 3c-1.5 0-2.3 1.3-2.2 2.9 0 1.6.9 2.5 2.2 2.5 1.4 0 2.2-1.2 2.2-2.7 0-1.4-.9-2.7-2.2-2.7z"/>
        <path d="M-195.4 307.9v-1.1h.8v1.1h-.8zm0 7.9v-6.4h.7v6.4h-.7z"/>
        <path d="M-192 315.8h-.7v-6.4h.7v.9c.6-.6 1.2-1.1 2.1-1.1.8 0 1.5.2 2 .9.3.5.3.9.3 1.5v4.2h-.7v-4.2c0-1.2-.5-1.7-1.7-1.7-.9 0-1.6.6-1.8 1.3-.1.4-.2.8-.2 1.2v3.4z"/>
        <path d="M-182.3 315.8v-9h.7v3.4c.6-.6 1.2-1.1 2.1-1.1.8 0 1.5.2 2 .9.3.5.3.9.3 1.5v4.2h-.8v-4.2c0-1.2-.5-1.7-1.7-1.7-.9 0-1.6.6-1.8 1.3-.1.4-.2.8-.2 1.2v3.5h-.6z"/>
        <path d="M-175.8 312.5c0-1.9 1-3.4 3-3.4s3 1.5 3 3.4c0 2-1.2 3.4-3 3.4-1.7 0-3-1.1-3-3.4zm2.9-2.7c-1.6 0-2.2 1.3-2.2 2.7 0 1.6.8 2.7 2.2 2.7 1.6 0 2.2-1.3 2.2-2.7 0-1.5-.6-2.7-2.2-2.7z"/>
        <path d="M-168.1 313.7c.2 1.1.8 1.5 1.9 1.5 1.1 0 1.6-.6 1.6-1.2 0-1.9-4.1-.5-4.1-3.1 0-1.1.8-1.8 2.3-1.8 1.4 0 2.3.6 2.5 2h-.8c-.1-1-.8-1.4-1.7-1.4s-1.5.4-1.5 1.1c0 1.8 4.1.7 4.1 3.1 0 1.2-1.1 1.9-2.6 1.9s-2.4-1-2.4-2.2h.7v.1z"/>
        <path d="M-161.5 318.3h-.7v-9h.7v1.1c.4-.8 1.4-1.3 2.2-1.3 2.1 0 2.9 1.5 2.9 3.4 0 1.8-.9 3.4-2.9 3.4-.9 0-1.8-.4-2.3-1.2v3.6h.1zm2.2-3c1.5 0 2.3-1.3 2.2-2.9 0-1.6-.9-2.5-2.2-2.5-1.4 0-2.2 1.2-2.2 2.7 0 1.4.9 2.7 2.2 2.7z"/>
        <path d="M-154.6 307.9v-1.1h.8v1.1h-.8zm0 7.9v-6.4h.7v6.4h-.7z"/>
        <path d="M-149.7 315.8c-.2 0-.5.1-.9.1-.7 0-1.1-.3-1.1-1.3v-4.7h-.9v-.6h.9v-1.8h.7v1.8h1.2v.6h-1.2v4.4c0 .6 0 .9.6.9.2 0 .4 0 .6-.1l.1.7z"/>
        <path d="M-145.5 312c.3 0 .7-.1 1-.2.2-.1.3-.4.3-.7 0-.8-.4-1.3-1.6-1.3-1 0-1.7.3-1.9 1.5h-.8c.1-1.5 1.2-2.1 2.6-2.1 1.3 0 2.3.5 2.3 2v3.5c0 .6.1.7.8.5v.6c-.1 0-.4.1-.6.1h-.3c-.5-.1-.6-.5-.6-1-.6.7-1.5 1.1-2.4 1.1-1.1 0-2.2-.6-2.2-1.9 0-1.1.7-1.7 2.3-1.9l1.1-.2zm1.2.4c-.6.3-1.3.3-1.9.4-1.1.1-1.8.5-1.8 1.4 0 .8.7 1.2 1.4 1.2 1.2 0 2.4-.6 2.4-1.9l-.1-1.1z"/>
        <path d="M-141.4 315.8v-9h.7v9h-.7z"/>
        <path d="M-134.9 312.7c0 1.4.7 2.5 2.2 2.5 1 0 1.7-.5 2-1.5h.8c-.4 1.2-1.1 2.2-2.8 2.2-2.1 0-3-1.5-3-3.4s1.1-3.4 3-3.4c1.8 0 2.8 1.3 2.8 3.6h-5zm4.2-.6c0-1.3-.7-2.3-2-2.3s-2 1.1-2.2 2.3h4.2z"/>
        <path d="M-127.8 315.8h-.7v-6.4h.7v1c.4-.7 1.2-1.1 2-1.1 1.2 0 1.6.6 1.9 1.2.4-.8 1.2-1.2 2.1-1.2 1.8 0 2 1.3 2 2.5v4.1h-.7v-4.5c0-.9-.3-1.5-1.4-1.5-.5 0-1.1.2-1.5.7-.3.4-.4 1.2-.4 1.7v3.5h-.7v-4.5c0-.9-.3-1.5-1.4-1.5-.5 0-1.1.2-1.5.7-.3.4-.4 1.2-.4 1.7v3.6z"/>
        <path d="M-117.6 312.7c0 1.4.7 2.5 2.2 2.5 1 0 1.7-.5 2-1.5h.8c-.4 1.2-1.1 2.2-2.8 2.2-2.1 0-3-1.5-3-3.4s1.1-3.4 3-3.4c1.8 0 2.8 1.3 2.8 3.6h-5zm4.2-.6c0-1.3-.7-2.3-2-2.3s-2 1.1-2.2 2.3h4.2z"/>
        <path d="M-110.4 315.8h-.7v-6.4h.7v1.1c.4-1 1-1.4 2.1-1.4v.8c-1.7 0-2.1 1.2-2.1 2.6v3.3z"/>
        <path d="M-102 309.3h.7v5.8c0 1.7-.6 3.3-3 3.3-1.9 0-2.7-1.1-2.7-1.9h.8c.2 1 1 1.2 1.9 1.2 2 0 2.3-1.5 2.3-3-.5.8-1.4 1.2-2.3 1.2-2 0-2.9-1.6-2.9-3.4 0-1.9.8-3.4 2.9-3.4.8 0 1.8.5 2.2 1.3v-1.1h.1zm-2.2.5c-1.3 0-2.2.9-2.2 2.5-.1 1.6.7 2.9 2.2 2.9 1.4 0 2.2-1.2 2.2-2.7s-.8-2.7-2.2-2.7z"/>
        <path d="M-98.9 312.7c0 1.4.7 2.5 2.2 2.5 1 0 1.7-.5 2-1.5h.8c-.4 1.2-1.1 2.2-2.8 2.2-2.1 0-3-1.5-3-3.4s1.1-3.4 3-3.4c1.8 0 2.8 1.3 2.8 3.6h-5zm4.2-.6c0-1.3-.7-2.3-2-2.3s-2 1.1-2.2 2.3h4.2z"/>
        <path d="M-91.7 315.8h-.7v-6.4h.7v.9c.6-.6 1.2-1.1 2.1-1.1.8 0 1.5.2 2 .9.3.5.3.9.3 1.5v4.2h-.7v-4.2c0-1.2-.5-1.7-1.7-1.7-.9 0-1.6.6-1.8 1.3-.1.4-.2.8-.2 1.2v3.4z"/>
        <path d="M-81 311.3c-.3-1-.9-1.5-1.9-1.5-1.5 0-2.2 1.4-2.2 2.7 0 1.4.6 2.7 2.2 2.7 1.1 0 1.8-.7 2-1.7h.8c-.3 1.4-1.2 2.4-2.8 2.4-2.1 0-3-1.5-3-3.4 0-1.8 1-3.4 3-3.4 1.5 0 2.5.7 2.7 2.2h-.8z"/>
        <path d="M-78.7 317.5c.2 0 .4.1.6.1.8 0 1-1.2 1.3-1.8l-2.5-6.5h.8l2.1 5.5 2.1-5.5h.8l-2.4 6.4c-.6 1.6-1 2.6-2 2.6-.3 0-.5 0-.7-.1l-.1-.7z"/>
        <path d="M-294.5 330.7h-.7v-6.4h.7v1.2c.4-1 1-1.4 2.1-1.4v.8c-1.7 0-2.1 1.2-2.1 2.6v3.2z"/>
        <path d="M-291.8 327.5c0-1.9 1-3.4 3-3.4s3 1.5 3 3.4c0 2-1.2 3.4-3 3.4-1.6-.1-3-1.2-3-3.4zm3-2.8c-1.6 0-2.2 1.3-2.2 2.7 0 1.6.8 2.7 2.2 2.7 1.6 0 2.2-1.3 2.2-2.7 0-1.5-.6-2.7-2.2-2.7z"/>
        <path d="M-284.8 327.5c0-1.9 1-3.4 3-3.4s3 1.5 3 3.4c0 2-1.2 3.4-3 3.4-1.7-.1-3-1.2-3-3.4zm2.9-2.8c-1.6 0-2.2 1.3-2.2 2.7 0 1.6.8 2.7 2.2 2.7 1.6 0 2.2-1.3 2.2-2.7 0-1.5-.6-2.7-2.2-2.7z"/>
        <path d="M-276.9 330.7h-.7v-6.4h.7v1c.4-.7 1.2-1.1 2-1.1 1.2 0 1.6.6 1.9 1.2.4-.8 1.2-1.2 2.1-1.2 1.8 0 2 1.3 2 2.5v4.1h-.7v-4.5c0-.9-.3-1.5-1.4-1.5-.5 0-1.1.2-1.5.7-.3.4-.4 1.2-.4 1.7v3.5h-.7v-4.5c0-.9-.3-1.5-1.4-1.5-.5 0-1.1.2-1.5.7-.3.4-.4 1.2-.4 1.7v3.6z"/>
        <path d="M-266.7 328.7c.2 1.1.8 1.5 1.9 1.5 1.1 0 1.6-.6 1.6-1.2 0-1.9-4.1-.5-4.1-3.1 0-1.1.8-1.8 2.3-1.8 1.4 0 2.3.6 2.5 2h-.8c-.1-1-.8-1.4-1.7-1.4s-1.5.4-1.5 1.1c0 1.8 4.1.7 4.1 3.1 0 1.2-1.1 1.9-2.6 1.9s-2.4-1-2.4-2.2h.7v.1z"/>
        <path d="M-258.1 324.9v-.6h1v-1c0-1 .4-1.7 1.4-1.7h.6v.7c-.1 0-.3-.1-.4-.1-.8 0-.8.6-.8 1.2v.8h1.2v.6h-1.2v5.8h-.7v-5.8h-1.1v.1z"/>
        <path d="M-254.4 327.5c0-1.9 1-3.4 3-3.4s3 1.5 3 3.4c0 2-1.2 3.4-3 3.4-1.7-.1-3-1.2-3-3.4zm3-2.8c-1.6 0-2.2 1.3-2.2 2.7 0 1.6.8 2.7 2.2 2.7 1.6 0 2.2-1.3 2.2-2.7-.1-1.5-.7-2.7-2.2-2.7z"/>
        <path d="M-246.3 330.7h-.7v-6.4h.7v1.2c.4-1 1-1.4 2.1-1.4v.8c-1.7 0-2.1 1.2-2.1 2.6v3.2z"/>
        <path d="M-239.1 328.7c.2 1.1.8 1.5 1.9 1.5s1.6-.6 1.6-1.2c0-1.9-4.1-.5-4.1-3.1 0-1.1.8-1.8 2.3-1.8 1.4 0 2.3.6 2.5 2h-.8c-.1-1-.8-1.4-1.7-1.4s-1.5.4-1.5 1.1c0 1.8 4.1.7 4.1 3.1 0 1.2-1.1 1.9-2.6 1.9s-2.4-1-2.4-2.2h.7v.1z"/>
        <path d="M-232.4 333.2h-.7v-9h.7v1.1c.4-.8 1.4-1.3 2.2-1.3 2.1 0 2.9 1.5 2.9 3.4 0 1.8-.9 3.4-2.9 3.4-.9 0-1.8-.4-2.3-1.2v3.6h.1zm2.1-3c1.5 0 2.3-1.3 2.2-2.9 0-1.6-.9-2.5-2.2-2.5-1.4 0-2.2 1.2-2.2 2.7.1 1.4.9 2.7 2.2 2.7z"/>
        <path d="M-226.1 327.5c0-1.9 1-3.4 3-3.4s3 1.5 3 3.4c0 2-1.2 3.4-3 3.4-1.7-.1-3-1.2-3-3.4zm3-2.8c-1.6 0-2.2 1.3-2.2 2.7 0 1.6.8 2.7 2.2 2.7 1.6 0 2.2-1.3 2.2-2.7 0-1.5-.6-2.7-2.2-2.7z"/>
        <path d="M-218 330.7h-.7v-6.4h.7v1.2c.4-1 1-1.4 2.1-1.4v.8c-1.7 0-2.1 1.2-2.1 2.6v3.2z"/>
        <path d="M-212.1 330.7c-.2 0-.5.1-.9.1-.7 0-1.1-.3-1.1-1.3v-4.7h-.9v-.6h.9v-1.7h.7v1.8h1.2v.6h-1.2v4.4c0 .6 0 .9.6.9.2 0 .4 0 .6-.1v.6h.1z"/>
        <path d="M-210.5 328.7c.2 1.1.8 1.5 1.9 1.5 1.1 0 1.6-.6 1.6-1.2 0-1.9-4.1-.5-4.1-3.1 0-1.1.8-1.8 2.3-1.8 1.4 0 2.3.6 2.5 2h-.8c-.1-1-.8-1.4-1.7-1.4s-1.5.4-1.5 1.1c0 1.8 4.1.7 4.1 3.1 0 1.2-1.1 1.9-2.6 1.9s-2.4-1-2.4-2.2h.7v.1z"/>
        <path d="M-203.9 330.7h-.7v-6.4h.7v1.2c.4-1 1-1.4 2.1-1.4v.8c-1.7 0-2.1 1.2-2.1 2.6v3.2z"/>
        <path d="M-200.3 327.6c0 1.4.7 2.5 2.2 2.5 1 0 1.7-.5 2-1.5h.8c-.4 1.2-1.1 2.2-2.8 2.2-2.1 0-3-1.5-3-3.4s1.1-3.4 3-3.4c1.8 0 2.8 1.3 2.8 3.6h-5zm4.2-.6c0-1.3-.7-2.3-2-2.3s-2 1.1-2.2 2.3h4.2z"/>
        <path d="M-193.8 330.7v-9h.7v9h-.7z"/>
        <path d="M-188.2 326.9c.3 0 .7-.1 1-.2.2-.1.3-.4.3-.7 0-.8-.4-1.3-1.6-1.3-1 0-1.7.3-1.9 1.5h-.8c.1-1.5 1.2-2.1 2.6-2.1 1.3 0 2.3.5 2.3 2v3.5c0 .6.1.7.8.5v.6c-.1 0-.4.1-.6.1h-.3c-.5-.1-.6-.5-.6-1-.6.7-1.5 1.1-2.4 1.1-1.1 0-2.2-.6-2.2-1.9 0-1.1.7-1.7 2.3-1.9l1.1-.2zm1.3.4c-.6.3-1.3.3-1.9.4-1.1.1-1.8.5-1.8 1.4 0 .8.7 1.2 1.4 1.2 1.2 0 2.4-.6 2.4-1.9l-.1-1.1z"/>
        <path d="M-182 330.7c-.2 0-.5.1-.9.1-.7 0-1.1-.3-1.1-1.3v-4.7h-.9v-.6h.9v-1.7h.7v1.8h1.2v.6h-1.2v4.4c0 .6 0 .9.6.9.2 0 .4 0 .6-.1l.1.6z"/>
        <path d="M-180.3 327.6c0 1.4.7 2.5 2.2 2.5 1 0 1.7-.5 2-1.5h.8c-.4 1.2-1.1 2.2-2.8 2.2-2.1 0-3-1.5-3-3.4s1.1-3.4 3-3.4c1.8 0 2.8 1.3 2.8 3.6h-5zm4.2-.6c0-1.3-.7-2.3-2-2.3s-2 1.1-2.2 2.3h4.2z"/>
        <path d="M-168.9 321.7h.7v9h-.7v-1.1c-.4.8-1.4 1.3-2.2 1.3-2.1 0-2.9-1.5-2.9-3.4 0-1.8.9-3.4 2.9-3.4.9 0 1.8.4 2.3 1.2v-3.6h-.1zm-2.1 3c-1.5 0-2.3 1.3-2.2 2.9 0 1.6.9 2.5 2.2 2.5 1.4 0 2.2-1.2 2.2-2.7-.1-1.4-.9-2.7-2.2-2.7z"/>
        <path d="M-162.7 322.8v-1.1h.8v1.1h-.8zm0 7.9v-6.4h.7v6.4h-.7z"/>
        <path d="M-159.3 330.7h-.7v-6.4h.7v.9c.6-.6 1.2-1.1 2.1-1.1.8 0 1.5.2 2 .9.3.5.3.9.3 1.5v4.2h-.7v-4.2c0-1.2-.5-1.7-1.7-1.7-.9 0-1.6.6-1.8 1.3-.1.4-.2.8-.2 1.2v3.4z"/>
        <path d="M-152.2 324.2v7.3c0 1.1-.1 1.7-1.3 1.7h-.5v-.7c.9.1 1-.2 1-.9v-7.4h.8zm.1-1.4h-.9v-1.1h.8l.1 1.1z"/>
        <path d="M-146 324.2h.7v6.4h-.7v-.9c-.4.4-.9 1.1-2.1 1.1-1.7 0-2.3-1-2.3-2.4v-4.2h.7v4.2c0 1.1.5 1.7 1.7 1.7s2-1 2-2.4v-3.5z"/>
        <path d="M-142.7 330.7h-.7v-6.4h.7v1.2c.4-1 1-1.4 2.1-1.4v.8c-1.7 0-2.1 1.2-2.1 2.6v3.2z"/>
        <path d="M-139.2 322.8v-1.1h.8v1.1h-.8zm0 7.9v-6.4h.7v6.4h-.7z"/>
        <path d="M-136.1 327.6c0 1.4.7 2.5 2.2 2.5 1 0 1.7-.5 2-1.5h.8c-.4 1.2-1.1 2.2-2.8 2.2-2.1 0-3-1.5-3-3.4s1.1-3.4 3-3.4c1.8 0 2.8 1.3 2.8 3.6h-5zm4.2-.6c0-1.3-.7-2.3-2-2.3s-2 1.1-2.2 2.3h4.2z"/>
        <path d="M-129.2 328.7c.2 1.1.8 1.5 1.9 1.5 1.1 0 1.6-.6 1.6-1.2 0-1.9-4.1-.5-4.1-3.1 0-1.1.8-1.8 2.3-1.8 1.4 0 2.3.6 2.5 2h-.8c-.1-1-.8-1.4-1.7-1.4s-1.5.4-1.5 1.1c0 1.8 4.1.7 4.1 3.1 0 1.2-1.1 1.9-2.6 1.9s-2.4-1-2.4-2.2h.7v.1z"/>
        <path d="M-119.5 327.6c0 1.4.7 2.5 2.2 2.5 1 0 1.7-.5 2-1.5h.8c-.4 1.2-1.1 2.2-2.8 2.2-2.1 0-3-1.5-3-3.4s1.1-3.4 3-3.4c1.8 0 2.8 1.3 2.8 3.6h-5zm4.2-.6c0-1.3-.7-2.3-2-2.3s-2 1.1-2.2 2.3h4.2z"/>
        <path d="M-110.1 326.9c.3 0 .7-.1 1-.2.2-.1.3-.4.3-.7 0-.8-.4-1.3-1.6-1.3-1 0-1.7.3-1.9 1.5h-.8c.1-1.5 1.2-2.1 2.6-2.1 1.3 0 2.3.5 2.3 2v3.5c0 .6.1.7.8.5v.6c-.1 0-.4.1-.6.1h-.3c-.5-.1-.6-.5-.6-1-.6.7-1.5 1.1-2.4 1.1-1.1 0-2.2-.6-2.2-1.9 0-1.1.7-1.7 2.3-1.9l1.1-.2zm1.3.4c-.6.3-1.3.3-1.9.4-1.1.1-1.8.5-1.8 1.4 0 .8.7 1.2 1.4 1.2 1.2 0 2.4-.6 2.4-1.9l-.1-1.1z"/>
        <path d="M-101.5 326.3c-.3-1-.9-1.5-1.9-1.5-1.5 0-2.2 1.4-2.2 2.7 0 1.4.6 2.7 2.2 2.7 1.1 0 1.8-.7 2-1.7h.8c-.3 1.4-1.2 2.4-2.8 2.4-2.1 0-3-1.5-3-3.4 0-1.8 1-3.4 3-3.4 1.5 0 2.5.7 2.7 2.2h-.8z"/>
        <path d="M-99.2 330.7v-9h.7v3.4c.6-.6 1.2-1.1 2.1-1.1.8 0 1.5.2 2 .9.3.5.3.9.3 1.5v4.2h-.7v-4.1c0-1.2-.5-1.7-1.7-1.7-.9 0-1.6.6-1.8 1.3-.1.4-.2.8-.2 1.2v3.5l-.7-.1z"/>
        <path d="M-88.9 332.4c.2 0 .4.1.6.1.8 0 1-1.2 1.3-1.8l-2.5-6.5h.8l2.1 5.5 2.1-5.5h.8l-2.4 6.4c-.6 1.6-1 2.6-2 2.6-.3 0-.5 0-.7-.1v-.7h-.1z"/>
        <path d="M-82.1 327.6c0 1.4.7 2.5 2.2 2.5 1 0 1.7-.5 2-1.5h.8c-.4 1.2-1.1 2.2-2.8 2.2-2.1 0-3-1.5-3-3.4s1.1-3.4 3-3.4c1.8 0 2.8 1.3 2.8 3.6h-5zm4.2-.6c0-1.3-.7-2.3-2-2.3s-2 1.1-2.2 2.3h4.2z"/>
        <path d="M-72.7 326.9c.3 0 .7-.1 1-.2.2-.1.3-.4.3-.7 0-.8-.4-1.3-1.6-1.3-1 0-1.7.3-1.9 1.5h-.8c.1-1.5 1.2-2.1 2.6-2.1 1.3 0 2.3.5 2.3 2v3.5c0 .6.1.7.8.5v.6c-.1 0-.4.1-.6.1h-.3c-.5-.1-.6-.5-.6-1-.6.7-1.5 1.1-2.4 1.1-1.1 0-2.2-.6-2.2-1.9 0-1.1.7-1.7 2.3-1.9l1.1-.2zm1.2.4c-.6.3-1.3.3-1.9.4-1.1.1-1.8.5-1.8 1.4 0 .8.7 1.2 1.4 1.2 1.2 0 2.4-.6 2.4-1.9v-1.1h-.1z"/>
        <path d="M-68 330.7h-.7v-6.4h.7v1.2c.4-1 1-1.4 2.1-1.4v.8c-1.7 0-2.1 1.2-2.1 2.6v3.2z"/>
        <path d="M-65.4 330.7v-1.1h.9v1.1h-.9z"/>
      </g>
    </g>
  </g>
  <g fill="#CC2036">
    <path d="M-318 322.2v1.6l-8.3 2.9h12.2v3h-18.1v-3.8l8.5-3-8.5-3v-3.8h18.1v3h-12.2l8.3 3.1z"/>
    <path d="M-330.7 305.2h15.1l1.5 1.5v6.1l-1.5 1.5h-15.1l-1.5-1.5v-6.1l1.5-1.5zm1.5 3.4v2.3l.3.3h11.5l.3-.3v-2.3l-.3-.4h-11.5l-.3.4z"/>
    <path d="M-314.1 303.1h-18.1v-7.8l1.5-1.5h8.1l1.5 1.5 7-1.5v3l-7 1.5v1.8h7v3zm-9.9-5.9l-.4-.3h-4.5l-.3.3v2.9h5.2v-2.9z"/>
    <path d="M-314.1 291.9h-18.1v-8.7h2.9v5.6h4.5v-4.2h2.9v4.2h4.9v-5.6h2.9v8.7z"/>
    <path d="M-329.2 267v3.3h15.1v3h-15.1v3.2h-3V267h3z"/>
    <path d="M-332.2 262.5h7.5v-3.4h-7.5v-3h18.1v3h-7.7v3.4h7.7v3h-18.1v-3z"/>
    <path d="M-318 247.2v3.7l3.9.8v3.1l-18.1-4.3v-2.9l18.1-4.3v3.1l-3.9.8zm-2.9.6l-6.1 1.2 6.1 1.3v-2.5z"/>
    <path d="M-314.1 242h-18.1v-3.3l11.1-3.9h-11.1v-3h18.1v3.3l-11.1 3.8h11.1v3.1z"/>
  </g>
  <g id="_x37_75000" fill="#FFF" stroke="#2BBCED" stroke-width="2" stroke-miterlimit="10">
    <path d="M-264.9 237.9l-16.9 41.8h-7l17-41.2v-5h-18.8v8.7h-5.5v-14.7h31.3v10.4h-.1z"/>
    <path d="M-229 237.9l-16.9 41.8h-7l17-41.2v-5h-18.8v8.7h-5.5v-14.7h31.2v10.4z"/>
    <path d="M-190.8 240.7h-6.4v-6.8h-19v14h20.2l6 5.8V272l-7.8 7.8h-17.6l-7.8-7.8v-9.9h6.4v7.2l4 4h12.2l4-4v-12.6l-2.7-2.8h-23.4v-26.4h31.8v13.2h.1z"/>
    <path d="M-175.7 279.3l-6.2 10.6-2.6-1.1 2.7-10.8v-4.3h6.1v5.6z"/>
    <path d="M-137.6 271.3l-8.4 8.4h-17.2l-8.4-8.4v-35.7l8.1-8.1h18l8.1 8.1v35.7h-.2zm-23.4-37.4l-4.3 4.3v30.6l4.6 4.6h12.2l4.6-4.6v-30.6l-4.3-4.3H-161z"/>
    <path d="M-96.8 271.3l-8.4 8.4h-17.2l-8.4-8.4v-35.7l8.1-8.1h18l8.1 8.1v35.7h-.2zm-23.4-37.4l-4.3 4.3v30.6l4.6 4.6h12.2l4.6-4.6v-30.6l-4.3-4.3h-12.8z"/>
    <path d="M-55.9 271.3l-8.4 8.4h-17.2l-8.4-8.4v-35.7l7.9-8.1h18l8.1 8.1v35.7zm-23.5-37.4l-4.3 4.3v30.6l4.6 4.6h12.2l4.6-4.6v-30.6l-4.3-4.3h-12.8z"/>
  </g>
</svg>
