<svg xmlns="http://www.w3.org/2000/svg" id="Layer_1" width="286.7" height="363.6" viewBox="-360.8 99.2 286.7 363.6">
  <path id="star4" fill="#E63025" d="M-114 239l4.6 21 13.2-16.9-5 20.9 19.2-9.6-13.5 16.7 21.5-.3-19.5 9.2 19.5 9.1-21.5-.3 13.5 16.7-19.2-9.6 5 20.9-13.2-16.9-4.6 21-4.5-21-13.2 16.9 5-20.9-19.2 9.6 13.5-16.7-21.5.3 19.5-9.1-19.5-9.2 21.5.3-13.5-16.7 19.2 9.6-5-20.9 13.2 16.9z"/>
  <path id="star6" fill="#E63025" d="M-269.2 357l2.8 13 8.3-10.5-3.1 13 12-5.9-8.5 10.4 13.4-.2-12.1 5.7 12.1 5.7-13.4-.2 8.5 10.4-12-5.9 3.1 13-8.3-10.5-2.8 13-2.8-13-8.3 10.5 3.1-13-12 5.9 8.5-10.4-13.4.2 12.1-5.7-12.1-5.7 13.4.2-8.5-10.4 12 5.9-3.1-13 8.3 10.5z"/>
  <path id="star5" fill="#E63025" d="M-322.2 271.7l4.4 20.3 12.8-16.4-4.9 20.2 18.6-9.2-13.1 16.1 20.8-.3-18.8 8.8 18.8 8.9-20.8-.3 13.1 16.1-18.6-9.2 4.9 20.2-12.8-16.4-4.4 20.3-4.4-20.3-12.8 16.4 4.9-20.2-18.6 9.2 13.1-16.1-20.8.3 18.8-8.9-18.8-8.8 20.8.3-13.1-16.1 18.6 9.2-4.9-20.2 12.8 16.4z"/>
  <path id="star5_1_" fill="#E63025" d="M-189.2 287.2l4.6 20.9 13.2-16.9-5 20.9 19.2-9.5-13.6 16.6 21.5-.2-19.4 9.1 19.4 9.1-21.5-.2 13.6 16.6-19.2-9.5 5 20.9-13.2-16.9-4.6 20.9-4.6-20.9L-207 365l5-20.9-19.2 9.5 13.6-16.6-21.5.2 19.4-9.1-19.4-9.1 21.5.2-13.6-16.6 19.2 9.5-5-20.9 13.2 16.9z"/>
  <g id="star1">
    <path fill="#E63025" d="M-269.2 103.4l2.8 13.1 8.3-10.6-3.1 13.1 12-6-8.5 10.4 13.4-.1-12.1 5.7 12.1 5.6-13.4-.1 8.5 10.4-12-6 3.1 13.1-8.3-10.6-2.8 13.1-2.8-13.1-8.3 10.6 3.1-13.1-12 6 8.5-10.4-13.4.1 12.1-5.6-12.1-5.7 13.4.1-8.5-10.4 12 6-3.1-13.1 8.3 10.6z"/>
  </g>
  <path id="star2" fill="#E63025" d="M-167.7 147.8l3.3 15 9.4-12.1-3.6 14.9 13.8-6.8-9.7 11.9 15.3-.2-13.9 6.5 13.9 6.5-15.3-.2 9.7 11.9-13.8-6.8 3.6 14.9-9.4-12.1-3.3 15-3.2-15-9.4 12.1 3.5-14.9-13.7 6.8 9.7-11.9-15.3.2 13.8-6.5-13.8-6.5 15.3.2-9.7-11.9 13.7 6.8-3.5-14.9 9.4 12.1z"/>
  <path id="star3" fill="#E63025" d="M-266.8 175.3l4.4 20.2 12.8-16.3-4.9 20.2 18.6-9.2-13.1 16 20.8-.2-18.8 8.8 18.8 8.8-20.8-.2 13.1 16.1-18.6-9.2 4.9 20.2-12.8-16.4-4.4 20.3-4.4-20.3-12.8 16.4 4.9-20.2-18.6 9.2 13.1-16.1-20.8.2 18.8-8.8-18.8-8.8 20.8.2-13.1-16 18.6 9.2-4.9-20.2 12.8 16.3z"/>
  <path fill="#5E2E21" d="M-286.4 154.5c0 .6 0 1.2.1 1.8 0 .1-.1-.7-.1-1.8zm77.8-16.4c-.1 0-.9 0-2.1-.4.7.1 1.4.2 2.1.4z"/>
  <path fill="#FFF" d="M-263.9 259.6c-4.8 5.2-9.9 14-14.9 17.9-.9.7-1.8 1.3-2.8 1.6-1.5.5-2.9.5-4.4-.3-1.4-.7-2.5-1.6-3.4-2.6-3.1-3.3-4.1-7.8-7.4-12.3-1.9-2.6-4.4-5.3-8.5-7.7.1-.2.3-.3.4-.5.1-.2.2-.3.4-.4.2-.3.5-.6.7-.9.1-.1.2-.2.2-.3 4.3-5.3 8.2-10 11.8-14.3 5.8 1.5 11.3 3.8 16.2 7.1 1 .7 2 1.4 2.9 2.2.4.4.8.7 1.2 1.1 3 2.7 5.5 5.8 7.4 9.2.2.1.2.2.2.2z"/>
  <g>
    <path fill="#EDB0A4" d="M-240.3 166c-1.1 0-2 2.5-2 5.5s.9 5.5 2 5.5 2-2.5 2-5.5c.1-3.1-.9-5.5-2-5.5z"/>
    <g>
      <ellipse cx="-240.3" cy="171.5" rx="2" ry="5.5"/>
      <path d="M-206.8 171.5c0 3-.9 5.5-2 5.5s-2-2.5-2-5.5.9-5.5 2-5.5 2 2.5 2 5.5z"/>
      <g>
        <path fill="#EDB0A4" d="M-167.8 169.1c-.7-3.1-2.6-6-2.6-6v-6.2c-.4 1.5-1 3-1.8 4.3-4.8 8.8-15.2 12.5-15.6 12.6 2.8-3.6 4.7-7.1 6-10.4 1.2-3 1.9-5.9 2.2-8.6 0-.4.1-.7.1-1.1.7-9.6-3.5-16.7-5.7-19.7l-1.3-1.6-.9 1.6-2.4 4.1c-1.4 0-2.8-.2-4.2-.5-4.8-.9-9.7-3.1-13.7-5.2-.3-.2-.7-.4-1-.5-4.9-2.8-8.2-5.4-8.2-5.4.3 7.8 3.9 10.3 6.3 11.2.7.2 1.4.3 2.1.4-.1 0-.9 0-2.1-.4-12.2-2.8-20.3-11.2-20.3-11.2-5.9 10.1-11.3 16.4-15.9 20.5-.9.8-1.9 1.6-2.7 2.2-7.8 5.8-12.6 4.6-12.6 4.6 7.3-8.6 0-10 0-10-2.8 3.9-4.5 7.6-5.5 10.9l-.3 1c-3.5 13.6 5.7 21.4 5.7 21.4-10-.7-14.3-5.8-15.5-12-10.7 2.4-13.3 13.5 4.1 15.7.7 8.3 2.4 13 5.6 16.2.3.3.5.5.8.7 4.8 4 12.6 5.3 25.2 8.9v6.4c2.3 3.4 5.7 6.9 9.8 9.1.3.2.6.3 1 .5 6.9 3.2 15.8 2.4 25.5-8.8-.1.1-.2.3-.3.4.2-.2.4-.5.6-.7l-3.5-1.8v-4.1c17.8-6.4 29-23.2 29.4-30.5 11.4 1.1 12.6-3.7 11.7-8zm-72.4 8c-1.1 0-2-2.5-2-5.5s.9-5.5 2-5.5 2 2.5 2 5.5c.1 3-.9 5.5-2 5.5zm31.4 0c-1.1 0-2-2.5-2-5.5s.9-5.5 2-5.5 2 2.5 2 5.5c.1 3-.8 5.5-2 5.5zm6.9-28.2l.8-.3.3.3h-1.1zm-72.2 110s-6.8 7.7-14.7 17.4c-5 6.1-10.5 13-15 19.2l-.6.9c-5.1 7.1-8.8 13.1-9 16-.7 9.4-.7 15.8-7.3 15.8-6.7 0 3.3-10.6 0-15.8 0 0-3.9 8.6-9 11.6-7.8 4.5-6.3-3.7 3-11.6 5.5-4.7 0-5.4-7.3 0-4.2 3.1-13.3-2.1 6-10.1 0 0-12.6 0-10.6-6 10 1.3 12-4.7 21.3 0l5.2-7.9.5-.8 15.4-23.6 11.4-17.4 10.7 12.3zm66.7 183.2l8.3-61.2-19.2-.4-.2 59.4m-33-53.9l-1.3 6.7-10 51.6h-11.3l2.4-39.9v-1l1.2-19.9.1-.9 14.1 2.5 1 .2m75.7-133.8l10.6-12.3 32.6 49.8c9.3-4.7 11.3 1.3 21.3 0 2 6-10.6 6-10.6 6 19.3 8 10.2 13.2 6 10.1-7.3-5.4-12.9-4.7-7.3 0 9.3 7.9 10.8 16.1 3 11.6-5.1-3-9-11.6-9-11.6-3.3 5.2 6.6 15.8 0 15.8s-6.6-6.4-7.3-15.8c-.7-9.4-39.3-53.6-39.3-53.6z"/>
        <path fill="#5E2E21" d="M-157.8 151.8l-10.5-4.5-.9-.4-1-.4.3 1.3c.1.4.1.8.2 1.3.4 2.9.1 5.5-.5 7.9-.4 1.5-1 3-1.8 4.3-4.8 8.8-15.2 12.5-15.6 12.6 2.8-3.6 4.7-7.1 6-10.4 1.2-3 1.9-5.9 2.2-8.6 0-.4.1-.7.1-1.1.7-9.6-3.5-16.7-5.7-19.7l-1.3-1.6-.9 1.6-2.4 4.1c-1.4 0-2.8-.2-4.2-.5-4.8-.9-9.7-3.1-13.7-5.2-.3-.2-.7-.4-1-.5-4.9-2.8-8.2-5.4-8.2-5.4.3 7.8 3.9 10.3 6.3 11.2-12.4-2.9-20.5-11.3-20.5-11.3-5.9 10.1-11.3 16.4-15.9 20.5-.9.8-1.9 1.6-2.7 2.2-7.8 5.8-12.6 4.6-12.6 4.6 7.3-8.6 0-10 0-10-2.8 3.9-4.5 7.6-5.5 10.9l-.3 1c-3.5 13.6 5.7 21.4 5.7 21.4-10-.7-14.3-5.8-15.5-12-.9-4.6-.1-10 1.4-14.6l.4-1.1.3-.9c-.4 0-.7-.1-1.1-.1h-1.2c-6.8 0-8.1 3.8-8.3 6.2 0-5.1 2.4-9.2 5.6-12.3.3-.3.6-.5.8-.8 7.3-6.5 18.2-8.9 18.2-8.9-7.3-6.6-11.6-.7-11.6-.7 1.7-4.4 4.1-7.9 7-10.7.4-.4.9-.8 1.3-1.2 11.6-9.8 28.5-9.4 28.5-9.4l-8.6-4.7c11.3-1.3 18 6 18 6-1.3-14 18.5-12.6 18.5-12.6-13 2.4-11.8 11.3-11.8 11.3 27.3-4.5 42.2-1.1 50 2.8 1 .5 2 1 2.8 1.5 3.8 2.5 5.1 4.7 5.1 4.7-1.6-.2-2.9-.3-4.1-.3h-2.4c-1.2.1-2 .3-2.7.6-2.6 1-2.1 2.7-2.1 2.7.4.3.9.6 1.3.9 3.4 2.5 6.1 5.1 8.1 7.5.4.4.7.9 1.1 1.3 0 0 0 .1.1.1.3.3.5.7.7 1 7.1 10.3 4.6 18.4 4.6 18.4z"/>
        <path fill="#2CBCEE" d="M-187.2 382.5s-3.8 2.7-12.7 4.1c-4.7.7-10.7 1.1-18.4.4-2.7-.2-5.5-.6-8.6-1l-3-39.9s-6.2 1-12.3 42.9c0 0-1.1 5.6-10.6 3.7-.9-.2-2-.5-3.1-.8-.3-.1-.6-.2-1-.3-3.6-1.2-8-3.3-13.5-6.6v-7.8c0-1.9.1-4.1.3-6.6 0-.3 0-.7.1-1 .8-13.6 3.2-34.1 10.2-51.7 1.4-3.5 2.9-6.8 4.7-10l31.3 1.7 1 .1 5 .3 1 .1 21.8 1.2v4c.1 4.1.2 11 .7 19.2v1.1c1 14.6 3 33 7.1 46.9z"/>
        <path fill="#4167B1" d="M-260.8 460.2c-14.1 6-47.5 0-47.5 0-6-24.9 18.4-25.4 25.9-21.4s21.6 0 21.6 0v21.4z"/>
        <path fill="#2CBCEE" d="M-282 439.8l-11 23.1h7.2l11-23.1"/>
        <path fill="#4167B1" d="M-219.3 459.3c14.1 6 47.5 0 47.5 0 6-24.9-18.4-25.4-25.9-21.4s-21.6 0-21.6 0v21.4z"/>
        <path fill="#2CBCEE" d="M-200.1 438.8l11 23.1h-7.2l-11-23.1"/>
        <path fill="#FFF" d="M-155.1 242.4c0 .6 0 1.3-.2 2.2 0 .2 0 .4-.1.5 0 .2-.1.4-.1.6 0 .1 0 .3-.1.4-.4 1.9-1.2 4.1-2.7 6.3 0 .1-.1.2-.2.2-.1.1-.1.2-.2.2-.2.3-.5.7-.8 1-2.4 2.9-6.1 5.7-11.8 7.6-3.1 1-6.8 1.8-11.3 2.2l-13.3-12 4 7.3v55.2l-3.3 1.1c-4.2 1.3-12.1 3.6-21.6 5.2-.3 0-.6.1-1 .2-2 .3-4.1.6-6.2.8-.3 0-.7.1-1 .1-11.7 1.2-24.6.9-35.3-3.6-2.4-1-4.7-2.3-6.9-3.7 0 0 .3-3.9.8-9.8.9-10.5 2.6-27.4 4.9-40.2.5-2.9 1.1-5.5 1.6-7.9-1.3.7-2.5 1.9-3.9 3.3 0 0 0-.1-.1-.1-1.9-3.4-4.4-6.5-7.4-9.2-.4-.4-.8-.7-1.2-1.1-.9-.8-1.9-1.5-2.9-2.2-4.9-3.3-10.5-5.6-16.2-7.1 3.6-4.2 6.9-7.9 9.9-11.2.3-.3.5-.6.8-.8 21.5-23.4 27.8-23.1 35-22.1 0 .1 0 .2.1.3.5 1.8 1.6 4.3 3.4 6.9 2.3 3.4 5.7 7 9.8 9.2.3.2.6.3 1 .5 6.9 3.1 15.6 2.4 25.2-8.4.2-.2.4-.5.6-.7l1.5-1.8c.8-1 1.6-2.1 2.4-3.2 0 0 9.3-2 19.9 4l26.6 28.6v.7c.3 0 .3.2.3.5z"/>
        <path fill="#2CBCEE" d="M-222.7 289.6h-14.4l-6.7-6.7v-9.5h7.8v6.3l2.1 2.1h8l2.1-2.1v-8.2l-1.1-1.2h-18.5v-22.8h26.8v12.9h-7.8v-5.1h-11.2v7.4h14.2l5.4 5.3v15l-6.7 6.6zm-13.2-3h12l4.9-4.9v-12.4l-3.6-3.5h-16v-13.4h17.2v5.1h1.8v-6.9h-20.8v16.8h16.7l2.9 3V281l-3.9 3.9h-10.4l-3.9-3.9v-4.5h-1.8v5.3l4.9 4.8z"/>
        <path fill="#F15623" d="M-184.4 215.7l26.6 28.6s.7 5.4-2.8 11c6.5-6.5 5.5-14.3 5.5-14.3l-26.6-28.6c-10.6-6-19.9-4-19.9-4-.8 1.2-1.6 2.3-2.4 3.3 1.3-.3 9.9-1.5 19.6 4zm-7.3 45.2v53.2s-1 .3-2.7.9v-52.7l-4-7.3 6.7 5.9zm-14.1-47.2c-.1.1-.2.3-.3.4-9.7 12.7-18.7 14.8-25.9 12.4l-.9-.3c-5.9-2.3-10.5-7.6-13.1-12-1.1-2-1.9-3.8-2.2-5.2-6.9-1-13-1.2-32.3 19.2l-.8.8-.6.6c-.2.3-.5.5-.7.8-2 2.1-6.6 7-6.6 7s4.3-5 6.3-7.1c.2-.3.5-.5.7-.8l.8-.8c.3-.3.5-.6.8-.8 21.5-23.4 27.8-23.2 35-22.2 0 .1.1.2.1.4.5 1.8 1.7 4.3 3.4 6.8 2.3 3.4 5.7 6.9 9.8 9.1.3.2.6.3 1 .5 6.9 3.2 15.8 2.4 25.5-8.8z"/>
      </g>
    </g>
  </g>
  <g id="glove">
    <path fill="#8A5143" d="M-90.3 316.3v1c0 .9-.2 1.8-.4 2.7l-.3 1.1c-2.5 8.1-10.7 13.7-10.7 13.7-22.6 15.3-47 2.4-48.1-15.1 0-.8-.1-1.6-.1-2.4 0-.3 0-.7-.1-1-.6-12.1 0-17.3 4-22.4.9-1.1 1.9-2.3 3.1-3.4 1.3-1.7 2.8-3.2 4.4-4.7 8.3-7.7 19.6-12.2 29.2-12.4h2.3c6.9.4 12.6 3.3 15.2 9.2.1.2.2.3.2.5.1.2.1.3.2.5.4 1.1.7 2.4.9 3.7.1 1 .2 2 .2 3.1 0 .7-.1 1.4-.2 2-.5 2.1-1.8 3.3-3.5 4 0 0-.1 0-.1.1-.3.1-.6.2-1 .3-.6.2-1.3.3-1.9.4-2.9.3-6-.2-7.7-.6-.2 0-.3-.1-.5-.1s-.4-.1-.5-.1c-.2-.1-.3-.1-.4-.1.1.1.3.2.4.3.2.1.4.2.5.3.2.1.3.2.5.3h.1c1.1.7 2.1 1.3 3.1 2 1.2.8 2.3 1.7 3.2 2.5.5.4 1 .8 1.4 1.2 1.2 1.1 2.2 2.3 3.1 3.4 0 0 .1.1.1.2.3.4.6.8.8 1.2.1.1.1.2.2.2.1.2.2.3.3.5.1.2.2.3.3.5.6 1.2 1.1 2.3 1.5 3.4.1 1.3.3 2.6.3 4z"/>
    <path fill="#5E2E21" d="M-95.3 296.8l1-.3s.1 0 .1-.1v-4h3.5c.2-.6.2-1.2.2-2 0-1.1-.1-2.1-.2-3.1-4.3.3-8 .5-11.1.7h-1.8c-13.5.8-16.7.8-16.7.8.3 1.7.7 3.4 1.1 5 .4 1.8.9 3.5 1.4 5.1.6 2 1.3 3.8 2 5.6v-3h7.7v6.7h-6.1c.7 1.4 1.3 2.7 2 3.9h4.1v6.1c.1.1.1.2.2.3.4.6.9 1.1 1.3 1.6 4.9 5.8 9.1 8 9.1 8 1.8-2.3 3.3-4.6 4.6-6.7.2-.4.4-.8.7-1.1.2-.5.5-.9.7-1.4h-2.7v-6.7h3.2c-.3-1.1-.8-2.3-1.5-3.4-.1-.1-.2-.3-.3-.5h-1.5v-2.1c-.8-1.1-1.9-2.2-3.1-3.4v5.5h-7.7v-6.7h6.3c-1-.8-2-1.7-3.2-2.5h-3.1v-6.7h7.7v4.8c.9-.1 1.5-.3 2.1-.4zm-12.7 2.3h-7.7v-6.7h7.7v6.7zm3.1 13.1h7.7v6.7h-7.7v-6.7z"/>
  </g>
  <g id="baseball">
    <path fill="#E6E6E6" d="M-97.3 299.6c0 1.7-.4 3.4-1 4.9-.2.5-.4.9-.7 1.4 0 0 0 .1-.1.1l-.3.5c-2.2 3.3-5.9 5.4-10.2 5.4-.6 0-1.1 0-1.7-.1l-1.5-.3c-5.2-1.4-9.1-6.2-9.1-11.8 0-2 .5-3.8 1.3-5.5.4-.7.8-1.4 1.2-2 2.1-2.7 5.3-4.5 8.9-4.8h.9c.6 0 1.1 0 1.7.1 6 .7 10.6 5.9 10.6 12.1z"/>
    <path fill="#C1272D" d="M-110.5 310v1.1h-.8v.6l-1.5-.3v-.3h-.7v-.9h.7c0-.4-.1-.7-.1-1l-.7.1c0-.3-.1-.6-.1-.9l.7-.1c-.1-.4-.1-.7-.2-1l-.7.1c-.1-.3-.1-.6-.2-.9l.7-.2-.3-.9-.7.2c0-.3-.1-.6-.3-1l.7-.2-.3-.9-.7.3c-.2-.3-.3-.6-.4-.9l.6-.3c-.1-.3-.3-.6-.4-.9l-.6.3c-.1-.2-.2-.5-.4-.8l.6-.3c-.2-.3-.3-.6-.5-.9l-.6.4c-.2-.3-.3-.5-.5-.8l.6-.4c-.1-.3-.3-.5-.5-.8l-.6.4c-.1-.3-.3-.5-.5-.8l.6-.4c-.2-.3-.4-.5-.6-.8l-.6.4c-.2-.2-.4-.5-.6-.7l.5-.5c-.2-.2-.4-.5-.6-.7l-.5.5c-.2-.2-.4-.5-.6-.7l.5-.5-.5-.5c.4-.7.8-1.4 1.2-2 .1.1.2.2.2.3l-.6.5c.2.2.5.4.7.7l.6-.5c.2.2.4.5.7.8l-.6.5c.2.2.4.5.6.7l.6-.5c.3.3.5.6.7.8l-.6.5c.2.3.4.6.6.8l.6-.4c.2.3.4.5.5.8l-.6.4.6.9.7-.4c.2.3.4.6.6 1l-.7.4c.2.3.3.6.5.9l.7-.4c.2.3.3.6.5.9l-.7.3c.1.3.3.6.4.9l.8-.3c.1.4.3.7.4 1l-.7.3c.1.4.2.7.3 1l.7-.3.3 1-.7.2.3 1 .8-.2c0 .3.1.7.2 1l-.8.2c.1.3.1.7.2 1l.8-.1c0 .4.1.7.1 1.1l-.8.1c.1.3.1.7.1 1h.9z"/>
    <path fill="#C1272D" d="M-98.3 304.5c-.2.5-.4.9-.7 1.4-.2-.2-.5-.4-.8-.6l-.5.6c-.3-.2-.5-.5-.8-.7l.5-.6c-.3-.3-.5-.5-.8-.7l-.5.6c-.3-.2-.5-.4-.8-.7l.6-.6c-.2-.2-.5-.4-.7-.7l-.6.5c-.2-.3-.5-.5-.7-.8l.6-.5c-.3-.3-.5-.5-.7-.8l-.6.5-.6-.9.6-.4-.6-.9-.7.4c-.1-.3-.3-.6-.5-.9l.7-.4c-.2-.3-.3-.6-.5-.9l-.7.4c-.2-.3-.3-.6-.5-.9l.7-.3c-.1-.3-.3-.6-.4-.9l-.7.3c-.1-.3-.3-.7-.4-1l.8-.4c-.2-.4-.3-.7-.4-1l-.7.3-.3-1 .7-.2-.3-1-.7.2-.3-1 .7-.2c-.1-.3-.1-.7-.2-1l-.8.2c-.1-.3-.1-.7-.2-1l.7-.1c-.1-.3-.1-.7-.2-1l-.8.1c0-.1 0-.3-.1-.5h.9c.6 0 1.1 0 1.7.1h-.1c.1.4.1.7.2 1l.7-.1c.1.3.1.6.2.9l-.7.2c.1.4.1.7.2 1l.7-.2c0 .3.1.6.2.9l-.7.2.3.9.7-.2.3.9-.7.2.3.9.8-.2c.2.3.3.6.4.9l-.7.3c.1.3.3.6.4.9l.6-.3c.1.2.3.5.4.8l-.6.3c.2.2.3.5.5.8l.6-.3c.2.3.3.5.5.8l-.6.4c.1.3.3.5.5.8l.6-.4c.1.3.3.6.5.8l-.6.4c.2.2.4.5.6.7l.4-.4c.2.2.4.5.6.7l-.5.5.7.7.5-.5c.2.2.5.4.7.6l-.5.5c.2.2.5.4.7.6l.5-.5c.2.2.5.4.7.6l-.4.6c.2.1.4.2.7.3z"/>
  </g>
  <g id="football">
    <path fill="#CC2036" d="M-261.6 264.2c-2.3 12.8-4 29.7-4.9 40.2-.9-.2-1.6-.4-2.3-.5-.5-.1-.8-.2-1.1-.2-9-1.6-18.2-4.7-25.7-10-6-4.2-10.1-9.5-12.8-15.5l-.6-1.5c-3.4-8.5-4-18.2-2.8-27.8.2-1.4.5-6.2 1.3-8.9.2-.8.5-1.3.8-1.6.9-.7 2.6-.8 4.5-.7 2.5.1 5.2.7 6.5.9 2.2.3 4.3.8 6.5 1.3h.2c.1 0 .2.1.4.1 5.8 1.5 11.3 3.8 16.2 7.1 1 .7 2 1.4 2.9 2.2.4.4.8.7 1.2 1.1 3 2.7 5.5 5.8 7.4 9.2 0 0 0 .1.1.1.2.4.5.8.6 1.2.6 1 1.1 2.1 1.6 3.3z"/>
    <path fill="#FFF" d="M-270.8 289.3l-2-3 2-1.3-1.7-2.5-2 1.3-2.3-3.3 2-1.3-1.6-2.5-2 1.3-2.3-3.3 2-1.3-1.7-2.5-2 1.3-2.2-3.3 2-1.3-1.7-2.5-2 1.3-2.2-3.3 2-1.3-1.7-2.5-2 1.4-2.3-3.4 2-1.3-1.6-2.5-2 1.4-2.3-3.3-2.6 1.7 2.2 3.3-2 1.4 1.7 2.5 2-1.4 2.3 3.3-2 1.4 1.6 2.5 2-1.4 2.3 3.3-2 1.4 1.7 2.5 2-1.4 2.2 3.3-2 1.4 1.7 2.5 2-1.4 2.2 3.3-2 1.4 1.7 2.5 2-1.4 2.2 3.3-2 1.4 1.7 2.5 2-1.4 2.1 3z"/>
  </g>
</svg>
