<svg xmlns="http://www.w3.org/2000/svg" id="Layer_1" width="368" height="119.2" viewBox="0 0 368 119.2">
  <g id="back">
    <path fill="#FFF" d="M192.9 107.1v-95C192.9 5.4 198.3 0 205 0h150.4c6.7 0 12.1 5.4 12.1 12.1v95c0 6.7-5.4 12.1-12.1 12.1H205.1c-6.7 0-12.2-5.4-12.2-12.1z"/>
  </g>
  <g id="percent">
    <g>
      <path fill="#FFF" d="M71.9 37.4v11.7H61.7v-7.2l-6-6H36.5l-6 6v16.5h32.9l9.5 9.2v28.5l-12.3 12.3h-28L20.3 96.1V37.4L32 25.7h28.4l11.5 11.7zM30.4 68v23.9l6.4 6.4h19.4l6.3-6.4V72.3L58.2 68H30.4z"/>
      <path fill="#F05623" d="M60.9 109.4H32.1L19.3 96.5V37l12.3-12.3h29.2L72.9 37v13.1H60.7v-7.8l-5.4-5.4H36.9l-5.4 5.4v15.1h32.3l10 9.8v29.3l-12.9 12.9zm-27.9-2h27l11.7-11.7V68l-8.9-8.6H29.4v-18l6.6-6.6h20.1l6.6 6.6V48h8.2V37.8l-11-11.1H32.4L21.3 37.8v57.9L33 107.4zm23.6-8.2H36.4l-7-7V67h29.2l4.8 5v20.3l-6.8 6.9zm-19.4-2h18.5l5.7-5.8V72.8L57.8 69H31.4v22.5l5.8 5.7z"/>
    </g>
    <g>
      <path fill="#FFF" d="M135.4 62.1l-9.6 9.6H97.9L93.5 76v22.2h32V86.9h10.2v21.5H83.4V71.3l9.3-9.2h28l4.4-4.3v-16l-5.9-5.9h-18.9l-5.9 5.9v7.3H84.1V37.4l11.7-11.7h27.9l11.7 11.7v24.7z"/>
      <path fill="#F05623" d="M136.7 109.4H82.4V70.9l9.9-9.8h28l3.8-3.7V42.3l-5.3-5.3h-18.1l-5.3 5.3v7.9H83.1V37l12.3-12.3h28.7L136.4 37v25.5l-10.2 10.2H98.3l-3.8 3.8v20.8h30V85.9h12.2v23.5zm-52.3-2h50.3V87.9h-8.2v11.3h-34V75.6l5-5h27.9l9-9V37.8l-11.1-11.1H96.2L85.1 37.8v10.4h8.3v-6.7l6.5-6.5h19.7l6.5 6.5v16.8l-5 4.8h-28l-8.7 8.6v35.7z"/>
    </g>
    <g>
      <path fill="#FFF" d="M162 38.9l-3.9 3.9h-9.8l-4-3.9V24.5l3.7-3.7h10.3l3.7 3.7v14.4zm-12.2-14.1l-1.7 1.6v10.7l1.9 1.8h6.2l1.9-1.8V26.4l-1.6-1.6h-6.7zm3.7 44.2h-4.2l27.3-48.2h4.2L153.5 69zm32.8-3.9l-4 3.9h-9.7l-4-4V50.6l3.7-3.7h10.3l3.7 3.7v14.5zm-12.2-14.2l-1.7 1.7v10.7l1.9 1.9h6.2l1.9-1.9V52.6l-1.6-1.7h-6.7z"/>
      <path fill="#F05623" d="M182.5 69.5h-10.1l-4.3-4.3V50.4l3.9-3.9h10.7l4 3.9v14.9l-4.2 4.2zm-9.7-1h9.3l3.7-3.6v-14l-3.4-3.4h-9.9l-3.4 3.4v14l3.7 3.6zm-19 1h-5.4l27.8-49.2h5.4l-27.8 49.2zm-3.6-1h3.1L180 21.3h-3.1l-26.7 47.2zm30.6-2.9h-6.6l-2.2-2.2v-11l1.9-1.9h7.1l1.9 2v11.1l-2.1 2zm-6.2-1h5.8L182 63V52.8l-1.3-1.4h-6.3l-1.4 1.4V63l1.6 1.6zm-16.4-21.2H148l-4.3-4.2V24.3l4-3.9h10.7l3.9 3.9v14.9l-4.1 4.2zm-9.8-1h9.4l3.6-3.6V24.7l-3.4-3.4h-9.9l-3.4 3.4v14l3.7 3.7zm8-3h-6.6l-2.2-2.1V26.2l2-1.9h7.1l1.9 1.9v11.2l-2.2 2zm-6.2-1h5.8l1.6-1.5V26.6l-1.3-1.3H150l-1.4 1.3v10.3l1.6 1.5z"/>
    </g>
  </g>
  <g id="text">
    <g>
      <g fill="#1D2554">
        <path d="M203.3 25.3c0-2.4 1.3-4.4 3.8-4.4 2.6 0 3.8 1.9 3.8 4.4 0 2.6-1.5 4.4-3.8 4.4-2.1-.1-3.8-1.5-3.8-4.4zm3.8-3.5c-2 0-2.8 1.7-2.8 3.5 0 2.1 1 3.5 2.8 3.5 2 0 2.8-1.7 2.8-3.5 0-2-.7-3.5-2.8-3.5z"/>
        <path d="M211.6 21.9v-.8h1.2v-1.3c0-1.3.5-2.1 1.8-2.1.3 0 .5 0 .8.1v.9c-.2 0-.4-.1-.6-.1-1 0-1 .8-1 1.6v1h1.6v.8h-1.6v7.5h-1V22h-1.2z"/>
        <path d="M220.1 25.3c0-2.4 1.3-4.4 3.8-4.4 2.6 0 3.8 1.9 3.8 4.4 0 2.6-1.5 4.4-3.8 4.4-2-.1-3.8-1.5-3.8-4.4zm3.9-3.5c-2 0-2.8 1.7-2.8 3.5 0 2.1 1 3.5 2.8 3.5 2 0 2.8-1.7 2.8-3.5 0-2-.8-3.5-2.8-3.5z"/>
        <path d="M230.3 29.4h-1v-8.3h1v1.6c.5-1.3 1.3-1.8 2.7-1.8v1c-2.2 0-2.7 1.6-2.7 3.4v4.1z"/>
        <path d="M240.7 21.1h1v7.5c0 2.2-.7 4.2-3.9 4.2-2.4 0-3.4-1.4-3.5-2.4h1c.3 1.2 1.3 1.5 2.5 1.5 2.6 0 3-2 2.9-3.9-.6 1-1.8 1.6-3 1.6-2.5 0-3.7-2.1-3.7-4.4 0-2.4 1.1-4.4 3.7-4.4 1.1 0 2.3.6 2.9 1.7v-1.4zm-2.8.7c-1.6 0-2.8 1.2-2.8 3.2-.1 2.1.8 3.8 2.8 3.8 1.7 0 2.8-1.6 2.8-3.5 0-2-1-3.5-2.8-3.5z"/>
        <path d="M247.5 24.6c.4 0 .9-.1 1.3-.3.3-.1.4-.6.4-.9 0-1-.6-1.7-2.1-1.7-1.3 0-2.2.4-2.4 1.9h-1c.1-2 1.6-2.7 3.4-2.7 1.7 0 3 .7 3 2.6V28c0 .8.2.9 1 .6v.8c-.1 0-.5.2-.8.2h-.4c-.6-.1-.8-.7-.8-1.2-.8.9-1.9 1.4-3.1 1.4-1.5 0-2.8-.8-2.8-2.4 0-1.4 1-2.2 2.9-2.5l1.4-.3zm1.6.5c-.8.3-1.6.4-2.5.5-1.5.1-2.3.6-2.3 1.8 0 1 .9 1.5 1.8 1.5 1.5 0 3-.7 3-2.4v-1.4z"/>
        <path d="M253.2 29.4h-1v-8.3h1v1.2c.8-.8 1.5-1.4 2.7-1.4 1 0 1.9.3 2.5 1.2.4.6.4 1.2.4 1.9v5.4h-1V24c0-1.5-.6-2.2-2.1-2.2-1.2 0-2 .8-2.3 1.6-.2.5-.2 1-.2 1.6v4.4z"/>
        <path d="M261 19.3v-1.4h1.1v1.4H261zm0 10.1v-8.3h1v8.3h-1z"/>
        <path d="M263.5 29.4v-.8L269 22h-5.1v-.8h6.4v.8l-5.5 6.6h5.7v.8h-7z"/>
        <path d="M272.4 25.5c0 1.8.9 3.3 2.8 3.3 1.2 0 2.2-.7 2.5-1.9h1.1c-.5 1.6-1.5 2.8-3.6 2.8-2.7 0-3.8-1.9-3.8-4.3s1.4-4.4 3.8-4.4c2.3 0 3.7 1.6 3.6 4.6h-6.4zm5.4-.8c0-1.6-.9-2.9-2.6-2.9-1.7 0-2.6 1.4-2.8 2.9h5.4z"/>
        <path d="M286.8 17.9h1v11.5h-1V28c-.6 1.1-1.8 1.7-2.9 1.7-2.7 0-3.7-1.9-3.7-4.4 0-2.3 1.2-4.4 3.7-4.4 1.2 0 2.4.5 3 1.6v-4.6zm-2.8 3.9c-2 0-2.9 1.7-2.8 3.8 0 2.1 1.2 3.2 2.8 3.2 1.8 0 2.8-1.5 2.8-3.5 0-1.9-1.1-3.5-2.8-3.5z"/>
        <path d="M294.5 26.8c.3 1.4 1 2 2.5 2 1.4 0 2-.7 2-1.5 0-2.4-5.3-.7-5.3-4 0-1.4 1.1-2.4 2.9-2.4 1.8 0 3 .7 3.2 2.6h-1c-.2-1.3-1-1.7-2.2-1.7-1.2 0-1.9.6-1.9 1.4 0 2.3 5.3.8 5.3 4 0 1.6-1.4 2.4-3.4 2.4s-3.1-1.2-3.2-2.8h1.1z"/>
        <path d="M302.7 32.7h-1V21.1h1v1.5c.6-1.1 1.8-1.7 2.9-1.7 2.7 0 3.7 1.9 3.7 4.4 0 2.3-1.2 4.4-3.7 4.4-1.2 0-2.4-.5-3-1.6v4.6zm2.8-3.9c2 0 2.9-1.7 2.8-3.8 0-2.1-1.2-3.2-2.8-3.2-1.8 0-2.8 1.5-2.8 3.5 0 1.9 1 3.5 2.8 3.5z"/>
        <path d="M310.5 25.3c0-2.4 1.3-4.4 3.8-4.4 2.6 0 3.8 1.9 3.8 4.4 0 2.6-1.5 4.4-3.8 4.4-2-.1-3.8-1.5-3.8-4.4zm3.9-3.5c-2 0-2.8 1.7-2.8 3.5 0 2.1 1 3.5 2.8 3.5 2 0 2.8-1.7 2.8-3.5 0-2-.8-3.5-2.8-3.5z"/>
        <path d="M320.7 29.4h-1v-8.3h1v1.6c.5-1.3 1.3-1.8 2.7-1.8v1c-2.2 0-2.7 1.6-2.7 3.4v4.1z"/>
        <path d="M327.9 29.5c-.2 0-.6.2-1.1.2-.9 0-1.5-.4-1.5-1.6V22h-1.2v-.8h1.2v-2.3h1v2.3h1.6v.8h-1.6v5.7c0 .8 0 1.2.8 1.2.3 0 .5 0 .8-.1v.7z"/>
        <path d="M329.6 26.8c.3 1.4 1 2 2.5 2 1.4 0 2-.7 2-1.5 0-2.4-5.3-.7-5.3-4 0-1.4 1.1-2.4 2.9-2.4 1.8 0 3 .7 3.2 2.6h-1c-.2-1.3-1-1.7-2.2-1.7-1.2 0-1.9.6-1.9 1.4 0 2.3 5.3.8 5.3 4 0 1.6-1.4 2.4-3.4 2.4s-3.1-1.2-3.2-2.8h1.1z"/>
        <path d="M204.8 48.6h-1v-8.3h1v1.6c.5-1.3 1.3-1.8 2.7-1.8v1c-2.2 0-2.7 1.6-2.7 3.4v4.1z"/>
        <path d="M209.2 44.7c0 1.8.9 3.3 2.8 3.3 1.2 0 2.2-.7 2.5-1.9h1.1c-.5 1.6-1.5 2.8-3.6 2.8-2.7 0-3.8-1.9-3.8-4.3s1.4-4.4 3.8-4.4c2.3 0 3.7 1.6 3.6 4.6h-6.4zm5.4-.8c0-1.6-.9-2.9-2.6-2.9-1.7 0-2.6 1.4-2.8 2.9h5.4z"/>
        <path d="M217.3 48.6V37.1h1v11.5h-1z"/>
        <path d="M224.2 43.8c.4 0 .9-.1 1.3-.3.3-.1.4-.6.4-.9 0-1-.6-1.7-2.1-1.7-1.3 0-2.2.4-2.4 1.9h-1c.1-2 1.6-2.7 3.4-2.7 1.7 0 3 .7 3 2.6v4.5c0 .8.2.9 1 .6v.8c-.1 0-.5.2-.8.2h-.4c-.6-.1-.8-.7-.8-1.2-.8.9-1.9 1.4-3.1 1.4-1.5 0-2.8-.8-2.8-2.4 0-1.4 1-2.2 2.9-2.5l1.4-.3zm1.6.5c-.8.3-1.6.4-2.5.5-1.5.1-2.3.6-2.3 1.8 0 1 .9 1.5 1.8 1.5 1.5 0 3-.7 3-2.4v-1.4z"/>
        <path d="M231.9 48.7c-.2 0-.6.2-1.1.2-.9 0-1.5-.4-1.5-1.6v-6.1h-1.2v-.8h1.2V38h1v2.3h1.6v.8h-1.6v5.7c0 .8 0 1.2.8 1.2.3 0 .5 0 .8-.1v.8z"/>
        <path d="M233.7 44.7c0 1.8.9 3.3 2.8 3.3 1.2 0 2.2-.7 2.5-1.9h1.1c-.5 1.6-1.5 2.8-3.6 2.8-2.7 0-3.8-1.9-3.8-4.3s1.4-4.4 3.8-4.4c2.3 0 3.7 1.6 3.6 4.6h-6.4zm5.4-.8c0-1.6-.9-2.9-2.6-2.9-1.7 0-2.6 1.4-2.8 2.9h5.4z"/>
        <path d="M248 37.1h1v11.5h-1v-1.5c-.6 1.1-1.8 1.7-2.9 1.7-2.7 0-3.7-1.9-3.7-4.4 0-2.3 1.2-4.4 3.7-4.4 1.2 0 2.4.5 3 1.6v-4.5zm-2.8 3.9c-2 0-2.9 1.7-2.8 3.8 0 2.1 1.2 3.2 2.8 3.2 1.8 0 2.8-1.5 2.8-3.5 0-1.9-1-3.5-2.8-3.5z"/>
        <path d="M255.3 38.5v-1.4h1.1v1.4h-1.1zm.1 10.1v-8.3h1v8.3h-1z"/>
        <path d="M259.4 48.6h-1v-8.3h1v1.2c.8-.8 1.5-1.4 2.7-1.4 1 0 1.9.3 2.5 1.2.4.6.4 1.2.4 1.9v5.4h-1v-5.4c0-1.5-.6-2.2-2.1-2.2-1.2 0-2 .8-2.3 1.6-.2.5-.2 1-.2 1.6v4.4z"/>
        <path d="M268.3 40.3v9.4c0 1.4-.1 2.2-1.7 2.2-.2 0-.4 0-.6-.1V51c1.1.1 1.3-.3 1.3-1.1v-9.5h1zm0-1.8h-1.1v-1.4h1.1v1.4z"/>
        <path d="M275.9 40.3h1v8.3h-1v-1.2c-.5.6-1.2 1.4-2.7 1.4-2.2 0-2.9-1.3-2.9-3.1v-5.5h1v5.4c0 1.4.6 2.2 2.1 2.2 1.6 0 2.5-1.3 2.5-3.1v-4.4z"/>
        <path d="M279.9 48.6h-1v-8.3h1v1.6c.5-1.3 1.3-1.8 2.7-1.8v1c-2.2 0-2.7 1.6-2.7 3.4v4.1z"/>
        <path d="M284 38.5v-1.4h1.1v1.4H284zm0 10.1v-8.3h1v8.3h-1z"/>
        <path d="M287.7 44.7c0 1.8.9 3.3 2.8 3.3 1.2 0 2.2-.7 2.5-1.9h1.1c-.5 1.6-1.5 2.8-3.6 2.8-2.7 0-3.8-1.9-3.8-4.3s1.4-4.4 3.8-4.4c2.3 0 3.7 1.6 3.6 4.6h-6.4zm5.4-.8c0-1.6-.9-2.9-2.6-2.9-1.7 0-2.6 1.4-2.8 2.9h5.4z"/>
        <path d="M296.2 46c.3 1.4 1 2 2.5 2 1.4 0 2-.7 2-1.5 0-2.4-5.3-.7-5.3-4 0-1.4 1.1-2.4 2.9-2.4 1.8 0 3 .7 3.2 2.6h-1c-.2-1.3-1-1.7-2.2-1.7-1.2 0-1.9.6-1.9 1.4 0 2.3 5.3.8 5.3 4 0 1.6-1.4 2.4-3.4 2.4s-3.1-1.2-3.2-2.8h1.1z"/>
        <path d="M306.9 44.5c0-2.4 1.3-4.4 3.8-4.4 2.6 0 3.8 1.9 3.8 4.4 0 2.6-1.5 4.4-3.8 4.4-2-.1-3.8-1.5-3.8-4.4zm3.9-3.5c-2 0-2.8 1.7-2.8 3.5 0 2.1 1 3.5 2.8 3.5 2 0 2.8-1.7 2.8-3.5 0-2-.8-3.5-2.8-3.5z"/>
        <path d="M321.9 42.9c-.3-1.2-1.2-2-2.5-2-2 0-2.8 1.8-2.8 3.5s.8 3.5 2.8 3.5c1.4 0 2.3-.8 2.5-2.2h1c-.3 1.8-1.5 3.1-3.6 3.1-2.6 0-3.8-1.9-3.8-4.4 0-2.3 1.3-4.4 3.8-4.4 1.9 0 3.2.9 3.4 2.8h-.8z"/>
        <path d="M330.5 42.9c-.3-1.2-1.2-2-2.5-2-2 0-2.8 1.8-2.8 3.5s.8 3.5 2.8 3.5c1.4 0 2.3-.8 2.5-2.2h1c-.3 1.8-1.5 3.1-3.6 3.1-2.6 0-3.8-1.9-3.8-4.4 0-2.3 1.3-4.4 3.8-4.4 1.9 0 3.2.9 3.4 2.8h-.8z"/>
        <path d="M338.8 40.3h1v8.3h-1v-1.2c-.5.6-1.2 1.4-2.7 1.4-2.2 0-2.9-1.3-2.9-3.1v-5.5h1v5.4c0 1.4.6 2.2 2.1 2.2 1.6 0 2.5-1.3 2.5-3.1v-4.4z"/>
        <path d="M342.8 48.6h-1v-8.3h1v1.6c.5-1.3 1.3-1.8 2.7-1.8v1c-2.2 0-2.7 1.6-2.7 3.4v4.1z"/>
        <path d="M210.2 56.3h1v11.5h-1v-1.5c-.6 1.1-1.8 1.7-2.9 1.7-2.7 0-3.7-1.9-3.7-4.4 0-2.3 1.2-4.4 3.7-4.4 1.2 0 2.4.5 3 1.6v-4.5zm-2.8 3.9c-2 0-2.9 1.7-2.8 3.8 0 2.1 1.2 3.2 2.8 3.2 1.8 0 2.8-1.5 2.8-3.5 0-1.9-1-3.5-2.8-3.5z"/>
        <path d="M218.9 59.5h1v8.3h-1v-1.2c-.5.6-1.2 1.4-2.7 1.4-2.2 0-2.9-1.3-2.9-3.1v-5.5h1V65c0 1.4.6 2.2 2.1 2.2 1.6 0 2.5-1.3 2.5-3.1v-4.6z"/>
        <path d="M222.9 67.8h-1v-8.3h1v1.6c.5-1.3 1.3-1.8 2.7-1.8v1c-2.2 0-2.7 1.6-2.7 3.4v4.1z"/>
        <path d="M227 57.7v-1.4h1.1v1.4H227zm0 10.1v-8.3h1v8.3h-1z"/>
        <path d="M231.1 67.8h-1v-8.3h1v1.2c.8-.8 1.5-1.4 2.7-1.4 1 0 1.9.3 2.5 1.2.4.6.4 1.2.4 1.9v5.4h-1v-5.4c0-1.5-.6-2.2-2.1-2.2-1.2 0-2 .8-2.3 1.6-.2.5-.2 1-.2 1.6v4.4z"/>
        <path d="M245.1 59.5h1V67c0 2.2-.7 4.2-3.9 4.2-2.4 0-3.4-1.4-3.5-2.4h1c.3 1.2 1.3 1.5 2.5 1.5 2.6 0 3-2 2.9-3.9-.6 1-1.8 1.6-3 1.6-2.5 0-3.7-2.1-3.7-4.4 0-2.4 1.1-4.4 3.7-4.4 1.1 0 2.3.6 2.9 1.7v-1.4zm-2.8.7c-1.6 0-2.8 1.2-2.8 3.2-.1 2.1.8 3.8 2.8 3.8 1.7 0 2.8-1.6 2.8-3.5 0-2-1-3.5-2.8-3.5z"/>
        <path d="M253.3 71.1h-1V59.5h1V61c.6-1.1 1.8-1.7 2.9-1.7 2.7 0 3.7 1.9 3.7 4.4 0 2.3-1.2 4.4-3.7 4.4-1.2 0-2.4-.5-3-1.6v4.6zm2.8-3.9c2 0 2.9-1.7 2.8-3.8 0-2.1-1.2-3.2-2.8-3.2-1.8 0-2.8 1.5-2.8 3.5 0 1.9 1.1 3.5 2.8 3.5z"/>
        <path d="M262.7 67.8h-1v-8.3h1v1.6c.5-1.3 1.3-1.8 2.7-1.8v1c-2.2 0-2.7 1.6-2.7 3.4v4.1z"/>
        <path d="M270.5 63c.4 0 .9-.1 1.3-.3.3-.1.4-.6.4-.9 0-1-.6-1.7-2.1-1.7-1.3 0-2.2.4-2.4 1.9h-1c.1-2 1.6-2.7 3.4-2.7 1.7 0 3 .7 3 2.6v4.5c0 .8.2.9 1 .6v.8c-.1 0-.5.2-.8.2h-.4c-.6-.1-.8-.7-.8-1.2-.8.9-1.9 1.4-3.1 1.4-1.5 0-2.8-.8-2.8-2.4 0-1.4 1-2.2 2.9-2.5l1.4-.3zm1.7.5c-.8.3-1.6.4-2.5.5-1.5.1-2.3.6-2.3 1.8 0 1 .9 1.5 1.8 1.5 1.5 0 3-.7 3-2.4v-1.4z"/>
        <path d="M281.2 62.1c-.3-1.2-1.2-2-2.5-2-2 0-2.8 1.8-2.8 3.5s.8 3.5 2.8 3.5c1.4 0 2.3-.8 2.5-2.2h1c-.3 1.8-1.5 3.1-3.6 3.1-2.6 0-3.8-1.9-3.8-4.4 0-2.3 1.3-4.4 3.8-4.4 1.9 0 3.2.9 3.4 2.8h-.8z"/>
        <path d="M286.8 67.9c-.2 0-.6.2-1.1.2-.9 0-1.5-.4-1.5-1.6v-6.1H283v-.8h1.2v-2.3h1v2.3h1.6v.8h-1.6V66c0 .8 0 1.2.8 1.2.3 0 .5 0 .8-.1v.8z"/>
        <path d="M288.1 57.7v-1.4h1.1v1.4h-1.1zm.1 10.1v-8.3h1v8.3h-1z"/>
        <path d="M297.1 62.1c-.3-1.2-1.2-2-2.5-2-2 0-2.8 1.8-2.8 3.5s.8 3.5 2.8 3.5c1.4 0 2.3-.8 2.5-2.2h1c-.3 1.8-1.5 3.1-3.6 3.1-2.6 0-3.8-1.9-3.8-4.4 0-2.3 1.3-4.4 3.8-4.4 1.9 0 3.2.9 3.4 2.8h-.8z"/>
        <path d="M300.4 63.9c0 1.8.9 3.3 2.8 3.3 1.2 0 2.2-.7 2.5-1.9h1.1c-.5 1.6-1.5 2.8-3.6 2.8-2.7 0-3.8-1.9-3.8-4.3s1.4-4.4 3.8-4.4c2.3 0 3.7 1.6 3.6 4.6h-6.4zm5.4-.8c0-1.6-.9-2.9-2.6-2.9-1.7 0-2.6 1.4-2.8 2.9h5.4z"/>
        <path d="M309 65.2c.3 1.4 1 2 2.5 2 1.4 0 2-.7 2-1.5 0-2.4-5.3-.7-5.3-4 0-1.4 1.1-2.4 2.9-2.4 1.8 0 3 .7 3.2 2.6h-1c-.2-1.3-1-1.7-2.2-1.7-1.2 0-1.9.6-1.9 1.4 0 2.3 5.3.8 5.3 4 0 1.6-1.4 2.4-3.4 2.4s-3.1-1.2-3.2-2.8h1.1z"/>
        <path d="M204.8 87h-1v-8.3h1v1.6c.5-1.3 1.3-1.8 2.7-1.8v1c-2.2 0-2.7 1.6-2.7 3.4V87z"/>
        <path d="M213 82.2c.4 0 .9-.1 1.3-.3.3-.1.4-.6.4-.9 0-1-.6-1.7-2.1-1.7-1.3 0-2.2.4-2.4 1.9h-1c.1-2 1.6-2.7 3.4-2.7 1.7 0 3 .7 3 2.6v4.5c0 .8.2.9 1 .6v.8c-.1 0-.5.2-.8.2h-.4c-.6-.1-.8-.7-.8-1.2-.8.9-1.9 1.4-3.1 1.4-1.5 0-2.8-.8-2.8-2.4 0-1.4 1-2.2 2.9-2.5l1.4-.3zm1.6.5c-.8.3-1.6.4-2.5.5-1.5.1-2.3.6-2.3 1.8 0 1 .9 1.5 1.8 1.5 1.5 0 3-.7 3-2.4v-1.4z"/>
        <path d="M221 87.1c-.2 0-.6.2-1.1.2-.9 0-1.5-.4-1.5-1.6v-6.1h-1.2v-.8h1.2v-2.3h1v2.3h1.6v.8h-1.6v5.7c0 .8 0 1.2.8 1.2.3 0 .5 0 .8-.1v.7z"/>
        <path d="M222.5 87V75.5h1v4.4c.8-.8 1.5-1.4 2.7-1.4 1 0 1.9.3 2.5 1.2.4.6.4 1.2.4 1.9V87h-1v-5.4c0-1.5-.6-2.2-2.1-2.2-1.2 0-2 .8-2.3 1.6-.2.5-.2 1-.2 1.6V87h-1z"/>
        <path d="M232 83.1c0 1.8.9 3.3 2.8 3.3 1.2 0 2.2-.7 2.5-1.9h1.1c-.5 1.6-1.5 2.8-3.6 2.8-2.7 0-3.8-1.9-3.8-4.3s1.4-4.4 3.8-4.4c2.3 0 3.7 1.6 3.6 4.6H232zm5.4-.8c0-1.6-.9-2.9-2.6-2.9-1.7 0-2.6 1.4-2.8 2.9h5.4z"/>
        <path d="M241.3 87h-1v-8.3h1v1.6c.5-1.3 1.3-1.8 2.7-1.8v1c-2.2 0-2.7 1.6-2.7 3.4V87z"/>
        <path d="M253 87.1c-.2 0-.6.2-1.1.2-.9 0-1.5-.4-1.5-1.6v-6.1h-1.2v-.8h1.2v-2.3h1v2.3h1.6v.8h-1.6v5.7c0 .8 0 1.2.8 1.2.3 0 .5 0 .8-.1v.7z"/>
        <path d="M254.5 87V75.5h1v4.4c.8-.8 1.5-1.4 2.7-1.4 1 0 1.9.3 2.5 1.2.4.6.4 1.2.4 1.9V87h-1v-5.4c0-1.5-.6-2.2-2.1-2.2-1.2 0-2 .8-2.3 1.6-.2.5-.2 1-.2 1.6V87h-1z"/>
        <path d="M267.2 82.2c.4 0 .9-.1 1.3-.3.3-.1.4-.6.4-.9 0-1-.6-1.7-2.1-1.7-1.3 0-2.2.4-2.4 1.9h-1c.1-2 1.6-2.7 3.4-2.7 1.7 0 3 .7 3 2.6v4.5c0 .8.2.9 1 .6v.8c-.1 0-.5.2-.8.2h-.4c-.6-.1-.8-.7-.8-1.2-.8.9-1.9 1.4-3.1 1.4-1.5 0-2.8-.8-2.8-2.4 0-1.4 1-2.2 2.9-2.5l1.4-.3zm1.7.5c-.8.3-1.6.4-2.5.5-1.5.1-2.3.6-2.3 1.8 0 1 .9 1.5 1.8 1.5 1.5 0 3-.7 3-2.4v-1.4z"/>
        <path d="M273.3 87h-1v-8.3h1v1.2c.8-.8 1.5-1.4 2.7-1.4 1 0 1.9.3 2.5 1.2.4.6.4 1.2.4 1.9V87h-1v-5.4c0-1.5-.6-2.2-2.1-2.2-1.2 0-2 .8-2.3 1.6-.2.5-.2 1-.2 1.6V87z"/>
        <path d="M292.1 78.7h1v7.5c0 2.2-.7 4.2-3.9 4.2-2.4 0-3.4-1.4-3.5-2.4h1c.3 1.2 1.3 1.5 2.5 1.5 2.6 0 3-2 2.9-3.9-.6 1-1.8 1.6-3 1.6-2.5 0-3.7-2.1-3.7-4.4 0-2.4 1.1-4.4 3.7-4.4 1.1 0 2.3.6 2.9 1.7v-1.4zm-2.8.7c-1.6 0-2.8 1.2-2.8 3.2-.1 2.1.8 3.8 2.8 3.8 1.7 0 2.8-1.6 2.8-3.5 0-2-1-3.5-2.8-3.5z"/>
        <path d="M299.3 82.2c.4 0 .9-.1 1.3-.3.3-.1.4-.6.4-.9 0-1-.6-1.7-2.1-1.7-1.3 0-2.2.4-2.4 1.9h-1c.1-2 1.6-2.7 3.4-2.7 1.7 0 3 .7 3 2.6v4.5c0 .8.2.9 1 .6v.8c-.1 0-.5.2-.8.2h-.4c-.6-.1-.8-.7-.8-1.2-.8.9-1.9 1.4-3.1 1.4-1.5 0-2.8-.8-2.8-2.4 0-1.4 1-2.2 2.9-2.5l1.4-.3zm1.6.5c-.8.3-1.6.4-2.5.5-1.5.1-2.3.6-2.3 1.8 0 1 .9 1.5 1.8 1.5 1.5 0 3-.7 3-2.4v-1.4z"/>
        <path d="M305.2 87h-1v-8.3h1V80c.5-.9 1.5-1.5 2.6-1.5 1.5 0 2.1.7 2.4 1.6.5-1.1 1.5-1.6 2.7-1.6 2.3 0 2.6 1.6 2.6 3.3V87h-1v-5.7c0-1.2-.4-1.9-1.8-1.9-.7 0-1.4.3-1.9.9-.4.5-.5 1.6-.5 2.2V87h-1v-5.7c0-1.2-.4-1.9-1.8-1.9-.7 0-1.4.3-1.9.9-.4.5-.5 1.6-.5 2.2V87z"/>
        <path d="M318.3 83.1c0 1.8.9 3.3 2.8 3.3 1.2 0 2.2-.7 2.5-1.9h1.1c-.5 1.6-1.5 2.8-3.6 2.8-2.7 0-3.8-1.9-3.8-4.3s1.4-4.4 3.8-4.4c2.3 0 3.7 1.6 3.6 4.6h-6.4zm5.4-.8c0-1.6-.9-2.9-2.6-2.9-1.7 0-2.6 1.4-2.8 2.9h5.4z"/>
        <path d="M327.1 84.4c.3 1.4 1 2 2.5 2 1.4 0 2-.7 2-1.5 0-2.4-5.3-.7-5.3-4 0-1.4 1.1-2.4 2.9-2.4 1.8 0 3 .7 3.2 2.6h-1c-.2-1.3-1-1.7-2.2-1.7-1.2 0-1.9.6-1.9 1.4 0 2.3 5.3.8 5.3 4 0 1.6-1.4 2.4-3.4 2.4s-3.1-1.2-3.2-2.8h1.1z"/>
        <path d="M335 87v-1.4h1.2V87H335z"/>
      </g>
    </g>
  </g>
  <g id="play-vs-prac" fill="#4167B0">
    <g>
      <path d="M35.2 10.9v3.3l-1.6 1.6h-3.7v2.7h1.2v1.3h-3.6v-1.3h1.1v-7.9h-1.1V9.3h6.1l1.6 1.6zm-5.3-.4v4.1H33l.9-.9v-2.3l-.9-.9h-3.1z"/>
      <path d="M43.8 10.7v3l-1.4 1.4h-.8l1.7 3.3h1v1.3H41v-1.3h.9l-1.7-3.3h-1.5v3.3h.9v1.3h-3.3v-1.3h1.1v-7.9h-1.1V9.3h6l1.5 1.4zm-5.1-.1v3.6h3.1l.8-.8v-2.1l-.8-.8h-3.1z"/>
      <path d="M52.7 18.5h1.2v1.3h-3.5v-1.3h.9l-.5-1.9h-3.2l-.5 1.9h.9v1.3h-3.2v-1.3H46l2.2-7.9H47V9.3h3.4l2.3 9.2zm-4.9-2.7h2.8l-1.4-5.1-1.4 5.1z"/>
      <path d="M61.2 12.8h-1.3v-1.5l-.8-.8h-2.4l-1 1v6l1 1H59l.8-.8V16h1.3v2.2l-1.6 1.6h-3.3L54.4 18v-7l1.7-1.8h3.5l1.5 1.5v2.1z"/>
      <path d="M69.8 12.3h-1.1v-1.9h-2.1v8h1.2v1.3H64v-1.3h1.2v-8h-2.1v1.9H62v-3h7.6v3z"/>
      <path d="M74.6 10.5h-1.1v7.9h1.1v1.3h-3.5v-1.3h1.1v-7.9h-1.1V9.3h3.5v1.2z"/>
      <path d="M83 12.8h-1.3v-1.5l-.8-.8h-2.4l-1 1v6l1 1h2.3l.8-.8V16H83v2.2l-1.6 1.6h-3.3L76.3 18v-7L78 9.3h3.5l1.5 1.5v2z"/>
      <path d="M91.7 12h-1.1v-1.4h-3.9v3.2h2.7v-.7h.9v2.4h-.9v-.7h-2.7v3.7h3.9v-1.4h1.1v2.7h-7.4v-1.3h1.1v-7.9h-1.1V9.3h7.4V12z"/>
    </g>
    <g>
      <path d="M1.6 61.8h3.3l1.6 1.6v3.7h2.7v-1.2h1.3v3.6H9.2v-1.1H1.3v1.1H0v-6.1l1.6-1.6zm-.3 5.3h4.1V64l-.9-.9H2.2l-.9.9v3.1z"/>
      <path d="M1.3 57.1v1.1h7.9v-3.8H7.6v-1.1h3v7.3H9.2v-1.1H1.3v1.1H0V57h1.3z"/>
      <path d="M9.2 44.9v-1.2h1.3v3.5H9.2v-.9l-1.9.5V50l1.9.5v-.9h1.3v3.2H9.2v-1.2l-7.9-2.2v1.2H0v-3.4l9.2-2.3zm-2.7 4.9V47l-5.1 1.4 5.1 1.4z"/>
      <path d="M1.3 36.6v1l5 2.4h3v-1.1h1.3v3.6H9.2v-1.1h-3l-5 2.4v1H0v-3.2h1.3v.8l4-1.8-4-1.8v.8H0v-3h1.3z"/>
    </g>
    <g>
      <path d="M8.8 19.9l-.8.9 5.8 8.8-1.3 1.5L3 26.6l-.8.9-1.1-.9 2.5-2.9 1.1.9-.7.8 7.9 3.8-4.8-7.3-.6.7-1.1-.9L7.7 19l1.1.9z"/>
      <path d="M14 14.2l1.2 1.1-.9 1.1-.8-.7-1.2.1-1.8 2 .1 1.2 1.5 1.4.9-.1 2.6-3 1.8-.2 2.8 2.4.2 2.4-2.6 3-2.4.2-1.6-1.4.9-1.1 1.2 1 1.3-.1 1.8-2-.1-1.2-1.8-1.6h-.9l-2.6 3-1.9.1-2.5-2.2-.2-2.3 2.6-3 2.4-.1z"/>
      <path d="M23.1 19l-.9 1-1.2-1.1.9-1 1.2 1.1z"/>
    </g>
  </g>
</svg>
