<svg id="Layer_1" xmlns="http://www.w3.org/2000/svg" width="95" height="97.9" viewBox="0 0 95 97.9"><style>.st0{fill:#4167B0;} .st1{fill:#FFFFFF;} .st2{fill:none;}</style><path class="st0" d="M47.5 0C21.3 0 0 22 0 49s21.3 49 47.5 49S95 76 95 49 73.7 0 47.5 0zm0 94.9C23 94.9 3 74.3 3 49 3 23.6 23 3 47.5 3S92 23.6 92 49c0 25.3-20 45.9-44.5 45.9z"/><path class="st1" d="M92 49c0 25.3-20 46-44.5 46C23 94.9 3 74.3 3 49 3 23.6 23 3 47.5 3S92 23.6 92 49z"/><g><path class="st1" d="M83.7 44.6L79 48.5v-9.4l4.3 5z"/><path class="st2" d="M83.7 44.6L79 48.5v-9l4.3 4.6z"/><path class="st2" d="M33.7 36.9v.2l-3.3 4.2z"/><path class="st1" d="M36 25.6l-2.5 5.8 2.5-.6v43.5l-5.1.2 3.4-38.2-.6.8v-.2l-3.3 4.4-1.4 1.8V26.4l7-2.1z"/><path class="st1" d="M48 28.1V74h-.3l-5.7.2V29.3l5.4-1.4.1.1z"/><path class="st1" d="M60 30.8v43.6l-6-.2V29.4z"/><path class="st1" d="M60 24.5v.6l-.3-.7z"/><path class="st1" d="M23 32.1v18.8l-1.5 1.9-4.5-3.7v-.2l1 .9V37.7l-1 1.1v-.1z"/><path class="st1" d="M18 49.8V37.7l-1 1.1v10.1z"/><path class="st1" d="M73 32.9v18.9l-7-9V26.3l1.4.5z"/><path d="M29 26.4v16.7l-6 7.8V32.1l4.9-5.3z"/><path d="M42 29.3v44.9l-6 .1V30.8z"/><path d="M36.7 24l-.7 1.6v-1.3z"/><path d="M54 29.4v44.8l-6-.2V28.1z"/><path d="M47.9 78.5h.1z"/><path d="M66 42.8l-5-6.5 3.4 38.2-4.4-.1V30.8l2.8.7-2.8-6.4v-.6l6 1.8z"/><path d="M79 39.5v9l-5.2 4.3-.8-1V32.9z"/><path class="st0" d="M83.3 44.1L79 39.5v-.4z"/><path class="st0" d="M30.4 41.3L29 43.2v-.1z"/><path class="st0" d="M88 44.9L69 24.2l-12.4-3.8-9.1 3.9-9.1-3.9L26 24.2 7 44.9l15 12.2 8.4-10.8-2.8 31.3 2.7-.1 5.8-.2 6-.2 5.5-.2h.5l6 .2 6 .2 4.7.1 3 .1L65 46.2 73.4 57 88 44.9zM54 25.5l3.5-1.3 1.9 4.4-5.4-1.3-3-.7 3-1.1zm-15.2-1.3l3.2 1.4 2.4 1-2.4.6-5.1 1.3 1.9-4.3zM66 42.8l-5-6.4 3.4 38.1-4.4-.1-6-.2-6-.2h-.3l-5.7.2-6 .2-5.1.2 3.4-38.2-.6.8-3.3 4.2-1.4 1.8v-.1l-6 7.7-1.5 1.9-4.5-3.6-5.4-4.5 5.4-5.9 6-6.6 4.9-5.3 1.1-.3 7-2.2.7-.2-.7 1.5-2.5 5.8 2.5-.6 6-1.5 5.4-1.3h.1l.5.1 6 1.4 6 1.4 2.8.6-2.8-6.4-.3-.7.3.1 6 1.8 1.4.4 5.6 6.1 6 6.6v-.3l4.3 5 .4.4-4.7 4-5.2 4.3-.8-1-7-9z"/><path d="M17 38.7v10.4l-5.4-4.5z"/><path d="M44.4 26.6l-2.4.6-5.1 1.3 1.9-4.3 3.2 1.4z"/><path d="M59.4 28.6L54 27.3l-3-.7 3-1.1 3.5-1.3z"/></g></svg>