<svg xmlns="http://www.w3.org/2000/svg" width="740.1" height="129.9" viewBox="-529 419.2 740.1 129.9">
  <g>
    <g>
      <path fill="#B3B3B3" d="M-479.8 516.3v6.9c0 4.5-4.6 7.6-8.8 6.1l-16.3-5.5c-2.6-.9-4.9-3.4-4.9-6.1v-11.6l5 1.5v10.1c0 .9.7 1.8 1.6 2.1l15.8 5.5c.2.1.3.1.5.1 1.1 0 2-.9 2-2.2v-8.4l5.1 1.5z"/>
    </g>
    <g>
      <path fill="#CCC" d="M-522.6 501.4l4.9 1.7c-1.1 1.4-2.5 2.2-4.1 2.2-4.1 0-7.2-5.6-7.2-13s3.1-13 7.2-13c1.5 0 2.9.8 4.1 2.2l-4.9 1.7c-.1 0-.3.1-.4.2-.1 0-.1.1-.2.1-.1.1-.2.2-.4.3l-.2.2h-.1c0 .1-.1.1-.1.2l-.2.2-.2.2c-.1.2-.2.3-.3.5-.1.1-.1.2-.1.3l-.3.6c0 .1-.1.2-.1.3-.1.2-.2.4-.2.6-.2.4-.3.9-.4 1.4-.1.2-.2.5-.2.8 0 .2-.1.3-.1.5v.3c0 .2-.1.5-.1.7s0 .5-.1.8v.9c0 4.6 1.6 8.4 3.7 9.1z"/>
    </g>
    <g>
      <path fill="#C33" d="M-452.1 458.4l-.1.1c-.2.4-.4.7-.6 1.1-.2.4-.4.7-.6 1.1-.3.5-.6 1.1-.8 1.7-.4.8-.7 1.6-1.1 2.4-1 2.5-1.9 5.2-2.6 8.1l-68 15.3c.1-.5.2-.9.4-1.4.1-.2.2-.4.2-.6 0-.1.1-.2.1-.3l.3-.6c.1-.1.1-.2.1-.3.1-.2.2-.3.3-.5.1-.1.1-.2.2-.2l.2-.2c.1 0 .2 0 .2-.1l.2-.2.2-.2c.1-.1.2-.2.4-.3.1 0 .1-.1.2-.1.1-.1.3-.1.4-.2l4.9-1.7 65.5-22.9z"/>
    </g>
    <g>
      <path fill="#C1272D" d="M-452.2 526.2l-70.4-24.8c-2.1-.7-3.7-4.6-3.7-9.2v-.9c0-.3 0-.5.1-.8 0-.2 0-.5.1-.7v-.3c0-.2.1-.3.1-.5 0-.3.1-.6.2-.8l67.8-15.3c-.4 1.5-.7 3-.9 4.5-.1.8-.3 1.6-.4 2.3l-.3 2.4c0 .3-.1.5-.1.8v.1c-.1.5-.1.9-.1 1.4v.1c0 .4-.1.8-.1 1.2 0 .4-.1.8-.1 1.3-.1.8-.1 1.7-.1 2.6-.3 5.8.1 11.6 1.1 17.2v.1c.1.4.1.7.2 1 .1.4.1.7.2 1.1 0 .2.1.4.1.7l.3 1.1c.2.7.3 1.3.5 2 .1.5.3 1 .4 1.5.2.5.3 1.1.5 1.6 1.2 3.7 2.7 7.1 4.6 10.3z"/>
    </g>
    <g>
      <path fill="#CCC" d="M-411.4 477.9c-1.2-7.2-3.5-14.4-7.5-20.5-3-4.5-7.2-8.6-12.6-9.9-1.2-.3-2.4-.5-3.7-.5-7.4 0-13.2 5.3-16.9 11.4l-.1.1c-.2.4-.4.7-.6 1.1l-.1.1c-.2.3-.4.7-.5 1-.3.5-.6 1.1-.8 1.7-.4.8-.7 1.6-1.1 2.4-1.1 2.6-2 5.4-2.6 8.1-.4 1.5-.7 3-.9 4.5-.1.8-.3 1.5-.4 2.3l-.3 2.4c0 .3-.1.5-.1.8v.1c-.1.5-.1.9-.1 1.4v.1c0 .4-.1.8-.1 1.2 0 .4-.1.8-.1 1.3 0 .8-.1 1.7-.1 2.6-.4 5.8 0 11.6 1 17.2v.1c.1.4.1.7.2 1 .1.4.1.7.2 1.1 0 .2.1.4.1.7l.3 1.1c.2.7.3 1.4.5 2 .1.5.3 1 .4 1.5.2.5.3 1.1.5 1.6 1.1 3.5 2.6 6.9 4.5 10 1.3 2 2.7 4 4.4 5.6 4.7 4.7 11.4 7.1 17.8 4.8 5.3-1.9 9.3-6.4 12.1-11.2 3.8-6.5 5.8-14 6.9-21.4 1.3-8.3 1.2-17.2-.3-25.8zm-5.5 25.7c-.9 6.3-2.6 12.8-5.8 18.4-2.1 3.8-5.3 7.8-9.7 9.2-.9.3-1.8.4-2.8.4-6.7 0-11.3-6.7-13.8-12.1-2.8-6.2-4.3-13-4.9-19.8-.6-7-.4-14 .8-20.9 1.1-6.2 3-12.4 6.3-17.7 3-4.8 8.2-9.4 14.3-7.6 4.4 1.3 7.5 5.3 9.7 9.2 3.1 5.6 4.8 11.9 5.8 18.2 1.1 7.4 1.1 15.2.1 22.7z"/>
    </g>
    <path d="M-416.9 503.6c-.9 6.3-2.6 12.8-5.8 18.4-2.1 3.8-5.3 7.8-9.7 9.2-.9.3-1.8.4-2.8.4-6.7 0-11.3-6.7-13.8-12.1-2.8-6.2-4.3-13-4.9-19.8-.6-7-.4-14 .8-20.9 1.1-6.2 3-12.4 6.3-17.7 3-4.8 8.2-9.4 14.3-7.6 4.4 1.3 7.5 5.3 9.7 9.2 3.1 5.6 4.8 11.9 5.8 18.2 1.1 7.4 1.1 15.2.1 22.7z"/>
  </g>
  <g>
    <path fill="#4167B0" d="M206.9 474.8H-435v34.5h641.9c2.3 0 4.2-1.9 4.2-4.2v-26.2c0-2.2-1.9-4.1-4.2-4.1z"/>
  </g>
  <g>
    <g>
      <path fill="#4167B0" d="M-349.7 420.2c-26.1 0-47.3 21.2-47.3 47.3 0 26.1 21.2 47.3 47.3 47.3 26.1 0 47.3-21.2 47.3-47.3.1-26.1-21.2-47.3-47.3-47.3zm0 91.7c-24.4 0-44.3-19.9-44.3-44.3s19.9-44.3 44.3-44.3 44.3 19.9 44.3 44.3c.1 24.4-19.8 44.3-44.3 44.3z"/>
      <path fill="#FFF" d="M-305.3 467.5c0 24.4-19.9 44.3-44.3 44.3s-44.3-19.9-44.3-44.3 19.9-44.3 44.3-44.3 44.3 19.9 44.3 44.3z"/>
      <path fill="#4167B0" d="M-313.8 454.5l-.4-.8h-53c-2.9 0-5.8.4-8.4 1.6-7.7 3.4-12.7 10.9-12.7 19.2 0 11.6 9.5 21 21.2 21 11.6 0 21.2-9.5 21.2-21.1l31.7-4.5.3-.4c.1-.3 3.7-5.4.1-15zm-2.4 12.8l-33.2 4.6.1 1.4c0 .4.1.8.1 1.2 0 10-8.1 18.1-18.1 18.1s-18.1-8.1-18.1-18.1c0-7.2 4.3-13.5 10.9-16.4 2.3-1 4.7-1.3 7.2-1.3h50.9c2.1 5.9.8 9.2.2 10.5z"/>
      <path fill="#D9F0FC" d="M-316.2 467.3l-33.2 4.6.1 1.4c0 .4.1.8.1 1.2 0 10-8.1 18.1-18.1 18.1s-18.1-8.1-18.1-18.1c0-7.2 4.3-13.5 10.9-16.4 2.3-1 4.7-1.3 7.2-1.3h50.9c2.1 5.9.8 9.2.2 10.5z"/>
    </g>
    <g fill="#1D2554">
      <path d="M-393.6 524.3v2.7l-1.3 1.3h-3v2.2h1v1.1h-3v-1.1h.9V524h-.9v-1.1h5l1.3 1.4zm-4.3-.3v3.3h2.5l.7-.7v-1.9l-.7-.7h-2.5z"/>
      <path d="M-386.5 524.1v2.5l-1.2 1.2h-.6l1.4 2.8h.8v1.1h-2.6v-1.1h.7l-1.4-2.8h-1.3v2.8h.8v1.1h-2.7v-1.1h.9V524h-.9v-1.1h4.9l1.2 1.2zm-4.2-.1v3h2.5l.6-.6v-1.7l-.6-.6h-2.5z"/>
      <path d="M-379.8 530.2l-1.4 1.4h-2.8l-1.4-1.4v-5.9l1.3-1.3h3l1.3 1.3v5.9zm-3.8-6.2l-.7.7v5.1l.8.8h2l.8-.8v-5.1l-.7-.7h-2.2z"/>
      <path d="M-372.4 524.3v2.7l-1.3 1.3h-3v2.2h1v1.1h-3v-1.1h.9V524h-.9v-1.1h5l1.3 1.4zm-4.3-.3v3.3h2.5l.7-.7v-1.9l-.7-.7h-2.5z"/>
      <path d="M-365.4 525.2h-.9V524h-3.2v2.6h2.2v-.6h.8v2h-.8v-.6h-2.2v3.1h3.2v-1.2h.9v2.2h-6.1v-1.1h.9V524h-.9v-1.1h6v2.3z"/>
      <path d="M-358.2 524.1v2.5l-1.2 1.2h-.6l1.4 2.8h.8v1.1h-2.6v-1.1h.7l-1.4-2.8h-1.3v2.8h.8v1.1h-2.7v-1.1h.9V524h-.9v-1.1h4.9l1.2 1.2zm-4.1-.1v3h2.5l.6-.6v-1.7l-.6-.6h-2.5z"/>
      <path d="M-347.6 525.8h-1.1v-1.2l-.6-.6h-2l-.8.8v4.9l.8.8h1.9l.7-.7v-1.4h1.1v1.8l-1.3 1.3h-2.7l-1.5-1.5v-5.7l1.4-1.5h2.9l1.2 1.2v1.8z"/>
      <path d="M-340.8 530.2l-1.4 1.4h-2.8l-1.4-1.4v-5.9l1.3-1.3h3l1.3 1.3v5.9zm-3.9-6.2l-.7.7v5.1l.8.8h2l.8-.8v-5.1l-.7-.7h-2.2z"/>
      <path d="M-333.9 530.5h1v1.1h-2.9v-1.1h.8l-.4-1.6h-2.6l-.4 1.6h.7v1.1h-2.6v-1.1h.9l1.8-6.5h-1v-1.1h2.8l1.9 7.6zm-4-2.2h2.3l-1.1-4.2-1.2 4.2z"/>
      <path d="M-327 525.8h-1.1v-1.2l-.6-.6h-2l-.8.8v4.9l.8.8h1.9l.7-.7v-1.4h1.1v1.8l-1.3 1.3h-2.7l-1.5-1.5v-5.7l1.4-1.5h2.9l1.2 1.2v1.8z"/>
      <path d="M-318.7 524h-.9v6.5h.9v1.1h-2.7v-1.1h.8v-3.1h-3.3v3.1h.8v1.1h-2.7v-1.1h.9V524h-.9v-1.1h2.7v1.1h-.8v2.6h3.3V524h-.8v-1.1h2.7v1.1z"/>
      <path d="M-314.5 524h-.9v6.5h.9v1.1h-2.9v-1.1h.9V524h-.9v-1.1h2.9v1.1z"/>
      <path d="M-305.7 524h-.9v7.6h-1l-3.6-7.2v6.1h.8v1.1h-2.6v-1.1h.9V524h-.9v-1.1h2.3l3.2 6.6V524h-.8v-1.1h2.6v1.1z"/>
      <path d="M-299.3 525.7h-1.1v-1.1l-.6-.6h-2.1l-.8.8v4.9l.8.8h1.8l.9-.9v-1.9h-1.6v-.7h2.7v4.6h-1v-1l-1 1h-2.1l-1.5-1.5v-5.7l1.4-1.5h3l1.2 1.2v1.6z"/>
    </g>
  </g>
  <g>
    <g>
      <path fill="#4167B0" d="M-186.5 419.2c-26.2 0-47.5 22-47.5 49s21.3 49 47.5 49 47.5-22 47.5-49-21.3-49-47.5-49zm0 94.9c-24.5 0-44.5-20.6-44.5-46 0-25.3 20-46 44.5-46s44.5 20.6 44.5 46-20 46-44.5 46z"/>
      <path fill="#FFF" d="M-142 468.2c0 25.3-20 46-44.5 46s-44.5-20.6-44.5-46c0-25.3 20-46 44.5-46s44.5 20.6 44.5 46z"/>
      <path fill="#4167B0" d="M-180.1 433.7H-193c-4.1 0-8 3.1-8 7.2v15.8h28v-15.8c0-4.1-3-7.2-7.1-7.2zm-18.9 21v-13.8c0-3 3-5.2 6-5.2h12.9c3 0 5.1 2.2 5.1 5.2v13.8h-24z"/>
      <path fill="#F05623" d="M-175 440.9v13.8h-24v-13.8c0-3 3-5.2 6-5.2h12.9c3 0 5.1 2.2 5.1 5.2z"/>
      <path fill="#4167B0" d="M-201 480.7v15.4c0 4.1 3.9 7.6 8 7.6h12.9c4.1 0 7.1-3.5 7.1-7.6v-15.4h-28zm26 15.4c0 3-2.1 5.6-5.1 5.6H-193c-3 0-6-2.6-6-5.6v-13.4h24v13.4z"/>
      <path fill="#F05623" d="M-175 482.7v13.4c0 3-2.1 5.6-5.1 5.6H-193c-3 0-6-2.6-6-5.6v-13.4h24z"/>
      <path fill="#4167B0" d="M-159.4 454.7h-54.4c-4.3 0-8.2 3.4-8.2 7.7v12.2c0 4.3 3.9 8.1 8.2 8.1h54.4c4.3 0 7.4-3.8 7.4-8.1v-12.2c0-4.3-3-7.7-7.4-7.7zm5.4 19.9c0 3.2-2.1 6.1-5.4 6.1h-54.4c-3.2 0-6.2-2.9-6.2-6.1v-12.2c0-3.2 3-5.7 6.2-5.7h54.4c3.2 0 5.4 2.5 5.4 5.7v12.2z"/>
      <path fill="#F05623" d="M-159.4 456.7h-54.4c-3.2 0-6.2 2.5-6.2 5.7v12.2c0 3.2 3 6.1 6.2 6.1h54.4c3.2 0 5.4-2.9 5.4-6.1v-12.2c0-3.2-2.1-5.7-5.4-5.7zm-16.6 16.5c0 3.6-2.9 6.5-6.5 6.5h-8c-3.6 0-6.5-2.9-6.5-6.5v-9c0-3.6 2.9-6.5 6.5-6.5h8c3.6 0 6.5 2.9 6.5 6.5v9z"/>
      <path fill="#4167B0" d="M-176 464.2c0-3.6-2.9-6.5-6.5-6.5h-8c-3.6 0-6.5 2.9-6.5 6.5v9c0 3.6 2.9 6.5 6.5 6.5h8c3.6 0 6.5-2.9 6.5-6.5v-9zm-2 8.5c0 2.5-1.9 5-4.3 5h-8.5c-2.5 0-4.2-2.5-4.2-5v-9.1c0-2.5 1.7-3.9 4.2-3.9h8.5c2.5 0 4.3 1.5 4.3 3.9v9.1z"/>
      <path fill="#F05623" d="M-178 463.6v9.1c0 2.5-1.9 5-4.3 5h-8.5c-2.5 0-4.2-2.5-4.2-5v-9.1c0-2.5 1.7-3.9 4.2-3.9h8.5c2.4 0 4.3 1.5 4.3 3.9z"/>
    </g>
    <g fill="#1D2554">
      <path d="M-213.7 524.2v2.7l-1.3 1.3h-3v2.2h1v1.1h-3v-1.1h.9V524h-.9v-1.1h5l1.3 1.3zm-4.3-.2v3.4h2.6l.7-.7v-1.9l-.7-.7h-2.6z"/>
      <path d="M-206.5 524.1v2.5l-1.2 1.2h-.6l1.4 2.8h.8v1.1h-2.7v-1.1h.7l-1.4-2.8h-1.3v2.8h.8v1.1h-2.7v-1.1h.9V524h-.9v-1.1h5l1.2 1.2zm-4.3-.1v3h2.5l.6-.6v-1.7l-.6-.6h-2.5z"/>
      <path d="M-199.2 525.1h-.9V524h-3.2v2.6h2.2v-.6h.8v2h-.8v-.6h-2.2v3.1h3.2v-1.2h.9v2.2h-6.1v-1.1h.9V524h-.9v-1.1h6.1v2.2z"/>
      <path d="M-195.5 527.5h-3v-.7h3v.7z"/>
      <path d="M-189.5 524.1v1.2h-1.1v-.8l-.6-.6h-2l-.6.6v1.5l.5.4h3l1 1v2.7l-1.3 1.3h-2.9l-1.3-1.3v-1.6h1.1v1.1l.7.7h2l.7-.7v-1.8l-.4-.5h-3l-1-1v-2.5l1.2-1.2h3l1 1.5z"/>
      <path d="M-182.2 525.1h-.9V524h-3.2v2.6h2.2v-.6h.8v2h-.8v-.6h-2.2v3.1h3.2v-1.2h.9v2.2h-6.1v-1.1h.9V524h-.9v-1.1h6.1v2.2z"/>
      <path d="M-174.9 530.5h1v1.1h-2.9v-1.1h.8l-.4-1.6h-2.6l-.4 1.6h.7v1.1h-2.7v-1.1h1l1.8-6.6h-1v-1.1h2.8l1.9 7.7zm-4.1-2.2h2.3l-1.1-4.2-1.2 4.2z"/>
      <path d="M-168.1 524.1v1.2h-1.1v-.8l-.6-.6h-2l-.6.6v1.5l.5.4h3l1 1v2.7l-1.3 1.3h-2.9l-1.3-1.3v-1.6h1.1v1.1l.7.7h2l.7-.7v-1.8l-.4-.5h-3l-1-1v-2.5l1.2-1.2h3l1 1.5z"/>
      <path d="M-161.3 530.2l-1.4 1.4h-2.9l-1.4-1.4v-6l1.3-1.3h3l1.3 1.3v6zm-3.9-6.2l-.7.7v5.1l.8.8h2l.8-.8v-5.1l-.7-.7h-2.2z"/>
      <path d="M-152.7 524h-.9v7.6h-1.1l-3.6-7.2v6.1h.8v1.1h-2.6v-1.1h.9V524h-.9v-1.1h2.3l3.3 6.6V524h-.8v-1.1h2.6v1.1z"/>
      <path d="M-228 539.2v2.7l-1.3 1.3h-3v2.2h1v1.1h-3v-1.1h.9v-6.6h-.9v-1.1h5l1.3 1.5zm-4.4-.3v3.4h2.6l.7-.7v-1.9l-.7-.7h-2.6z"/>
      <path d="M-219.8 538.9h-.9v6.6h.9v1.1h-2.8v-1.1h.8v-3.1h-3.3v3.1h.8v1.1h-2.8v-1.1h.9v-6.6h-.9v-1.1h2.8v1.1h-.8v2.6h3.3v-2.6h-.8v-1.1h2.8v1.1z"/>
      <path d="M-212.4 538.9h-.8l-2 4.1v2.5h.9v1.1h-3v-1.1h.9V543l-2-4.1h-.8v-1.1h2.7v1.1h-.7l1.5 3.3 1.5-3.3h-.7v-1.1h2.5v1.1z"/>
      <path d="M-206.6 539v1.2h-1.1v-.8l-.6-.6h-2l-.6.6v1.5l.5.4h3l1 1v2.7l-1.3 1.3h-2.9l-1.3-1.3v-1.6h1.1v1.1l.7.7h2l.7-.7V543l-.4-.5h-3l-1-1V539l1.2-1.2h3l1 1.2z"/>
      <path d="M-202.3 538.9h-.9v6.6h.9v1.1h-2.9v-1.1h.9v-6.6h-.9v-1.1h2.9v1.1z"/>
      <path d="M-195.4 540.7h-1.1v-1.2l-.6-.6h-2l-.8.8v4.9l.8.8h1.9l.7-.7v-1.4h1.1v1.8l-1.3 1.3h-2.7l-1.5-1.5v-5.7l1.4-1.5h2.9l1.2 1.2v1.8z"/>
      <path d="M-188.3 545.5h1v1.1h-2.9v-1.1h.8l-.4-1.6h-2.6l-.4 1.6h.7v1.1h-2.7v-1.1h1l1.8-6.6h-1v-1.1h2.8l1.9 7.7zm-4.1-2.3h2.3l-1.1-4.2-1.2 4.2z"/>
      <path d="M-183.7 538.9h-.9v6.6h3.2v-1.4h.9v2.5h-6.1v-1.1h.9v-6.6h-.9v-1.1h2.9v1.1z"/>
      <path d="M-169.6 540.1h-.9v-1.2h-3.2v2.6h2.2v-.5h.8v2h-.8v-.6h-2.2v3.1h3.2v-1.2h.9v2.2h-6.1v-1.1h.9v-6.6h-.9v-1.1h6.1v2.4z"/>
      <path d="M-162 538.9h-.8l-1.9 3.2 2 3.3h.8v1.1h-3v-1.1h.9l-1.6-2.7-1.5 2.7h.8v1.1h-2.6v-1.1h.7l2.1-3.5-1.8-3.1h-.9v-1.1h2.9v1.1h-.7l1.5 2.5 1.4-2.5h-.7v-1.1h2.5v1.2z"/>
      <path d="M-155 545.5h1v1.1h-2.9v-1.1h.8l-.4-1.6h-2.6l-.4 1.6h.7v1.1h-2.7v-1.1h1l1.8-6.6h-1v-1.1h2.8l1.9 7.7zm-4-2.3h2.3l-1.1-4.2-1.2 4.2z"/>
      <path d="M-145.2 538.9h-.9v6.6h.9v1.1h-2.9v-1.1h1v-6.1l-1.8 3.3h-.6l-1.8-3.3v6.1h1v1.1h-2.9v-1.1h.9v-6.6h-.9v-1.1h2.2l1.9 3.4 1.9-3.4h2.1v1.1z"/>
      <path d="M-138.7 539v1.2h-1.1v-.8l-.6-.6h-2l-.6.6v1.5l.5.4h3l1 1v2.7l-1.3 1.3h-2.9l-1.3-1.3v-1.6h1.1v1.1l.7.7h2l.7-.7V543l-.4-.5h-3l-1-1V539l1.2-1.2h3l1 1.2z"/>
    </g>
  </g>
  <g>
    <g>
      <path fill="#4167B0" d="M-14.5 419.2c-26.2 0-47.5 22-47.5 49s21.3 49 47.5 49 47.5-22 47.5-49-21.3-49-47.5-49zm0 94.9c-24.5 0-44.5-20.6-44.5-46 0-25.3 20-46 44.5-46s44.5 20.6 44.5 46-20 46-44.5 46z"/>
      <path fill="#FFF" d="M30 468.2c0 25.3-20 46-44.5 46s-44.5-20.6-44.5-46c0-25.3 20-46 44.5-46s44.5 20.6 44.5 46z"/>
      <g>
        <path fill="#FFF" d="M21.6 463.8l-4.6 3.9v-9.4l4.3 5 .3.5z"/>
        <path fill="none" d="M21.6 463.8l-4.6 3.9v-9l4.3 4.6.3.5z"/>
        <path fill="none" d="M-28.4 456.1v.2l-3.2 4.2 3.2-4.4z"/>
        <path fill="#FFF" d="M-26 444.8l-2.5 5.8 2.5-.6v43.5l-5.1.2 3.3-38.2-.6.8v-.2l-3.2 4.4-1.4 1.8v-16.7l7-2.1v1.3z"/>
        <path fill="#FFF" d="M-14 447.3v45.9h-.3l-5.7.2v-44.9l5.4-1.4.1.1.5.1z"/>
        <path fill="#FFF" d="M-2 450v43.6l-6-.2v-44.8l6 1.4z"/>
        <path fill="#FFF" d="M-2 443.7v.6l-.3-.7.3.1z"/>
        <path fill="#FFF" d="M-39 451.3v18.8l-1.5 1.9-4.5-3.7v-.2l1 .9v-12.1l-1 1.1v-.1l6-6.6z"/>
        <path fill="#FFF" d="M-44 469v-12.1l-1 1.1v10.1l1 .9z"/>
        <path fill="#FFF" d="M11 452.1V471l-7-9v-16.5l1.4.5 5.6 6.1z"/>
        <path d="M-33 445.6v16.7l-6 7.8v-18.8l4.9-5.3 1.1-.4z"/>
        <path d="M-20 448.5v44.9l-6 .1V450l6-1.5z"/>
        <path d="M-25.3 443.2l-.7 1.6v-1.3l.7-.3z"/>
        <path d="M-8 448.6v44.8l-6-.2v-45.9l6 1.3z"/>
        <path d="M-14.2 497.7h.2-.2z"/>
        <path d="M4 462l-5-6.5 3.4 38.2-4.4-.1V450l2.8.7-2.8-6.4v-.6l6 1.8V462z"/>
        <path d="M17 458.7v9l-5.2 4.3-.8-1v-18.9l6 6.6z"/>
        <path fill="#4167B0" d="M21.3 463.3l-4.3-4.6v-.4l4.3 5z"/>
        <path fill="#4167B0" d="M-31.6 460.5l-1.4 1.9v-.1l1.4-1.8z"/>
        <path fill="#4167B0" d="M26 464.1L7 443.4l-12.4-3.8-9.1 3.9-9.1-3.9-12.4 3.8-19 20.7 14.7 12.2 8.4-10.8-2.8 31.3 2.7-.1 5.8-.2 6 .1 5.5.1h.2l.3-.2 6 .1 6 .1 4.7.1 3 .1-2.8-31.3 8.4 10.8L26 464.1zm-34-19.4l3.5-1.3 1.9 4.4-5.4-1.2-3-.7 3-1.2zm-15.2-1.3l3.2 1.4 2.4 1-2.4.6-5.1 1.3 1.9-4.3zM4 462l-5-6.4 3.4 38.1-4.4-.1-6-.2-6-.2h-.3l-5.7.2-6 .2-5.1.2 3.4-38.2-.6.8-3.2 4.2-1.4 1.9v-.1l-6 7.7-1.5 1.9-4.5-3.7-5.4-4.5 5.4-5.9 6-6.6 4.9-5.3 1.1-.3 7-2.2.7-.2-.7 1.6-2.5 5.8 2.5-.6 6-1.5 5.4-1.3h.1l.5.1 6 1.4 6 1.4 2.8.6-2.8-6.4-.3-.7.3.1 6 1.8 1.4.4 5.6 6.1 6 6.6v-.3l4.3 5 .4.4-4.8 3.9-5.2 4.3-.8-1-7-9z"/>
        <path d="M-45 457.9v10.4l-5.4-4.5 5.4-5.9z"/>
        <path d="M-17.6 445.8l-2.4.6-5.1 1.3 1.9-4.3 3.2 1.4 2.4 1z"/>
        <path d="M-2.7 447.8l-5.3-1.3-3.1-.7 3.1-1.1 3.4-1.3 1.9 4.4z"/>
      </g>
    </g>
    <g fill="#1D2554">
      <path d="M-66.3 524.2v2.7l-1.3 1.3h-3v2.2h1v1.1h-3v-1.1h.9V524h-.9v-1.1h5l1.3 1.3zm-4.3-.2v3.4h2.6l.7-.7v-1.9l-.7-.7h-2.6z"/>
      <path d="M-59.1 524.1v2.5l-1.2 1.2h-.7l1.4 2.8h.8v1.1h-2.7v-1.1h.7l-1.4-2.8h-1.3v2.8h.8v1.1h-2.7v-1.1h.9V524h-.9v-1.1h5l1.3 1.2zm-4.3-.1v3h2.5l.6-.6v-1.7l-.6-.6h-2.5z"/>
      <path d="M-52.3 530.2l-1.4 1.4h-2.9l-1.4-1.4v-6l1.3-1.3h3l1.3 1.3v6zm-3.9-6.2l-.7.7v5.1l.8.8h2l.8-.8v-5.1l-.7-.7h-2.2z"/>
      <path d="M-44.8 524.2v2.7l-1.3 1.3h-3v2.2h1v1.1h-3v-1.1h.9V524h-.9v-1.1h5l1.3 1.3zm-4.4-.2v3.4h2.6l.7-.7v-1.9l-.7-.7h-2.6z"/>
      <path d="M-37.8 525.1h-.9V524h-3.2v2.6h2.2v-.6h.8v2h-.8v-.6h-2.2v3.1h3.2v-1.2h.9v2.2h-6.1v-1.1h.9V524h-.9v-1.1h6.1v2.2z"/>
      <path d="M-30.4 524.1v2.5l-1.2 1.2h-.6l1.4 2.8h.8v1.1h-2.7v-1.1h.7l-1.4-2.8h-1.3v2.8h.8v1.1h-2.7v-1.1h.9V524h-.9v-1.1h5l1.2 1.2zm-4.3-.1v3h2.5l.6-.6v-1.7l-.6-.6h-2.5z"/>
      <path d="M-19.6 530.2l-1.4 1.4h-2.9l-1.4-1.4v-6l1.3-1.3h3l1.3 1.3v6zm-3.9-6.2l-.7.7v5.1l.8.8h2l.8-.8v-5.1l-.7-.7h-2.2z"/>
      <path d="M-12.4 525.2h-.9V524h-3.2v2.8h2.5v-.6h.8v2h-.8v-.6h-2.5v2.9h1v1.1h-3v-1.1h.9V524h-.9v-1.1h6.1v2.3z"/>
      <path d="M-5.3 525.2h-.9V524h-3.2v2.8h2.5v-.6h.8v2h-.8v-.6h-2.5v2.9h1v1.1h-3v-1.1h.9V524h-.9v-1.1h6.1v2.3z"/>
      <path d="M-1.3 524h-.9v6.6h.9v1.1h-2.9v-1.1h.9V524h-.9v-1.1h2.9v1.1z"/>
      <path d="M5.7 525.8H4.6v-1.2L4 524H2l-.8.8v4.9l.8.8h1.9l.7-.7v-1.4h1.1v1.8l-1.3 1.3H1.6L.1 530v-5.7l1.4-1.5h2.9l1.2 1.2v1.8z"/>
      <path d="M10 524H9v6.6h1v1.1H7.1v-1.1H8V524h-.9v-1.1H10v1.1z"/>
      <path d="M17.5 530.5h1v1.1h-2.9v-1.1h.8l-.4-1.6h-2.6l-.4 1.6h.7v1.1H11v-1.1h1l1.8-6.6h-1v-1.1h2.8l1.9 7.7zm-4.1-2.2h2.3l-1.1-4.2-1.2 4.2z"/>
      <path d="M24.4 525.4h-.9v-1.5h-1.7v6.6h1v1.1h-3.1v-1.1h1v-6.6H19v1.5h-1v-2.5h6.3v2.5z"/>
      <path d="M28.3 524h-.9v6.6h.9v1.1h-2.9v-1.1h.9V524h-.9v-1.1h2.9v1.1z"/>
      <path d="M37.2 524h-.9v7.6h-1.1l-3.6-7.2v6.1h.8v1.1h-2.6v-1.1h.9V524h-.9v-1.1H32l3.3 6.6V524h-.8v-1.1h2.6v1.1z"/>
      <path d="M43.7 525.7h-1.1v-1.1l-.6-.6h-2.1l-.8.8v4.9l.8.8h1.8l.9-.9v-1.9H41v-.7h2.7v4.6h-1v-1l-1 1h-2.1l-1.5-1.5v-5.7l1.5-1.5h3l1.2 1.2v1.6z"/>
    </g>
  </g>
  <g>
    <g>
      <path fill="#4167B0" d="M163.4 419.2c-26.2 0-47.5 22-47.5 49s21.3 49 47.5 49 47.5-22 47.5-49-21.3-49-47.5-49zm0 94.9c-24.5 0-44.5-20.6-44.5-46 0-25.3 20-46 44.5-46s44.5 20.6 44.5 46-19.9 46-44.5 46z"/>
      <path fill="#FFF" d="M175 453.7h-21v-9h9v-7h4v7h8v9z"/>
      <path fill="#FFF" d="M174.8 459.7c4.1 20-.8 36.7-1.9 40.1l-19 .1c-5.8-20.5-1.3-37.2-.3-40.2h21.2z"/>
      <path fill="#FFF" d="M163.4 422.2c-24.5 0-44.5 20.6-44.5 46 0 25.3 20 46 44.5 46s44.5-20.6 44.5-46-19.9-46-44.5-46zm11.2 78.7l-.2.7-21.9-.1-.2-.7c-7-24-.5-42.2-.2-42.9l.3-.7h4.7v-1.5h-5v-13h9v-7h8v7h8v13h-5v1.5h4.5l.1.8c4.9 23.7-2.1 42.7-2.1 42.9z"/>
      <path fill="#4167B0" d="M176.6 458l-.1-.8H172v-1.5h5v-13h-8v-7h-8v7h-9v13h5v1.5h-4.7l-.3.7c-.3.8-6.8 19 .2 42.9l.2.7 21.9.1.2-.7c.1-.2 7.1-19.2 2.1-42.9zm-22.6-4.3v-9h9v-7h4v7h8v9h-21zm18.9 46.1l-19 .1c-5.8-20.5-1.3-37.2-.3-40.2h21.1c4.2 20-.7 36.7-1.8 40.1z"/>
      <path fill="#CC2036" d="M175 444.7v9h-21v-9h9v-7h4v7h8z"/>
      <path fill="#2BBCED" d="M172.9 499.8l-19 .1c-5.8-20.5-1.3-37.2-.3-40.2h21.1c4.2 20-.7 36.7-1.8 40.1z"/>
    </g>
    <g fill="#1D2554">
      <path d="M141.8 530.5h1v1.1H140v-1.1h.8l-.4-1.6h-2.6l-.4 1.6h.7v1.1h-2.6v-1.1h.9l1.8-6.5h-1v-1.1h2.8l1.8 7.6zm-4-2.2h2.3l-1.1-4.2-1.2 4.2z"/>
      <path d="M149.9 529.9l-1.7 1.7h-4.6v-1.1h.9V524h-.9v-1.1h4.7l1.7 1.7v5.3zm-4.4-5.9v6.5h2.3l1-1V525l-1-1h-2.3z"/>
      <path d="M157.1 525.2h-.9V524H153v2.6h2.2v-.6h.8v2h-.8v-.6H153v3.1h3.2v-1.2h.9v2.2H151v-1.1h.9V524h-.9v-1.1h6v2.3z"/>
      <path d="M163.8 530.2l-1.4 1.4h-.9v1.2h-.9v-1.2h-1l-1.4-1.4v-5.9l1.3-1.3h3l1.3 1.3v5.9zm-3.9-6.2l-.7.7v5.1l.7.7h.6v-1.1h.9v1.1h.5l.7-.7v-5.1l-.6-.7h-2.1z"/>
      <path d="M171.7 524h-.9v6.3l-1.3 1.3h-2.8l-1.3-1.3V524h-.9v-1.1h2.7v1.1h-.8v5.8l.7.8h1.8l.7-.8V524h-.6v-1.1h2.7v1.1z"/>
      <path d="M178 530.5h1v1.1h-2.9v-1.1h.8l-.4-1.6h-2.6l-.4 1.6h.7v1.1h-2.6v-1.1h.9l1.8-6.5h-1v-1.1h2.8l1.9 7.6zm-4-2.2h2.3l-1.1-4.2-1.2 4.2z"/>
      <path d="M184.8 525.5h-.9V524h-1.7v6.6h1v1.1h-3.1v-1.1h1V524h-1.7v1.5h-.9V523h6.2v2.5z"/>
      <path d="M191.6 525.2h-.9V524h-3.2v2.6h2.2v-.6h.8v2h-.8v-.6h-2.2v3.1h3.2v-1.2h.9v2.2h-6.1v-1.1h.9V524h-.9v-1.1h6v2.3z"/>
      <path d="M139.9 538.9h-.9v6.5h.9v1.1h-2.7v-1.1h.8v-3.1h-3.3v3.1h.8v1.1h-2.7v-1.1h.9v-6.5h-.9v-1.1h2.7v1.1h-.8v2.6h3.3v-2.6h-.8v-1.1h2.7v1.1z"/>
      <path d="M147.2 538.9h-.8l-1.9 4.1v2.4h.9v1.1h-2.9v-1.1h.9V543l-2-4.1h-.8v-1.1h2.6v1.1h-.7l1.4 3.3 1.5-3.3h-.7v-1.1h2.5v1.1z"/>
      <path d="M154.3 544.7l-1.7 1.7H148v-1.1h.9v-6.5h-.9v-1.1h4.7l1.7 1.7v5.3zm-4.4-5.8v6.5h2.3l1-1v-4.5l-1-1h-2.3z"/>
      <path d="M161.6 539v2.5l-1.2 1.2h-.6l1.4 2.8h.8v1.1h-2.6v-1.1h.7l-1.4-2.8h-1.3v2.8h.8v1.1h-2.7v-1.1h.9V539h-.9v-1.1h4.9l1.2 1.1zm-4.2-.1v3h2.5l.6-.6v-1.7l-.6-.6h-2.5z"/>
      <path d="M168.8 545.4h1v1.1h-2.9v-1.1h.8l-.4-1.6h-2.6l-.4 1.6h.7v1.1h-2.6v-1.1h.9l1.8-6.5h-1v-1.1h2.8l1.9 7.6zm-4-2.2h2.3L166 539l-1.2 4.2z"/>
      <path d="M175.6 540.3h-.9v-1.5H173v6.6h1v1.1h-3.1v-1.1h1v-6.6h-1.7v1.5h-.9v-2.5h6.2v2.5z"/>
      <path d="M179.5 538.9h-.9v6.5h.9v1.1h-2.9v-1.1h.9v-6.5h-.9v-1.1h2.9v1.1z"/>
      <path d="M186.5 545.1l-1.4 1.4h-2.8l-1.4-1.4v-5.9l1.3-1.3h3l1.3 1.3v5.9zm-3.9-6.2l-.7.7v5.1l.8.8h2l.8-.8v-5.1l-.7-.7h-2.2z"/>
      <path d="M195 538.9h-.9v7.6h-1l-3.6-7.2v6.1h.8v1.1h-2.6v-1.1h.9v-6.5h-.9v-1.1h2.3l3.2 6.6v-5.5h-.8v-1.1h2.6v1.1z"/>
    </g>
  </g>
</svg>
