<svg xmlns="http://www.w3.org/2000/svg" id="Layer_1" width="739.9" height="139.5" viewBox="-420 186.5 739.9 139.5">
  <style>
    .st0{fill:#B3B3B3;} .st1{fill:#CCCCCC;} .st2{fill:#CC3333;} .st3{fill:#C1272D;} .st4{fill:#4167B0;} .st5{fill:#FFFFFF;} .st6{fill:#D9F0FC;} .st7{fill:#F05623;} .st8{fill:none;} .st9{fill:#CC2036;} .st10{fill:#2BBCED;}
  </style>
  <g id="red-speaker">
    <g>
      <path d="M-370.8 304.8v6.9c0 4.5-4.6 7.6-8.8 6.1l-16.3-5.5c-2.6-.9-4.9-3.4-4.9-6.1v-11.6l5 1.5v10.1c0 .9.7 1.8 1.6 2.1l15.8 5.5c.2.1.3.1.5.1 1.1 0 2-.9 2-2.2v-8.4l5.1 1.5z" class="st0"/>
    </g>
    <g>
      <path d="M-413.6 289.9l4.9 1.7c-1.1 1.4-2.5 2.2-4.1 2.2-4.1 0-7.2-5.6-7.2-13s3.1-13 7.2-13c1.5 0 2.9.8 4.1 2.2l-4.9 1.7c-.1 0-.3.1-.4.2-.1 0-.1.1-.2.1-.1.1-.2.2-.4.3l-.2.2h-.1c0 .1-.1.1-.1.2l-.2.2-.2.2c-.1.2-.2.3-.3.5-.1.1-.1.2-.1.3l-.3.6c0 .1-.1.2-.1.3-.1.2-.2.4-.2.6-.2.4-.3.9-.4 1.4-.1.2-.2.5-.2.8 0 .2-.1.3-.1.5v.3c0 .2-.1.5-.1.7 0 .2 0 .5-.1.8v.9c0 4.6 1.6 8.4 3.7 9.1z" class="st1"/>
    </g>
    <g>
      <path d="M-343.1 246.9l-.1.1c-.2.4-.4.7-.6 1.1-.2.4-.4.7-.6 1.1-.3.5-.6 1.1-.8 1.7-.4.8-.7 1.6-1.1 2.4-1 2.5-1.9 5.2-2.6 8.1l-68 15.3c.1-.5.2-.9.4-1.4.1-.2.2-.4.2-.6 0-.1.1-.2.1-.3l.3-.6c.1-.1.1-.2.1-.3.1-.2.2-.3.3-.5.1-.1.1-.2.2-.2l.2-.2c.1 0 .2 0 .2-.1l.2-.2.2-.2c.1-.1.2-.2.4-.3.1 0 .1-.1.2-.1.1-.1.3-.1.4-.2l4.9-1.7 65.5-22.9z" class="st2"/>
    </g>
    <g>
      <path d="M-343.2 314.7l-70.4-24.8c-2.1-.7-3.7-4.6-3.7-9.2v-.9c0-.3 0-.5.1-.8 0-.2 0-.5.1-.7v-.3c0-.2.1-.3.1-.5 0-.3.1-.6.2-.8l67.8-15.3c-.4 1.5-.7 3-.9 4.5-.1.8-.3 1.6-.4 2.3l-.3 2.4c0 .3-.1.5-.1.8v.1c-.1.5-.1.9-.1 1.4v.1c0 .4-.1.8-.1 1.2 0 .4-.1.8-.1 1.3-.1.8-.1 1.7-.1 2.6-.3 5.8.1 11.6 1.1 17.2v.1c.1.4.1.7.2 1 .1.4.1.7.2 1.1 0 .2.1.4.1.7l.3 1.1c.2.7.3 1.3.5 2 .1.5.3 1 .4 1.5.2.5.3 1.1.5 1.6 1.2 3.7 2.7 7.1 4.6 10.3z" class="st3"/>
    </g>
    <g>
      <path d="M-302.4 266.4c-1.2-7.2-3.5-14.4-7.5-20.5-3-4.5-7.2-8.6-12.6-9.9-1.2-.3-2.4-.5-3.7-.5-7.4 0-13.2 5.3-16.9 11.4l-.1.1c-.2.4-.4.7-.6 1.1l-.1.1c-.2.3-.4.7-.5 1-.3.5-.6 1.1-.8 1.7-.4.8-.7 1.6-1.1 2.4-1.1 2.6-2 5.4-2.6 8.1-.4 1.5-.7 3-.9 4.5-.1.8-.3 1.5-.4 2.3l-.3 2.4c0 .3-.1.5-.1.8v.1c-.1.5-.1.9-.1 1.4v.1c0 .4-.1.8-.1 1.2 0 .4-.1.8-.1 1.3 0 .8-.1 1.7-.1 2.6-.4 5.8 0 11.6 1 17.2v.1c.1.4.1.7.2 1 .1.4.1.7.2 1.1 0 .2.1.4.1.7l.3 1.1c.2.7.3 1.4.5 2 .1.5.3 1 .4 1.5.2.5.3 1.1.5 1.6 1.1 3.5 2.6 6.9 4.5 10 1.3 2 2.7 4 4.4 5.6 4.7 4.7 11.4 7.1 17.8 4.8 5.3-1.9 9.3-6.4 12.1-11.2 3.8-6.5 5.8-14 6.9-21.4 1.3-8.3 1.2-17.2-.3-25.8zm-5.5 25.7c-.9 6.3-2.6 12.8-5.8 18.4-2.1 3.8-5.3 7.8-9.7 9.2-.9.3-1.8.4-2.8.4-6.7 0-11.3-6.7-13.8-12.1-2.8-6.2-4.3-13-4.9-19.8-.6-7-.4-14 .8-20.9 1.1-6.2 3-12.4 6.3-17.7 3-4.8 8.2-9.4 14.3-7.6 4.4 1.3 7.5 5.3 9.7 9.2 3.1 5.6 4.8 11.9 5.8 18.2 1.1 7.4 1.1 15.2.1 22.7z" class="st1"/>
    </g>
    <path d="M-307.9 292.1c-.9 6.3-2.6 12.8-5.8 18.4-2.1 3.8-5.3 7.8-9.7 9.2-.9.3-1.8.4-2.8.4-6.7 0-11.3-6.7-13.8-12.1-2.8-6.2-4.3-13-4.9-19.8-.6-7-.4-14 .8-20.9 1.1-6.2 3-12.4 6.3-17.7 3-4.8 8.2-9.4 14.3-7.6 4.4 1.3 7.5 5.3 9.7 9.2 3.1 5.6 4.8 11.9 5.8 18.2 1.1 7.4 1.1 15.2.1 22.7z"/>
  </g>
  <g id="blue-stripe">
    <path d="M315.9 263.3H-326v34.5h641.9c2.3 0 4.2-1.9 4.2-4.2v-26.2c0-2.2-1.9-4.1-4.2-4.1z" class="st4"/>
  </g>
  <g id="whistle">
    <path d="M-240.7 187.5c-26.1 0-47.3 21.2-47.3 47.3 0 26.1 21.2 47.3 47.3 47.3 26.1 0 47.3-21.2 47.3-47.3.1-26.1-21.2-47.3-47.3-47.3zm0 91.7c-24.4 0-44.3-19.9-44.3-44.3s19.9-44.3 44.3-44.3 44.3 19.9 44.3 44.3c.1 24.4-19.8 44.3-44.3 44.3z" class="st4"/>
    <path d="M-196.3 234.8c0 24.4-19.9 44.3-44.3 44.3s-44.3-19.9-44.3-44.3 19.9-44.3 44.3-44.3 44.3 19.9 44.3 44.3z" class="st5"/>
    <path d="M-204.8 221.8l-.4-.8h-53c-2.9 0-5.8.4-8.4 1.6-7.7 3.4-12.7 10.9-12.7 19.2 0 11.6 9.5 21 21.2 21 11.6 0 21.2-9.5 21.2-21.1l31.7-4.5.3-.4c.1-.3 3.7-5.4.1-15zm-2.4 12.8l-33.2 4.6.1 1.4c0 .4.1.8.1 1.2 0 10-8.1 18.1-18.1 18.1s-18.1-8.1-18.1-18.1c0-7.2 4.3-13.5 10.9-16.4 2.3-1 4.7-1.3 7.2-1.3h50.9c2.1 5.9.8 9.2.2 10.5z" class="st4"/>
    <path d="M-207.2 234.6l-33.2 4.6.1 1.4c0 .4.1.8.1 1.2 0 10-8.1 18.1-18.1 18.1s-18.1-8.1-18.1-18.1c0-7.2 4.3-13.5 10.9-16.4 2.3-1 4.7-1.3 7.2-1.3h50.9c2.1 5.9.8 9.2.2 10.5z" class="st6"/>
  </g>
  <g id="exams">
    <path d="M-77.5 186.5c-26.2 0-47.5 22-47.5 49s21.3 49 47.5 49 47.5-22 47.5-49-21.3-49-47.5-49zm0 94.9c-24.5 0-44.5-20.6-44.5-46 0-25.3 20-46 44.5-46S-33 210-33 235.4s-20 46-44.5 46z" class="st4"/>
    <path d="M-33 235.5c0 25.3-20 46-44.5 46s-44.5-20.6-44.5-46c0-25.3 20-46 44.5-46s44.5 20.6 44.5 46z" class="st5"/>
    <path d="M-71.1 201H-84c-4.1 0-8 3.1-8 7.2V224h28v-15.8c0-4.1-3-7.2-7.1-7.2zM-90 222v-13.8c0-3 3-5.2 6-5.2h12.9c3 0 5.1 2.2 5.1 5.2V222h-24z" class="st4"/>
    <path d="M-66 208.2V222h-24v-13.8c0-3 3-5.2 6-5.2h12.9c3 0 5.1 2.2 5.1 5.2z" class="st7"/>
    <path d="M-92 248v15.4c0 4.1 3.9 7.6 8 7.6h12.9c4.1 0 7.1-3.5 7.1-7.6V248h-28zm26 15.4c0 3-2.1 5.6-5.1 5.6H-84c-3 0-6-2.6-6-5.6V250h24v13.4z" class="st4"/>
    <path d="M-66 250v13.4c0 3-2.1 5.6-5.1 5.6H-84c-3 0-6-2.6-6-5.6V250h24z" class="st7"/>
    <path d="M-50.4 222h-54.4c-4.3 0-8.2 3.4-8.2 7.7v12.2c0 4.3 3.9 8.1 8.2 8.1h54.4c4.3 0 7.4-3.8 7.4-8.1v-12.2c0-4.3-3-7.7-7.4-7.7zm5.4 19.9c0 3.2-2.1 6.1-5.4 6.1h-54.4c-3.2 0-6.2-2.9-6.2-6.1v-12.2c0-3.2 3-5.7 6.2-5.7h54.4c3.2 0 5.4 2.5 5.4 5.7v12.2z" class="st4"/>
    <path d="M-50.4 224h-54.4c-3.2 0-6.2 2.5-6.2 5.7v12.2c0 3.2 3 6.1 6.2 6.1h54.4c3.2 0 5.4-2.9 5.4-6.1v-12.2c0-3.2-2.1-5.7-5.4-5.7zM-67 240.5c0 3.6-2.9 6.5-6.5 6.5h-8c-3.6 0-6.5-2.9-6.5-6.5v-9c0-3.6 2.9-6.5 6.5-6.5h8c3.6 0 6.5 2.9 6.5 6.5v9z" class="st7"/>
    <path d="M-67 231.5c0-3.6-2.9-6.5-6.5-6.5h-8c-3.6 0-6.5 2.9-6.5 6.5v9c0 3.6 2.9 6.5 6.5 6.5h8c3.6 0 6.5-2.9 6.5-6.5v-9zm-2 8.5c0 2.5-1.9 5-4.3 5h-8.5c-2.5 0-4.2-2.5-4.2-5v-9.1c0-2.5 1.7-3.9 4.2-3.9h8.5c2.5 0 4.3 1.5 4.3 3.9v9.1z" class="st4"/>
    <path d="M-69 230.9v9.1c0 2.5-1.9 5-4.3 5h-8.5c-2.5 0-4.2-2.5-4.2-5v-9.1c0-2.5 1.7-3.9 4.2-3.9h8.5c2.4 0 4.3 1.5 4.3 3.9z" class="st7"/>
  </g>
  <g id="reff">
    <path d="M94.5 186.5c-26.2 0-47.5 22-47.5 49s21.3 49 47.5 49 47.5-22 47.5-49-21.3-49-47.5-49zm0 94.9c-24.5 0-44.5-20.6-44.5-46 0-25.3 20-46 44.5-46s44.5 20.6 44.5 46-20 46-44.5 46z" class="st4"/>
    <path d="M139 235.5c0 25.3-20 46-44.5 46S50 260.9 50 235.5c0-25.3 20-46 44.5-46s44.5 20.6 44.5 46z" class="st5"/>
    <g>
      <path d="M130.6 231.1L126 235v-9.4l4.3 5z" class="st5"/>
      <path d="M130.6 231.1L126 235v-9l4.3 4.6z" class="st8"/>
      <path d="M80.6 223.4v.2l-3.2 4.2z" class="st8"/>
      <path d="M83 212.1l-2.5 5.8 2.5-.6v43.5l-5.1.2 3.3-38.2-.6.8v-.2l-3.2 4.4-1.4 1.8v-16.7l7-2.1z" class="st5"/>
      <path d="M95 214.6v45.9h-.3l-5.7.2v-44.9l5.4-1.4.1.1z" class="st5"/>
      <path d="M107 217.3v43.6l-6-.2v-44.8z" class="st5"/>
      <path d="M107 211v.6l-.3-.7z" class="st5"/>
      <path d="M70 218.6v18.8l-1.5 1.9-4.5-3.7v-.2l1 .9v-12.1l-1 1.1v-.1z" class="st5"/>
      <path d="M65 236.3v-12.1l-1 1.1v10.1z" class="st5"/>
      <path d="M120 219.4v18.9l-7-9v-16.5l1.4.5z" class="st5"/>
      <path d="M76 212.9v16.7l-6 7.8v-18.8l4.9-5.3z"/>
      <path d="M89 215.8v44.9l-6 .1v-43.5z"/>
      <path d="M83.7 210.5l-.7 1.6v-1.3z"/>
      <path d="M101 215.9v44.8l-6-.2v-45.9z"/>
      <path d="M94.8 265h.2z"/>
      <path d="M113 229.3l-5-6.5 3.4 38.2-4.4-.1v-43.6l2.8.7-2.8-6.4v-.6l6 1.8z"/>
      <path d="M126 226v9l-5.2 4.3-.8-1v-18.9z"/>
      <path d="M130.3 230.6L126 226v-.4z" class="st4"/>
      <path d="M77.4 227.8l-1.4 1.9v-.1z" class="st4"/>
      <path d="M135 231.4l-19-20.7-12.4-3.8-9.1 3.9-9.1-3.9-12.4 3.8-19 20.7 14.7 12.2 8.4-10.8-2.8 31.3 2.7-.1 5.8-.2 6 .1 5.5.1h.2l.3-.2 6 .1 6 .1 4.7.1 3 .1-2.8-31.3 8.4 10.8 14.9-12.3zM101 212l3.5-1.3 1.9 4.4-5.4-1.2-3-.7 3-1.2zm-15.2-1.3l3.2 1.4 2.4 1-2.4.6-5.1 1.3 1.9-4.3zm27.2 18.6l-5-6.4 3.4 38.1-4.4-.1-6-.2-6-.2h-.3l-5.7.2-6 .2-5.1.2 3.4-38.2-.6.8-3.2 4.2-1.4 1.9v-.1l-6 7.7-1.5 1.9-4.5-3.7-5.4-4.5 5.4-5.9 6-6.6 4.9-5.3 1.1-.3 7-2.2.7-.2-.7 1.6-2.5 5.8 2.5-.6 6-1.5 5.4-1.3h.1l.5.1 6 1.4 6 1.4 2.8.6-2.8-6.4-.3-.7.3.1 6 1.8 1.4.4 5.6 6.1 6 6.6v-.3l4.3 5 .4.4-4.8 3.9-5.2 4.3-.8-1-7-9z" class="st4"/>
      <path d="M64 225.2v10.4l-5.4-4.5z"/>
      <path d="M91.4 213.1l-2.4.6-5.1 1.3 1.9-4.3 3.2 1.4z"/>
      <path d="M106.3 215.1l-5.3-1.3-3.1-.7 3.1-1.1 3.4-1.3z"/>
    </g>
  </g>
  <g id="bottle">
    <path d="M272.4 186.5c-26.2 0-47.5 22-47.5 49s21.3 49 47.5 49 47.5-22 47.5-49-21.3-49-47.5-49zm0 94.9c-24.5 0-44.5-20.6-44.5-46 0-25.3 20-46 44.5-46s44.5 20.6 44.5 46-19.9 46-44.5 46z" class="st4"/>
    <path d="M284 221h-21v-9h9v-7h4v7h8z" class="st5"/>
    <path d="M283.8 227c4.1 20-.8 36.7-1.9 40.1l-19 .1c-5.8-20.5-1.3-37.2-.3-40.2h21.2z" class="st5"/>
    <path d="M272.4 189.5c-24.5 0-44.5 20.6-44.5 46 0 25.3 20 46 44.5 46s44.5-20.6 44.5-46-19.9-46-44.5-46zm11.2 78.7l-.2.7-21.9-.1-.2-.7c-7-24-.5-42.2-.2-42.9l.3-.7h4.7V223h-5v-13h9v-7h8v7h8v13h-5v1.5h4.5l.1.8c4.9 23.7-2.1 42.7-2.1 42.9z" class="st5"/>
    <path d="M285.6 225.3l-.1-.8H281V223h5v-13h-8v-7h-8v7h-9v13h5v1.5h-4.7l-.3.7c-.3.8-6.8 19 .2 42.9l.2.7 21.9.1.2-.7c.1-.2 7.1-19.2 2.1-42.9zM263 221v-9h9v-7h4v7h8v9h-21zm18.9 46.1l-19 .1c-5.8-20.5-1.3-37.2-.3-40.2h21.1c4.2 20-.7 36.7-1.8 40.1z" class="st4"/>
    <path d="M284 212v9h-21v-9h9v-7h4v7z" class="st9"/>
    <path d="M281.9 267.1l-19 .1c-5.8-20.5-1.3-37.2-.3-40.2h21.1c4.2 20-.7 36.7-1.8 40.1z" class="st10"/>
  </g>
</svg>
