<svg xmlns="http://www.w3.org/2000/svg" width="388.1" height="192" viewBox="0 0 388.1 192">
  <path fill="#FFF" d="M375.5 63.1H12c-6.6 0-12 5.4-12 12v62.2c0 6.6 5.4 12 12 12h363.5c6.6 0 12-5.4 12-12V75.1c0-6.6-5.4-12-12-12z"/>
  <g>
    <circle cx="206.1" cy="66.7" r="26" fill="#231F20"/>
    <g fill="#F05623">
      <path d="M186.1 83.7c0-.1 0-.1 0 0-.3-.4-.5-.6-.7-.9-.2-.3-.5-.6-.7-.9l-.6-.9c-.2-.3-.4-.7-.7-1-.5-.9-1-1.8-1.4-2.7-.3-.6-.5-1.3-.7-1.9-.2-.5-.4-1.1-.5-1.6-.2-.8-.4-1.5-.5-2.3l-.3-2.3c-.1-.5-.1-1-.1-1.4v-1c0-.1 0-.2.1-.2.9-.3 1.7-.6 2.7-.8.9-.2 1.7-.3 2.6-.4.4 0 .9-.1 1.4-.1h1.7c.6 0 1.2.1 1.8.2.8.1 1.6.3 2.4.5.7.2 1.3.5 2 .7.5.2 1 .5 1.5.7.8.5 1.7 1 2.4 1.5.3.2.7.5.9.8.4.5.5 1.1.2 1.6-.2.4-.4.7-.7.9-4.1 3.9-8.2 7.7-12.4 11.6l-.1.1c-.1 0-.2-.1-.3-.2z"/>
      <path d="M224.7 48.1c-.1 0-.1.1-.2.1-4.1 3.9-8.3 7.7-12.4 11.6-.4.3-.8.6-1.3.7-.4.1-.8-.1-1.1-.3-.4-.3-.6-.7-.9-1.1-.4-.7-.8-1.3-1.1-2-.3-.5-.5-1.1-.7-1.7l-.6-1.8c-.2-.9-.4-1.7-.5-2.6-.1-.6-.1-1.3-.1-1.9v-1.8c.1-.9.2-1.8.4-2.7.2-.8.4-1.5.7-2.3.2-.6.5-1.2.7-1.7 0-.1.1-.1.2-.1.6.1 1.1.1 1.7.2.9.1 1.9.3 2.8.5.8.2 1.5.4 2.2.7.6.2 1.1.4 1.7.6.6.3 1.2.5 1.8.8.9.4 1.8 1 2.6 1.5.5.3.9.7 1.4 1 .4.3.7.6 1.1.8.2.2.4.3.5.5l.7.7h.1l.3.3z"/>
      <path d="M187.6 85.2c.1 0 .1-.1.2-.1 4.1-3.9 8.3-7.7 12.4-11.6.4-.3.8-.6 1.3-.7.4-.1.8.1 1.1.3.4.3.6.7.9 1.1.4.7.8 1.3 1.1 2 .3.5.5 1.1.7 1.7l.6 1.8c.2.9.4 1.7.5 2.6.1.6.1 1.3.1 1.9V86l-.3 2.4c-.2.9-.4 1.8-.7 2.7-.2.6-.5 1.1-.7 1.7l-.1.1c-.5 0-1-.1-1.5-.1-.5-.1-1.1-.1-1.6-.2-.7-.1-1.5-.3-2.2-.5-.9-.2-1.8-.5-2.7-.9-.8-.3-1.5-.7-2.3-1-.9-.4-1.8-.9-2.6-1.5-.5-.3-.9-.7-1.4-1-.4-.3-.7-.6-1.1-.8-.2-.2-.4-.3-.5-.5l-.7-.7h-.1c-.3-.3-.4-.4-.4-.5z"/>
      <path d="M226.1 49.6s0 .1 0 0c.2.3.3.4.5.6.2.3.4.6.7.9.2.3.5.6.7.9.2.4.5.7.7 1.1.6 1 1.1 1.9 1.5 3 .3.6.5 1.3.7 1.9.2.5.4 1.1.5 1.6.2.8.4 1.6.5 2.4l.3 2.2c.1.5.1 1 .1 1.4v1c0 .1 0 .2-.1.2-.5.2-1 .4-1.5.5-1.2.3-2.3.6-3.5.7-.5 0-1.1.1-1.6.1h-1.7c-.9-.1-1.8-.2-2.7-.4-1-.2-2.1-.5-3-.9-.5-.2-1.1-.5-1.6-.7-.6-.3-1.2-.7-1.8-1.1-.5-.3-1-.7-1.5-1.1-.4-.3-.7-.7-.7-1.3 0-.3.1-.6.3-.9.2-.3.4-.5.7-.8 4.1-3.8 8.2-7.7 12.3-11.5l.1-.1c-.1.1 0 .2.1.3z"/>
      <path d="M187.6 48.1c0 .1.1.1.1.2 5.3 5.6 10.5 11.2 15.8 16.9.4.4.7.9.7 1.5 0 .3-.1.6-.3.9-.3.5-.7.8-1.2 1.1-.4.2-.9.2-1.3.1-.5-.1-.9-.4-1.3-.7-.6-.5-1.3-.9-2-1.3-.8-.5-1.6-1-2.5-1.3-.7-.3-1.5-.6-2.3-.9-.6-.2-1.2-.4-1.8-.5-.7-.1-1.3-.3-2-.3-.6-.1-1.3-.1-1.9-.1-.8 0-1.7 0-2.5.1-.9.1-1.8.2-2.7.4-.8.2-1.5.4-2.2.6h-.1c0-.3 0-.5.1-.8 0-.4.1-.8.2-1.1.1-.4.1-.9.2-1.3.1-.6.3-1.3.5-1.9.3-.9.6-1.8.9-2.6.4-1.1.9-2.1 1.5-3 .4-.8.9-1.5 1.4-2.2.3-.4.5-.8.8-1.1.2-.3.4-.5.7-.8.4-.4.7-.8 1.1-1.2v-.1c-.1-.4 0-.5.1-.6z"/>
      <path d="M223.1 86.6c-.3.2-.4.3-.6.5-.3.2-.6.4-.8.6l-.9.6c-.4.3-.9.6-1.3.8-.9.6-1.9 1.1-2.9 1.5-.6.3-1.3.5-1.9.7-.5.2-1.1.4-1.6.5-1.1.3-2.3.5-3.4.7-.6.1-1.3.1-1.9.2-.4 0-.8 0-1.2.1h-.1c.1-.3.2-.6.3-.8.1-.4.3-.8.4-1.2l.6-2.1.3-1.9c.1-.6.1-1.2.1-1.9 0-1 0-2.1-.2-3.1-.1-.9-.3-1.8-.6-2.7-.3-1-.6-2-1-2.9-.4-.9-.8-1.8-1.3-2.6-.3-.5-.6-1-.9-1.4-.4-.7-.6-1.4-.3-2.1.1-.2.2-.4.3-.5.3-.3.5-.5.9-.7.5-.2.9-.2 1.4 0 .4.2.7.4.9.7 5.2 5.6 10.5 11.2 15.7 16.8 0 .1.1.1.2.2 0-.1-.1-.1-.2 0z"/>
      <path d="M224.7 85.2c0-.1-.1-.1-.1-.2-5.3-5.6-10.5-11.2-15.8-16.9-.4-.4-.7-.9-.7-1.5 0-.3.1-.6.3-.9.3-.5.7-.8 1.2-1.1.4-.2.9-.2 1.3-.1.5.1.9.4 1.3.7.6.5 1.3.9 2 1.3.8.5 1.6 1 2.5 1.3.7.3 1.5.6 2.3.9.6.2 1.2.4 1.8.5.7.1 1.3.3 2 .3.6.1 1.3.1 1.9.1 1 0 2 0 2.9-.2.9-.1 1.8-.3 2.7-.5.6-.2 1.2-.3 1.7-.5h.1c0 .3 0 .5-.1.8 0 .4-.1.8-.2 1.1-.1.4-.1.9-.2 1.3-.1.7-.3 1.3-.5 2-.3.9-.6 1.7-.9 2.6-.4 1.1-.9 2.1-1.5 3.1-.4.8-.9 1.5-1.4 2.2-.3.4-.5.8-.8 1.1-.2.3-.4.5-.7.8-.3.3-.5.6-.8.9l-.3.3s0 .1-.1.1c.2.3.2.4.1.5z"/>
      <path d="M189.1 46.7s.1 0 0 0c.4-.3.6-.5.9-.7.3-.2.6-.5.9-.7l.9-.6c.4-.2.7-.4 1.1-.7.8-.5 1.7-1 2.6-1.3.6-.3 1.3-.5 1.9-.7.5-.2 1.1-.4 1.6-.5.8-.2 1.6-.4 2.4-.5l2.2-.3c.5-.1 1-.1 1.4-.1h.6c-.1.3-.2.5-.3.8-.2.4-.3.8-.4 1.3l-.6 2.1-.3 1.9c-.1.6-.1 1.3-.1 1.9 0 .8.1 1.6.1 2.4.1.9.2 1.7.4 2.6.2.9.4 1.7.8 2.6.3.7.6 1.5.9 2.2.4.9.9 1.7 1.4 2.5.2.3.4.6.5.9.3.6.3 1.2.1 1.8-.1.2-.2.4-.4.5-.3.3-.5.5-.9.7-.5.2-.9.2-1.4 0-.4-.2-.7-.4-.9-.7-5.2-5.6-10.5-11.2-15.7-16.8 0-.1-.1-.1-.2-.2.3-.3.4-.3.5-.4z"/>
    </g>
  </g>
  <g fill="#CC2036">
    <path d="M84.6 99.9v5.8h-5v-3.6l-3-3H67l-3 3v7.3l2.2 2.1h14.1l4.7 4.6v13l-6.1 6.1H65l-6.1-6.1v-7.5h5v5.4l3.2 3.2h9.6l3.1-3.2v-8.5l-2.1-2.2h-14l-4.8-4.7V99.9l5.8-5.8h14.1l5.8 5.8z"/>
    <path d="M120 100.4v12.9l-6.3 6.3H99.5v10.5h4.7v5H90.1v-5h4.3v-31h-4.3v-5h23.7l6.2 6.3zm-20.5-1.3v15.8h12.1l3.3-3.3v-9.2l-3.3-3.3H99.5z"/>
    <path d="M151.3 128.5l-6.6 6.6h-13.6l-6.6-6.6v-28.1l6.3-6.3H145l6.3 6.3v28.1zm-18.4-29.4l-3.3 3.3v24.1l3.6 3.6h9.6l3.6-3.6v-24.1l-3.3-3.3h-10.2z"/>
    <path d="M185.9 99.9v11.6l-5.6 5.6h-3.1l6.6 13h3.8v5H175v-5h3.5l-6.6-13h-6v13h3.6v5h-12.9v-5h4.3v-31h-4.3V94h23.5l5.8 5.9zm-20-.8v14h12l2.9-2.9V102l-2.9-2.9h-12z"/>
    <path d="M219.9 106.1h-4.3v-7.2h-8v31.2h4.9v5h-14.8v-5h4.9V98.9h-8v7.2h-4.3V94h29.8v12.1z"/>
  </g>
  <g fill="#4167B0" stroke="#4167B0" stroke-miterlimit="10">
    <path d="M43.9 53.9v5.8h-5v-3.6l-3-3h-9.6l-3 3v7.3l2.2 2.1h14.1l4.7 4.6v13l-6.1 6.1H24.3L18.2 83v-7.5h5v5.4l3.2 3.2H36l3.1-3.2v-8.5L37 70.2H23l-4.8-4.7V53.9L24 48h14.1l5.8 5.9z"/>
    <path d="M79.3 54.4v12.9L73 73.6H58.8v10.5h4.7v5H49.4v-5h4.3v-31h-4.3v-5H73l6.3 6.3zm-20.5-1.3v15.8h12.1l3.3-3.3v-9.2l-3.3-3.3H58.8z"/>
    <path d="M110.6 82.5l-6.6 6.6H90.4l-6.6-6.6V54.4l6.3-6.3h14.1l6.3 6.3v28.1zM92.2 53.1l-3.3 3.3v24.1l3.6 3.6h9.6l3.6-3.6V56.4l-3.3-3.3H92.2z"/>
    <path d="M145.2 53.9v11.6l-5.6 5.6h-3.1l6.6 13h3.8v5h-12.6v-5h3.5l-6.6-13h-6v13h3.6v5h-12.9v-5h4.3v-31h-4.3V48h23.5l5.8 5.9zm-20-.8v14h12l2.9-2.9V56l-2.9-2.9h-12z"/>
    <path d="M179.2 60.1h-4.3v-7.2h-8v31.2h4.9v5H157v-5h4.9V52.9h-8v7.2h-4.3V48h29.8v12.1z"/>
  </g>
  <g>
    <g fill="#1D2554">
      <path d="M247 77.1l2-8.1h.9l-2.5 9.3h-1l-2.2-8.2-2.2 8.2h-1l-2.4-9.3h.9l2 8.1 2.2-8.1h1l2.3 8.1z"/>
      <path d="M251.1 78.4V69h.8v3.6c.6-.7 1.2-1.1 2.2-1.1.8 0 1.6.3 2 1 .3.5.3 1 .3 1.5v4.4h-.8V74c0-1.2-.5-1.8-1.7-1.8-1 0-1.6.6-1.9 1.3-.2.4-.2.8-.2 1.3v3.6h-.7z"/>
      <path d="M258.3 70.2V69h.9v1.2h-.9zm.1 8.2v-6.7h.8v6.7h-.8z"/>
      <path d="M261.3 78.4V69h.8v9.3h-.8z"/>
      <path d="M264.5 75.2c0 1.5.8 2.7 2.3 2.7 1 0 1.8-.6 2-1.5h.9c-.4 1.3-1.2 2.2-2.9 2.2-2.2 0-3.1-1.5-3.1-3.5s1.2-3.6 3.1-3.6c1.8 0 3 1.3 3 3.7h-5.3zm4.4-.6c0-1.3-.7-2.4-2.1-2.4-1.4 0-2.1 1.1-2.3 2.4h4.4z"/>
      <path d="M274.9 70.2V69h.9v1.2h-.9zm.1 8.2v-6.7h.8v6.7h-.8z"/>
      <path d="M278.5 78.4h-.8v-6.7h.8v.9c.6-.7 1.2-1.1 2.2-1.1.8 0 1.6.3 2 1 .3.5.3 1 .3 1.5v4.4h-.8V74c0-1.2-.5-1.8-1.7-1.8-1 0-1.6.6-1.9 1.3-.2.4-.2.8-.2 1.3v3.6z"/>
      <path d="M285.9 71.7v7.6c0 1.1-.1 1.8-1.3 1.8-.2 0-.3 0-.5-.1v-.7c.9.1 1.1-.2 1.1-.9v-7.7h.7zm0-1.5h-.9V69h.9v1.2z"/>
      <path d="M292.4 71.7h.8v6.7h-.8v-.9c-.4.5-1 1.1-2.2 1.1-1.8 0-2.4-1.1-2.4-2.5v-4.4h.8v4.4c0 1.2.5 1.8 1.7 1.8 1.3 0 2-1.1 2-2.5v-3.7z"/>
      <path d="M295.8 78.4h-.8v-6.7h.8V73c.4-1.1 1.1-1.4 2.2-1.4v.8c-1.8 0-2.2 1.3-2.2 2.8v3.2z"/>
      <path d="M299.4 70.2V69h.9v1.2h-.9zm0 8.2v-6.7h.8v6.7h-.8z"/>
      <path d="M302.7 75.2c0 1.5.8 2.7 2.3 2.7 1 0 1.8-.6 2-1.5h.9c-.4 1.3-1.2 2.2-2.9 2.2-2.2 0-3.1-1.5-3.1-3.5s1.2-3.6 3.1-3.6c1.8 0 3 1.3 3 3.7h-5.3zm4.4-.6c0-1.3-.7-2.4-2.1-2.4-1.4 0-2.1 1.1-2.3 2.4h4.4z"/>
      <path d="M309.9 76.3c.2 1.2.8 1.6 2 1.6 1.1 0 1.7-.6 1.7-1.2 0-1.9-4.3-.6-4.3-3.2 0-1.1.9-1.9 2.4-1.9s2.4.6 2.6 2.1h-.8c-.1-1-.8-1.4-1.8-1.4s-1.5.5-1.5 1.2c0 1.8 4.3.7 4.3 3.3 0 1.3-1.2 2-2.7 2-1.6 0-2.5-1-2.6-2.3h.7z"/>
      <path d="M324.3 73.8c-.3-1-1-1.6-2-1.6-1.6 0-2.3 1.5-2.3 2.9s.6 2.8 2.3 2.8c1.2 0 1.9-.7 2.1-1.8h.8c-.3 1.5-1.2 2.5-2.9 2.5-2.1 0-3.1-1.5-3.1-3.5 0-1.9 1.1-3.6 3.1-3.6 1.5 0 2.6.7 2.8 2.3h-.8z"/>
      <path d="M329.8 74.5c.3 0 .8-.1 1-.2.3-.1.3-.5.3-.7 0-.8-.5-1.4-1.7-1.4-1.1 0-1.8.4-2 1.5h-.8c.1-1.6 1.3-2.2 2.8-2.2 1.4 0 2.4.5 2.4 2.1v3.7c0 .6.2.8.8.5v.6c-.1 0-.4.1-.6.1h-.4c-.5-.1-.6-.5-.6-1-.6.7-1.5 1.1-2.5 1.1-1.2 0-2.2-.6-2.2-1.9 0-1.1.8-1.8 2.3-2l1.2-.2zm1.3.4c-.7.3-1.3.3-2 .4-1.2.1-1.9.5-1.9 1.4 0 .8.7 1.2 1.5 1.2 1.2 0 2.5-.6 2.5-2v-1z"/>
      <path d="M334.7 78.4h-.8v-6.7h.8v.9c.6-.7 1.2-1.1 2.2-1.1.8 0 1.6.3 2 1 .3.5.3 1 .3 1.5v4.4h-.8V74c0-1.2-.5-1.8-1.7-1.8-1 0-1.6.6-1.9 1.3-.2.4-.2.8-.2 1.3v3.6z"/>
      <path d="M345.5 78.4h-.8v-6.7h.8V73c.4-1.1 1.1-1.4 2.2-1.4v.8c-1.8 0-2.2 1.3-2.2 2.8v3.2z"/>
      <path d="M352.1 74.5c.3 0 .8-.1 1-.2.3-.1.3-.5.3-.7 0-.8-.5-1.4-1.7-1.4-1.1 0-1.8.4-2 1.5h-.7c.1-1.6 1.3-2.2 2.8-2.2 1.4 0 2.4.5 2.4 2.1v3.7c0 .6.2.8.8.5v.6c-.1 0-.4.1-.6.1h-.4c-.5-.1-.6-.5-.6-1-.6.7-1.5 1.1-2.5 1.1-1.2 0-2.2-.6-2.2-1.9 0-1.1.8-1.8 2.3-2l1.1-.2zm1.3.4c-.7.3-1.3.3-2 .4-1.2.1-1.9.5-1.9 1.4 0 .8.7 1.2 1.5 1.2 1.2 0 2.5-.6 2.5-2v-1z"/>
      <path d="M357 78.4h-.8v-6.7h.8v.9c.6-.7 1.2-1.1 2.2-1.1.8 0 1.6.3 2 1 .3.5.3 1 .3 1.5v4.4h-.8V74c0-1.2-.5-1.8-1.7-1.8-1 0-1.6.6-1.9 1.3-.2.4-.2.8-.2 1.3v3.6z"/>
      <path d="M368.6 71.7h.8v6.1c0 1.8-.6 3.4-3.2 3.4-2 0-2.8-1.1-2.8-1.9h.8c.2 1 1.1 1.2 2 1.2 2.1 0 2.4-1.6 2.4-3.1-.5.8-1.5 1.3-2.4 1.3-2 0-3-1.7-3-3.6 0-2 .9-3.5 3-3.5.9 0 1.9.5 2.3 1.4v-1.3zm-2.2.5c-1.3 0-2.3.9-2.3 2.6-.1 1.7.7 3 2.3 3 1.4 0 2.3-1.3 2.3-2.8-.1-1.6-.9-2.8-2.3-2.8z"/>
      <path d="M371.9 75.2c0 1.5.8 2.7 2.3 2.7 1 0 1.8-.6 2-1.5h.9c-.4 1.3-1.2 2.2-2.9 2.2-2.2 0-3.1-1.5-3.1-3.5s1.2-3.6 3.1-3.6c1.8 0 3 1.3 3 3.7h-5.3zm4.3-.6c0-1.3-.7-2.4-2.1-2.4-1.4 0-2.1 1.1-2.3 2.4h4.4z"/>
      <path d="M238.9 87.9v-.6h1v-1.1c0-1.1.4-1.7 1.4-1.7.2 0 .4 0 .6.1v.7c-.2 0-.3-.1-.5-.1-.8 0-.8.7-.8 1.3v.8h1.3v.6h-1.3V94h-.8v-6.1h-.9z"/>
      <path d="M244 93.9h-.8v-6.7h.8v1.3c.4-1.1 1.1-1.4 2.2-1.4v.8c-1.8 0-2.2 1.3-2.2 2.8v3.2z"/>
      <path d="M246.8 90.6c0-2 1-3.5 3.1-3.5s3.1 1.6 3.1 3.5c0 2.1-1.2 3.5-3.1 3.5-1.7 0-3.1-1.2-3.1-3.5zm3.1-2.9c-1.6 0-2.3 1.4-2.3 2.8 0 1.7.8 2.8 2.3 2.8 1.6 0 2.3-1.4 2.3-2.8 0-1.5-.7-2.8-2.3-2.8z"/>
      <path d="M255.1 93.9h-.8v-6.7h.8v1c.4-.8 1.2-1.2 2.1-1.2 1.2 0 1.7.6 2 1.3.4-.9 1.2-1.3 2.2-1.3 1.8 0 2.1 1.3 2.1 2.7v4.2h-.8v-4.6c0-1-.3-1.6-1.4-1.6-.6 0-1.1.2-1.5.8-.3.4-.4 1.3-.4 1.8v3.6h-.8v-4.6c0-1-.3-1.6-1.4-1.6-.6 0-1.1.2-1.5.8-.3.4-.4 1.3-.4 1.8v3.6z"/>
      <path d="M269.3 91.8c.2 1.2.8 1.6 2 1.6 1.1 0 1.7-.6 1.7-1.2 0-1.9-4.3-.6-4.3-3.2 0-1.1.9-1.9 2.4-1.9s2.4.6 2.6 2.1h-.8c-.1-1-.8-1.4-1.8-1.4s-1.5.5-1.5 1.2c0 1.8 4.3.7 4.3 3.3 0 1.3-1.2 2-2.7 2-1.6 0-2.5-1-2.6-2.3h.7z"/>
      <path d="M280.1 89.3c-.3-1-1-1.6-2-1.6-1.6 0-2.3 1.5-2.3 2.9s.6 2.8 2.3 2.8c1.2 0 1.9-.7 2.1-1.8h.8c-.3 1.5-1.2 2.5-2.9 2.5-2.1 0-3.1-1.5-3.1-3.5 0-1.9 1.1-3.6 3.1-3.6 1.5 0 2.6.7 2.8 2.3h-.8z"/>
      <path d="M283.3 93.9h-.8v-6.7h.8v1.3c.4-1.1 1.1-1.4 2.2-1.4v.8c-1.8 0-2.2 1.3-2.2 2.8v3.2z"/>
      <path d="M289.9 90c.3 0 .8-.1 1-.2.3-.1.3-.5.3-.7 0-.8-.5-1.4-1.7-1.4-1.1 0-1.8.4-2 1.5h-.8c.1-1.6 1.3-2.2 2.8-2.2 1.4 0 2.4.5 2.4 2.1v3.7c0 .6.2.8.8.5v.6c-.1 0-.4.1-.6.1h-.4c-.5-.1-.6-.5-.6-1-.6.7-1.5 1.1-2.5 1.1-1.2 0-2.2-.6-2.2-1.9 0-1.1.8-1.8 2.3-2l1.2-.2zm1.3.4c-.7.3-1.3.3-2 .4-1.2.1-1.9.5-1.9 1.4 0 .8.7 1.2 1.5 1.2 1.2 0 2.5-.6 2.5-2v-1z"/>
      <path d="M294.9 96.6h-.8v-9.4h.8v1.2c.5-.9 1.5-1.4 2.3-1.4 2.2 0 3 1.5 3 3.5 0 1.9-.9 3.6-3 3.6-.9 0-1.9-.4-2.4-1.3v3.8zm2.3-3.2c1.6 0 2.4-1.4 2.3-3 0-1.7-1-2.6-2.3-2.6-1.5 0-2.3 1.2-2.3 2.9 0 1.4.9 2.7 2.3 2.7z"/>
      <path d="M302.4 90.8c0 1.5.8 2.7 2.3 2.7 1 0 1.8-.6 2-1.5h.9c-.4 1.3-1.2 2.2-2.9 2.2-2.2 0-3.1-1.5-3.1-3.5s1.2-3.6 3.1-3.6c1.8 0 3 1.3 3 3.7h-5.3zm4.4-.7c0-1.3-.7-2.4-2.1-2.4-1.4 0-2.1 1.1-2.3 2.4h4.4z"/>
      <path d="M309.6 91.8c.2 1.2.8 1.6 2 1.6 1.1 0 1.7-.6 1.7-1.2 0-1.9-4.3-.6-4.3-3.2 0-1.1.9-1.9 2.4-1.9s2.4.6 2.6 2.1h-.8c-.1-1-.8-1.4-1.8-1.4s-1.5.5-1.5 1.2c0 1.8 4.3.7 4.3 3.3 0 1.3-1.2 2-2.7 2-1.6 0-2.5-1-2.6-2.3h.7z"/>
      <path d="M322.3 90c.3 0 .8-.1 1-.2.3-.1.3-.5.3-.7 0-.8-.5-1.4-1.7-1.4-1.1 0-1.8.4-2 1.5h-.8c.1-1.6 1.3-2.2 2.8-2.2 1.4 0 2.4.5 2.4 2.1v3.7c0 .6.2.8.8.5v.6c-.1 0-.4.1-.6.1h-.4c-.5-.1-.6-.5-.6-1-.6.7-1.5 1.1-2.5 1.1-1.2 0-2.2-.6-2.2-1.9 0-1.1.8-1.8 2.3-2l1.2-.2zm1.4.4c-.7.3-1.3.3-2 .4-1.2.1-1.9.5-1.9 1.4 0 .8.7 1.2 1.5 1.2 1.2 0 2.5-.6 2.5-2v-1z"/>
      <path d="M327.2 93.9h-.8v-6.7h.8v.9c.6-.7 1.2-1.1 2.2-1.1.8 0 1.6.3 2 1 .3.5.3 1 .3 1.5v4.4h-.7v-4.4c0-1.2-.5-1.8-1.7-1.8-1 0-1.6.6-1.9 1.3-.2.4-.2.8-.2 1.3v3.6z"/>
      <path d="M338.9 84.6h.8v9.3h-.8v-1.2c-.5.9-1.5 1.4-2.3 1.4-2.2 0-3-1.5-3-3.5 0-1.9.9-3.6 3-3.6.9 0 1.9.4 2.4 1.3v-3.7zm-2.3 3.1c-1.6 0-2.4 1.4-2.3 3 0 1.7 1 2.6 2.3 2.6 1.5 0 2.3-1.2 2.3-2.9 0-1.4-.9-2.7-2.3-2.7z"/>
      <path d="M346.1 93.9h-.8v-9.3h.8v3.7c.5-.8 1.5-1.3 2.4-1.3 2 0 3 1.7 3 3.6 0 2-.9 3.5-3 3.5-.9 0-1.9-.5-2.3-1.4v1.2zm2.2-.5c1.3 0 2.3-.9 2.3-2.6.1-1.7-.7-3-2.3-3-1.4 0-2.3 1.3-2.3 2.8.1 1.6.9 2.8 2.3 2.8z"/>
      <path d="M353.9 93.9h-.8v-6.7h.8v1.3c.4-1.1 1.1-1.4 2.2-1.4v.8c-1.8 0-2.2 1.3-2.2 2.8v3.2z"/>
      <path d="M362 87.2h.8v6.7h-.8V93c-.4.5-1 1.1-2.2 1.1-1.8 0-2.4-1.1-2.4-2.5v-4.4h.8v4.4c0 1.2.5 1.8 1.7 1.8 1.3 0 2-1.1 2-2.5v-3.7z"/>
      <path d="M364.7 85.8v-1.2h.9v1.2h-.9zm.1 8.1v-6.7h.8v6.7h-.8z"/>
      <path d="M368 91.8c.2 1.2.8 1.6 2 1.6 1.1 0 1.7-.6 1.7-1.2 0-1.9-4.3-.6-4.3-3.2 0-1.1.9-1.9 2.4-1.9s2.4.6 2.6 2.1h-.8c-.1-1-.8-1.4-1.8-1.4s-1.5.5-1.5 1.2c0 1.8 4.3.7 4.3 3.3 0 1.3-1.2 2-2.7 2-1.6 0-2.5-1-2.6-2.3h.7z"/>
      <path d="M376.9 90.2v.8h-3.3v-.8h3.3z"/>
      <path d="M240 106.3c0 1.5.8 2.7 2.3 2.7 1 0 1.8-.6 2-1.5h.9c-.4 1.3-1.2 2.2-2.9 2.2-2.2 0-3.1-1.5-3.1-3.5s1.2-3.6 3.1-3.6c1.8 0 3 1.3 3 3.7H240zm4.4-.6c0-1.3-.7-2.4-2.1-2.4-1.4 0-2.1 1.1-2.3 2.4h4.4z"/>
      <path d="M247.2 107.4c.2 1.2.8 1.6 2 1.6 1.1 0 1.7-.6 1.7-1.2 0-1.9-4.3-.6-4.3-3.2 0-1.1.9-1.9 2.4-1.9s2.4.6 2.6 2.1h-.8c-.1-1-.8-1.4-1.8-1.4s-1.5.5-1.5 1.2c0 1.8 4.3.7 4.3 3.3 0 1.3-1.2 2-2.7 2-1.6 0-2.5-1-2.6-2.3h.7z"/>
      <path d="M259.2 109.5c-.2 0-.5.2-.9.2-.8 0-1.2-.3-1.2-1.3v-4.9h-.9v-.6h.9V101h.8v1.9h1.3v.6h-1.3v4.6c0 .7 0 .9.7.9.2 0 .4 0 .6-.1v.6z"/>
      <path d="M260 106.1c0-2 1-3.5 3.1-3.5s3.1 1.6 3.1 3.5c0 2.1-1.2 3.5-3.1 3.5-1.7 0-3.1-1.1-3.1-3.5zm3.1-2.8c-1.6 0-2.3 1.4-2.3 2.8 0 1.7.8 2.8 2.3 2.8 1.6 0 2.3-1.4 2.3-2.8 0-1.5-.7-2.8-2.3-2.8z"/>
      <path d="M272.1 109.5h-.8v-9.3h.8v3.7c.5-.8 1.5-1.3 2.4-1.3 2 0 3 1.7 3 3.6 0 2-.9 3.5-3 3.5-.9 0-1.9-.5-2.3-1.4v1.2zm2.3-.5c1.3 0 2.3-.9 2.3-2.6.1-1.7-.7-3-2.3-3-1.4 0-2.3 1.3-2.3 2.8 0 1.5.8 2.8 2.3 2.8z"/>
      <path d="M280 109.5h-.8v-6.7h.8v1.3c.4-1.1 1.1-1.4 2.2-1.4v.8c-1.8 0-2.2 1.3-2.2 2.8v3.2z"/>
      <path d="M286.6 105.6c.3 0 .8-.1 1-.2.3-.1.3-.5.3-.7 0-.8-.5-1.4-1.7-1.4-1.1 0-1.8.3-2 1.5h-.8c.1-1.6 1.3-2.2 2.8-2.2 1.4 0 2.4.5 2.4 2.1v3.7c0 .6.2.8.8.5v.6c-.1 0-.4.1-.6.1h-.4c-.5-.1-.6-.5-.6-1-.6.7-1.5 1.1-2.5 1.1-1.2 0-2.2-.6-2.2-1.9 0-1.1.8-1.8 2.3-2l1.2-.2zm1.3.4c-.7.3-1.3.3-2 .4-1.2.1-1.9.5-1.9 1.4 0 .8.7 1.2 1.5 1.2 1.2 0 2.5-.6 2.5-2v-1z"/>
      <path d="M290.8 101.3v-1.2h.9v1.2h-.9zm0 8.2v-6.7h.8v6.7h-.8z"/>
      <path d="M294.3 109.5h-.8v-6.7h.8v.9c.6-.7 1.2-1.1 2.2-1.1.8 0 1.6.3 2 1 .3.5.3 1 .3 1.5v4.4h-.8v-4.4c0-1.2-.5-1.8-1.7-1.8-1 0-1.6.6-1.9 1.3-.2.4-.2.8-.2 1.3v3.6z"/>
      <path d="M307.5 105.6c.3 0 .8-.1 1-.2.3-.1.3-.5.3-.7 0-.8-.5-1.4-1.7-1.4-1.1 0-1.8.3-2 1.5h-.8c.1-1.6 1.3-2.2 2.8-2.2 1.4 0 2.4.5 2.4 2.1v3.7c0 .6.2.8.8.5v.6c-.1 0-.4.1-.6.1h-.4c-.5-.1-.6-.5-.6-1-.6.7-1.5 1.1-2.5 1.1-1.2 0-2.2-.6-2.2-1.9 0-1.1.8-1.8 2.3-2l1.2-.2zm1.3.4c-.7.3-1.3.3-2 .4-1.2.1-1.9.5-1.9 1.4 0 .8.7 1.2 1.5 1.2 1.2 0 2.5-.6 2.5-2v-1z"/>
      <path d="M312.4 109.5h-.8v-6.7h.8v.9c.6-.7 1.2-1.1 2.2-1.1.8 0 1.6.3 2 1 .3.5.3 1 .3 1.5v4.4h-.8v-4.4c0-1.2-.5-1.8-1.7-1.8-1 0-1.6.6-1.9 1.3-.2.4-.2.8-.2 1.3v3.6z"/>
      <path d="M324 100.2h.8v9.3h-.8v-1.2c-.5.9-1.5 1.4-2.3 1.4-2.2 0-3-1.5-3-3.5 0-1.9.9-3.6 3-3.6.9 0 1.9.4 2.4 1.3v-3.7zm-2.3 3.1c-1.6 0-2.4 1.4-2.3 3 0 1.7 1 2.6 2.3 2.6 1.5 0 2.3-1.2 2.3-2.9 0-1.4-.9-2.7-2.3-2.7z"/>
      <path d="M330.8 107.4c.2 1.2.8 1.6 2 1.6 1.1 0 1.7-.6 1.7-1.2 0-1.9-4.3-.6-4.3-3.2 0-1.1.9-1.9 2.4-1.9s2.4.6 2.6 2.1h-.8c-.1-1-.8-1.4-1.8-1.4s-1.5.5-1.5 1.2c0 1.8 4.3.7 4.3 3.3 0 1.3-1.2 2-2.7 2-1.6 0-2.5-1-2.6-2.3h.7z"/>
      <path d="M337.7 112.1h-.8v-9.4h.8v1.2c.5-.9 1.5-1.4 2.3-1.4 2.2 0 3 1.5 3 3.5 0 1.9-.9 3.6-3 3.6-.9 0-1.9-.4-2.4-1.3v3.8zm2.2-3.1c1.6 0 2.4-1.4 2.3-3 0-1.7-1-2.6-2.3-2.6-1.5 0-2.3 1.2-2.3 2.9.1 1.4.9 2.7 2.3 2.7z"/>
      <path d="M344.8 101.3v-1.2h.9v1.2h-.9zm0 8.2v-6.7h.8v6.7h-.8z"/>
      <path d="M348.4 109.5h-.8v-6.7h.8v.9c.6-.7 1.2-1.1 2.2-1.1.8 0 1.6.3 2 1 .3.5.3 1 .3 1.5v4.4h-.8v-4.4c0-1.2-.5-1.8-1.7-1.8-1 0-1.6.6-1.9 1.3-.2.4-.2.8-.2 1.3v3.6z"/>
      <path d="M357.9 105.6c.3 0 .8-.1 1-.2.3-.1.3-.5.3-.7 0-.8-.5-1.4-1.7-1.4-1.1 0-1.8.3-2 1.5h-.8c.1-1.6 1.3-2.2 2.8-2.2 1.4 0 2.4.5 2.4 2.1v3.7c0 .6.2.8.8.5v.6c-.1 0-.4.1-.6.1h-.4c-.5-.1-.6-.5-.6-1-.6.7-1.5 1.1-2.5 1.1-1.2 0-2.2-.6-2.2-1.9 0-1.1.8-1.8 2.3-2l1.2-.2zm1.3.4c-.7.3-1.3.3-2 .4-1.2.1-1.9.5-1.9 1.4 0 .8.7 1.2 1.5 1.2 1.2 0 2.5-.6 2.5-2v-1z"/>
      <path d="M362.1 109.5v-9.3h.8v9.3h-.8z"/>
      <path d="M244.3 120.4c-.3-1-1-1.6-2-1.6-1.6 0-2.3 1.5-2.3 2.9s.6 2.8 2.3 2.8c1.2 0 1.9-.7 2.1-1.8h.8c-.3 1.5-1.2 2.5-2.9 2.5-2.1 0-3.1-1.5-3.1-3.5 0-1.9 1.1-3.6 3.1-3.6 1.5 0 2.6.7 2.8 2.3h-.8z"/>
      <path d="M246.3 121.7c0-2 1-3.5 3.1-3.5s3.1 1.6 3.1 3.5c0 2.1-1.2 3.5-3.1 3.5-1.7 0-3.1-1.2-3.1-3.5zm3.1-2.9c-1.6 0-2.3 1.4-2.3 2.8 0 1.7.8 2.8 2.3 2.8 1.6 0 2.3-1.4 2.3-2.8 0-1.5-.6-2.8-2.3-2.8z"/>
      <path d="M254.8 125h-.8v-6.7h.8v1.3c.4-1.1 1.1-1.4 2.2-1.4v.8c-1.8 0-2.2 1.3-2.2 2.8v3.2z"/>
      <path d="M263.2 115.7h.8v9.3h-.8v-1.2c-.5.9-1.5 1.4-2.3 1.4-2.2 0-3-1.5-3-3.5 0-1.9.9-3.6 3-3.6.9 0 1.9.4 2.4 1.3v-3.7zm-2.2 3.1c-1.6 0-2.4 1.4-2.3 3 0 1.7 1 2.6 2.3 2.6 1.5 0 2.3-1.2 2.3-2.9-.1-1.4-.9-2.7-2.3-2.7z"/>
      <path d="M269.6 116.9v-1.2h.9v1.2h-.9zm.1 8.1v-6.7h.8v6.7h-.8z"/>
      <path d="M273.2 125h-.8v-6.7h.8v.9c.6-.7 1.2-1.1 2.2-1.1.8 0 1.6.3 2 1 .3.5.3 1 .3 1.5v4.4h-.7v-4.4c0-1.2-.5-1.8-1.7-1.8-1 0-1.6.6-1.9 1.3-.2.4-.2.8-.2 1.3v3.6z"/>
      <path d="M280.6 118.3v7.6c0 1.1-.1 1.8-1.3 1.8-.2 0-.3 0-.5-.1v-.6c.9.1 1.1-.2 1.1-.9v-7.7h.7zm.1-1.4h-.9v-1.2h.9v1.2z"/>
      <path d="M287.1 118.3h.8v6.7h-.8v-.9c-.4.5-1 1.1-2.2 1.1-1.8 0-2.4-1.1-2.4-2.5v-4.4h.8v4.4c0 1.2.5 1.8 1.7 1.8 1.3 0 2-1.1 2-2.5v-3.7z"/>
      <path d="M290.5 125h-.8v-6.7h.8v1.3c.4-1.1 1.1-1.4 2.2-1.4v.8c-1.8 0-2.2 1.3-2.2 2.8v3.2z"/>
      <path d="M294.1 116.9v-1.2h.9v1.2h-.9zm.1 8.1v-6.7h.8v6.7h-.8z"/>
      <path d="M297.4 121.9c0 1.5.8 2.7 2.3 2.7 1 0 1.8-.6 2-1.5h.9c-.4 1.3-1.2 2.2-2.9 2.2-2.2 0-3.1-1.5-3.1-3.5s1.2-3.6 3.1-3.6c1.8 0 3 1.3 3 3.7h-5.3zm4.4-.7c0-1.3-.7-2.4-2.1-2.4-1.4 0-2.1 1.1-2.3 2.4h4.4z"/>
      <path d="M304.6 122.9c.2 1.2.8 1.6 2 1.6 1.1 0 1.7-.6 1.7-1.2 0-1.9-4.3-.6-4.3-3.2 0-1.1.9-1.9 2.4-1.9s2.4.6 2.6 2.1h-.8c-.1-1-.8-1.4-1.8-1.4s-1.5.5-1.5 1.2c0 1.8 4.3.7 4.3 3.3 0 1.3-1.2 2-2.7 2-1.6 0-2.5-1-2.6-2.3h.7z"/>
      <path d="M311.9 125.4c0 .8-.4 1.2-.9 1.4v-.5c.2-.1.4-.3.4-.9v-.4h-.4v-1.1h.9v1.5z"/>
      <path d="M318.5 125h-.8v-6.7h.8v1c.4-.8 1.2-1.2 2.1-1.2 1.2 0 1.7.6 2 1.3.4-.9 1.2-1.3 2.2-1.3 1.8 0 2.1 1.3 2.1 2.7v4.2h-.8v-4.6c0-1-.3-1.6-1.4-1.6-.6 0-1.1.2-1.5.8-.3.4-.4 1.3-.4 1.8v3.6h-.8v-4.6c0-1-.3-1.6-1.4-1.6-.6 0-1.1.2-1.5.8-.3.4-.4 1.3-.4 1.8v3.6z"/>
      <path d="M328.2 121.7c0-2 1-3.5 3.1-3.5s3.1 1.6 3.1 3.5c0 2.1-1.2 3.5-3.1 3.5-1.7 0-3.1-1.2-3.1-3.5zm3.1-2.9c-1.6 0-2.3 1.4-2.3 2.8 0 1.7.8 2.8 2.3 2.8 1.6 0 2.3-1.4 2.3-2.8 0-1.5-.7-2.8-2.3-2.8z"/>
      <path d="M336.3 122.9c.2 1.2.8 1.6 2 1.6 1.1 0 1.7-.6 1.7-1.2 0-1.9-4.3-.6-4.3-3.2 0-1.1.9-1.9 2.4-1.9s2.4.6 2.6 2.1h-.8c-.1-1-.8-1.4-1.8-1.4s-1.5.5-1.5 1.2c0 1.8 4.3.7 4.3 3.3 0 1.3-1.2 2-2.7 2-1.6 0-2.5-1-2.6-2.3h.7z"/>
      <path d="M344.7 125.1c-.2 0-.5.2-.9.2-.8 0-1.2-.3-1.2-1.3v-5h-.9v-.6h.9v-1.9h.8v1.9h1.3v.6h-1.3v4.6c0 .7 0 .9.7.9.2 0 .4 0 .6-.1v.7z"/>
      <path d="M348.8 119v-.6h1v-1.1c0-1.1.4-1.7 1.4-1.7.2 0 .4 0 .6.1v.7c-.2 0-.3-.1-.5-.1-.8 0-.8.7-.8 1.3v.8h1.3v.6h-1.3v6.1h-.8V119h-.9z"/>
      <path d="M356.2 121.1c.3 0 .8-.1 1-.2.3-.1.3-.5.3-.7 0-.8-.5-1.4-1.7-1.4-1.1 0-1.8.3-2 1.5h-.8c.1-1.6 1.3-2.2 2.8-2.2 1.4 0 2.4.5 2.4 2.1v3.7c0 .6.2.8.8.5v.6c-.1 0-.4.1-.6.1h-.4c-.5-.1-.6-.5-.6-1-.6.7-1.5 1.1-2.5 1.1-1.2 0-2.2-.6-2.2-1.9 0-1.1.8-1.8 2.3-2l1.2-.2zm1.3.4c-.7.3-1.3.3-2 .4-1.2.1-1.9.5-1.9 1.4 0 .8.7 1.2 1.5 1.2 1.2 0 2.5-.6 2.5-2v-1z"/>
      <path d="M360.4 125v-9.3h.8v9.3h-.8z"/>
      <path d="M363.3 125v-9.3h.8v9.3h-.8z"/>
      <path d="M240 138.5c.2 1.2.8 1.6 2 1.6 1.1 0 1.7-.6 1.7-1.2 0-1.9-4.3-.6-4.3-3.2 0-1.1.9-1.9 2.4-1.9s2.4.6 2.6 2.1h-.8c-.1-1-.8-1.4-1.8-1.4s-1.5.5-1.5 1.2c0 1.8 4.3.7 4.3 3.3 0 1.3-1.2 2-2.7 2-1.6 0-2.5-1-2.6-2.3h.7z"/>
      <path d="M245.6 137.2c0-2 1-3.5 3.1-3.5s3.1 1.6 3.1 3.5c0 2.1-1.2 3.5-3.1 3.5-1.7.1-3.1-1.1-3.1-3.5zm3.1-2.8c-1.6 0-2.3 1.4-2.3 2.8 0 1.7.8 2.8 2.3 2.8 1.6 0 2.3-1.4 2.3-2.8 0-1.5-.7-2.8-2.3-2.8z"/>
      <path d="M253.9 140.6h-.8v-6.7h.8v1c.4-.8 1.2-1.2 2.1-1.2 1.2 0 1.7.6 2 1.3.4-.9 1.2-1.3 2.2-1.3 1.8 0 2.1 1.3 2.1 2.7v4.2h-.8V136c0-1-.3-1.6-1.4-1.6-.6 0-1.1.2-1.5.8-.3.4-.4 1.3-.4 1.8v3.6h-.8V136c0-1-.3-1.6-1.4-1.6-.6 0-1.1.2-1.5.8-.3.4-.4 1.3-.4 1.8v3.6z"/>
      <path d="M264.5 137.4c0 1.5.8 2.7 2.3 2.7 1 0 1.8-.6 2-1.5h.9c-.4 1.3-1.2 2.2-2.9 2.2-2.2 0-3.1-1.5-3.1-3.5s1.2-3.6 3.1-3.6c1.8 0 3 1.3 3 3.7h-5.3zm4.4-.6c0-1.3-.7-2.4-2.1-2.4-1.4 0-2.1 1.1-2.3 2.4h4.4z"/>
      <path d="M276.9 139.6l1.8-5.7h.8l-2.2 6.7h-.8L275 135l-1.5 5.6h-.9l-2-6.7h.8l1.7 5.7 1.6-5.7h.9l1.3 5.7z"/>
      <path d="M280.6 140.6v-9.3h.8v3.6c.6-.7 1.2-1.1 2.2-1.1.8 0 1.6.3 2 1 .3.5.3 1 .3 1.5v4.4h-.8v-4.4c0-1.2-.5-1.8-1.7-1.8-1 0-1.6.6-1.9 1.3-.2.4-.2.8-.2 1.3v3.6h-.7z"/>
      <path d="M288.3 137.4c0 1.5.8 2.7 2.3 2.7 1 0 1.8-.6 2-1.5h.9c-.4 1.3-1.2 2.2-2.9 2.2-2.2 0-3.1-1.5-3.1-3.5s1.2-3.6 3.1-3.6c1.8 0 3 1.3 3 3.7h-5.3zm4.4-.6c0-1.3-.7-2.4-2.1-2.4-1.4 0-2.1 1.1-2.3 2.4h4.4z"/>
      <path d="M295.8 140.6h-.8v-6.7h.8v1.3c.4-1.1 1.1-1.4 2.2-1.4v.8c-1.8 0-2.2 1.3-2.2 2.8v3.2z"/>
      <path d="M299.6 137.4c0 1.5.8 2.7 2.3 2.7 1 0 1.8-.6 2-1.5h.9c-.4 1.3-1.2 2.2-2.9 2.2-2.2 0-3.1-1.5-3.1-3.5s1.2-3.6 3.1-3.6c1.8 0 3 1.3 3 3.7h-5.3zm4.4-.6c0-1.3-.7-2.4-2.1-2.4-1.4 0-2.1 1.1-2.3 2.4h4.4z"/>
      <path d="M310 132.4v-1.2h.9v1.2h-.9zm0 8.2v-6.7h.8v6.7h-.8z"/>
      <path d="M313.6 140.6h-.8v-6.7h.8v.9c.6-.7 1.2-1.1 2.2-1.1.8 0 1.6.3 2 1 .3.5.3 1 .3 1.5v4.4h-.8v-4.4c0-1.2-.5-1.8-1.7-1.8-1 0-1.6.6-1.9 1.3-.2.4-.2.8-.2 1.3v3.6z"/>
      <path d="M324.5 140.6h-.8v-9.3h.8v3.7c.5-.8 1.5-1.3 2.4-1.3 2 0 3 1.7 3 3.6 0 2-.9 3.5-3 3.5-.9 0-1.9-.5-2.3-1.4v1.2zm2.2-.5c1.3 0 2.3-.9 2.3-2.6.1-1.7-.7-3-2.3-3-1.4 0-2.3 1.3-2.3 2.8.1 1.5.9 2.8 2.3 2.8z"/>
      <path d="M332 137.4c0 1.5.8 2.7 2.3 2.7 1 0 1.8-.6 2-1.5h.9c-.4 1.3-1.2 2.2-2.9 2.2-2.2 0-3.1-1.5-3.1-3.5s1.2-3.6 3.1-3.6c1.8 0 3 1.3 3 3.7H332zm4.4-.6c0-1.3-.7-2.4-2.1-2.4-1.4 0-2.1 1.1-2.3 2.4h4.4z"/>
      <path d="M341.1 140.6c-.2 0-.5.2-.9.2-.8 0-1.2-.3-1.2-1.3v-4.9h-1v-.6h.9v-2h.8v1.9h1.3v.6h-1.3v4.6c0 .7 0 .9.7.9.2 0 .4 0 .6-.1v.7z"/>
      <path d="M348 139.6l1.8-5.7h.8l-2.2 6.7h-.8l-1.5-5.6-1.5 5.6h-.9l-2-6.7h.8l1.7 5.7 1.6-5.7h.9l1.3 5.7z"/>
      <path d="M352.2 137.4c0 1.5.8 2.7 2.3 2.7 1 0 1.8-.6 2-1.5h.9c-.4 1.3-1.2 2.2-2.9 2.2-2.2 0-3.1-1.5-3.1-3.5s1.2-3.6 3.1-3.6c1.8 0 3 1.3 3 3.7h-5.3zm4.3-.6c0-1.3-.7-2.4-2.1-2.4-1.4 0-2.1 1.1-2.3 2.4h4.4z"/>
      <path d="M359.4 137.4c0 1.5.8 2.7 2.3 2.7 1 0 1.8-.6 2-1.5h.9c-.4 1.3-1.2 2.2-2.9 2.2-2.2 0-3.1-1.5-3.1-3.5s1.2-3.6 3.1-3.6c1.8 0 3 1.3 3 3.7h-5.3zm4.4-.6c0-1.3-.7-2.4-2.1-2.4-1.4 0-2.1 1.1-2.3 2.4h4.4z"/>
      <path d="M366.9 140.6h-.8v-6.7h.8v.9c.6-.7 1.2-1.1 2.2-1.1.8 0 1.6.3 2 1 .3.5.3 1 .3 1.5v4.4h-.8v-4.4c0-1.2-.5-1.8-1.7-1.8-1 0-1.6.6-1.9 1.3-.2.4-.2.8-.2 1.3v3.6z"/>
    </g>
  </g>
  <g>
    <path fill="#CC2036" d="M46.9 94.9c1.3 0 7.4-.7 8.6.4 1 .9.3 6.4.3 7.9-.3 6.9-1.6 14.2-4.8 20.4-6.1 12.2-18.9 16.8-31.9 17-1.3 0-7 .6-8.1-.5-1.4-1.3-1-6.5-1-8.3.1-6.3 1.1-12.8 3.9-18.5 6.3-12.9 19.5-17.3 33-18.4 1.5 0-.8 0 0 0z"/>
    <g fill="#FFF">
      <path d="M30.4 116.5l-.1 2.4 2.5.1 3.5 3.8-.2 3.8-7.5 6.8-1.5-1.6 1.4-1.3-9.3-10.1-1.4 1.3-1.5-1.6 7.5-6.8 3.6.2 3 3zm-9.4 2.4l3.7 4 3.7-3.4.1-1.8-1.9-2.1-1.9-.1-3.7 3.4zm5 5.4l4.3 4.7 3.7-3.4.1-2-2.5-2.7-1.8-.1-3.8 3.5z"/>
      <path d="M37.8 103.5l-1.3 1.2 2.8 9.1 3.5 3.8 1.5-1.3 1.5 1.6-4.6 4.2-1.5-1.6 1.5-1.3-3.5-3.8-8.9-3.6-1.3 1.2-1.5-1.6 4.1-3.8 1.5 1.6-1.1 1 6.9 3-2.4-7.1-1.1 1-1.5-1.6 3.8-3.5 1.6 1.5z"/>
    </g>
  </g>
</svg>
