<svg id="Layer_1" xmlns="http://www.w3.org/2000/svg" width="94.7" height="94.7" viewBox="0 0 94.7 94.7"><style>.st0{fill:#4167B0;} .st1{fill:#FFFFFF;} .st2{fill:#D9F0FC;}</style><path class="st0" d="M47.3 0C21.2 0 0 21.2 0 47.3c0 26.1 21.2 47.3 47.3 47.3 26.1 0 47.3-21.2 47.3-47.3C94.7 21.2 73.4 0 47.3 0zm0 91.7C22.9 91.7 3 71.8 3 47.3 3 22.9 22.9 3 47.3 3s44.3 19.9 44.3 44.3c.1 24.5-19.8 44.4-44.3 44.4z"/><path class="st1" d="M91.7 47.3c0 24.4-19.9 44.3-44.3 44.3S3 71.8 3 47.3C3 22.9 22.9 3 47.3 3s44.4 19.9 44.4 44.3z"/><path class="st0" d="M83.2 34.1l-.4-1.1h-53c-2.9 0-5.8.7-8.4 1.8-7.7 3.4-12.7 11-12.7 19.4 0 11.6 9.5 21.1 21.2 21.1 11.6 0 21.2-9.4 21.2-21.1l31.7-4.5.3-.6c.1-.2 3.7-5.5.1-15zm-2.4 12.7l-33.2 4.7.1 1.4c0 .4.1.8.1 1.2 0 10-8.1 18.1-18.1 18.1s-18.1-8.1-18.1-18.1c0-7.2 4.3-13.8 10.9-16.7 2.3-1 4.7-1.6 7.2-1.6h50.9c2.1 6.2.8 9.8.2 11z"/><path class="st2" d="M80.8 46.8l-33.2 4.7.1 1.4c0 .4.1.8.1 1.2 0 10-8.1 18.1-18.1 18.1s-18.1-8.1-18.1-18.1c0-7.2 4.3-13.8 10.9-16.7 2.3-1 4.7-1.6 7.2-1.6h50.9c2.1 6.2.8 9.8.2 11z"/></svg>